{
	"asset":{
		"generator":"Khronos glTF Blender I/O v5.2.40",
		"version":"2.0"
	},
	"scene":0,
	"scenes":[
		{
			"name":"Scene",
			"nodes":[
				0,
				1,
				2,
				3
			]
		}
	],
	"nodes":[
		{
			"name":"LEFT_SIDE",
			"scale":[
				0.0010000000474974513,
				0.0010000000474974513,
				0.0010000000474974513
			],
			"translation":[
				0,
				0.039924994111061096,
				0.027499999850988388
			]
		},
		{
			"name":"MOUNTING_POINT",
			"scale":[
				0.0010000000474974513,
				0.0010000000474974513,
				0.0010000000474974513
			],
			"translation":[
				0.01769999973475933,
				0.03757999837398529,
				0.001500000013038516
			]
		},
		{
			"mesh":0,
			"name":"Part 1"
		},
		{
			"name":"RIGHT_SIDE",
			"scale":[
				0.0010000000474974513,
				0.0010000000474974513,
				0.0010000000474974513
			],
			"translation":[
				0.03539999946951866,
				0.039924994111061096,
				0.027499999850988388
			]
		}
	],
	"materials":[
		{
			"doubleSided":true,
			"name":"Material_0",
			"pbrMetallicRoughness":{
				"baseColorFactor":[
					0.6899999976158142,
					0.6899999976158142,
					0.6899999976158142,
					1
				],
				"metallicFactor":0
			}
		}
	],
	"meshes":[
		{
			"name":"Part 1",
			"primitives":[
				{
					"attributes":{
						"POSITION":0,
						"NORMAL":1
					},
					"indices":2,
					"material":0
				}
			]
		}
	],
	"accessors":[
		{
			"bufferView":0,
			"componentType":5126,
			"count":3404,
			"max":[
				0.03539999946951866,
				0.07999999821186066,
				0.0732278972864151
			],
			"min":[
				0,
				-0.004699999932199717,
				0
			],
			"type":"VEC3"
		},
		{
			"bufferView":1,
			"componentType":5126,
			"count":3404,
			"type":"VEC3"
		},
		{
			"bufferView":2,
			"componentType":5123,
			"count":8796,
			"type":"SCALAR"
		}
	],
	"bufferViews":[
		{
			"buffer":0,
			"byteLength":40848,
			"byteOffset":0,
			"target":34962
		},
		{
			"buffer":0,
			"byteLength":40848,
			"byteOffset":40848,
			"target":34962
		},
		{
			"buffer":0,
			"byteLength":17592,
			"byteOffset":81696,
			"target":34963
		}
	],
	"buffers":[
		{
			"byteLength":99288,
			"uri":"component.bin"
		}
	]
}
