{
	"asset":{
		"generator":"Khronos glTF Blender I/O v5.2.40",
		"version":"2.0"
	},
	"scene":0,
	"scenes":[
		{
			"name":"Scene",
			"nodes":[
				0,
				1,
				2,
				3,
				4
			]
		}
	],
	"nodes":[
		{
			"name":"LEFT_SIDE",
			"scale":[
				0.0010000000474974513,
				0.0010000000474974513,
				0.0010000000474974513
			],
			"translation":[
				9.089037484955043e-05,
				0.03388194739818573,
				0.030933862552046776
			]
		},
		{
			"name":"MOUNTING_POINT",
			"scale":[
				0.0010000000474974513,
				0.0010000000474974513,
				0.0010000000474974513
			],
			"translation":[
				0.007543524727225304,
				0.04120705649256706,
				0
			]
		},
		{
			"mesh":0,
			"name":"Part 1"
		},
		{
			"mesh":1,
			"name":"Part 2"
		},
		{
			"name":"RIGHT_SIDE",
			"scale":[
				0.0010000000474974513,
				0.0010000000474974513,
				0.0010000000474974513
			],
			"translation":[
				0.015090890228748322,
				0.0317804291844368,
				0.03495119512081146
			]
		}
	],
	"materials":[
		{
			"doubleSided":true,
			"name":"Material_0.006",
			"pbrMetallicRoughness":{
				"baseColorFactor":[
					0.004776953253895044,
					0.005181516520678997,
					0.005181516520678997,
					1
				],
				"metallicFactor":0
			}
		},
		{
			"doubleSided":true,
			"name":"Material_1.006",
			"pbrMetallicRoughness":{
				"baseColorFactor":[
					0.9473065137863159,
					0.6938717365264893,
					0,
					1
				],
				"metallicFactor":0
			}
		},
		{
			"doubleSided":true,
			"name":"Material_2.006",
			"pbrMetallicRoughness":{
				"baseColorFactor":[
					0.09989872574806213,
					0.12743768095970154,
					0.16202937066555023,
					1
				],
				"metallicFactor":0
			}
		},
		{
			"doubleSided":true,
			"name":"Material_3.006",
			"pbrMetallicRoughness":{
				"baseColorFactor":[
					0.5583403706550598,
					0.5711248517036438,
					0.5520114302635193,
					1
				],
				"metallicFactor":0
			}
		},
		{
			"doubleSided":true,
			"name":"Material_4.006",
			"pbrMetallicRoughness":{
				"baseColorFactor":[
					0.8227857351303101,
					0.8307698965072632,
					0.8069522380828857,
					1
				],
				"metallicFactor":0
			}
		},
		{
			"doubleSided":true,
			"name":"Material_5.006",
			"pbrMetallicRoughness":{
				"baseColorFactor":[
					0,
					0.33716362714767456,
					0.07421357184648514,
					1
				],
				"metallicFactor":0
			}
		},
		{
			"doubleSided":true,
			"name":"Material_6.005",
			"pbrMetallicRoughness":{
				"baseColorFactor":[
					0.8227857351303101,
					0.8307698965072632,
					0.8069522380828857,
					1
				],
				"metallicFactor":0
			}
		},
		{
			"doubleSided":true,
			"name":"Material_7.001",
			"pbrMetallicRoughness":{
				"baseColorFactor":[
					0.004776953253895044,
					0.005181516520678997,
					0.005181516520678997,
					1
				],
				"metallicFactor":0
			}
		}
	],
	"meshes":[
		{
			"name":"Part 1.006",
			"primitives":[
				{
					"attributes":{
						"POSITION":0,
						"NORMAL":1
					},
					"indices":2,
					"material":0
				},
				{
					"attributes":{
						"POSITION":3,
						"NORMAL":4
					},
					"indices":5,
					"material":1
				},
				{
					"attributes":{
						"POSITION":6,
						"NORMAL":7
					},
					"indices":8,
					"material":2
				},
				{
					"attributes":{
						"POSITION":9,
						"NORMAL":10
					},
					"indices":11,
					"material":3
				},
				{
					"attributes":{
						"POSITION":12,
						"NORMAL":13
					},
					"indices":14,
					"material":4
				},
				{
					"attributes":{
						"POSITION":15,
						"NORMAL":16
					},
					"indices":17,
					"material":5
				}
			]
		},
		{
			"name":"Part 2.006",
			"primitives":[
				{
					"attributes":{
						"POSITION":18,
						"NORMAL":19
					},
					"indices":20,
					"material":6
				},
				{
					"attributes":{
						"POSITION":21,
						"NORMAL":22
					},
					"indices":23,
					"material":7
				}
			]
		}
	],
	"accessors":[
		{
			"bufferView":0,
			"componentType":5126,
			"count":408,
			"max":[
				0.0101500004529953,
				0.06589999794960022,
				0.009750000201165676
			],
			"min":[
				0.004110000096261501,
				0.008190000429749489,
				0.0012499999720603228
			],
			"type":"VEC3"
		},
		{
			"bufferView":1,
			"componentType":5126,
			"count":408,
			"type":"VEC3"
		},
		{
			"bufferView":2,
			"componentType":5123,
			"count":1374,
			"type":"SCALAR"
		},
		{
			"bufferView":3,
			"componentType":5126,
			"count":1326,
			"max":[
				0.014999999664723873,
				0.07320000231266022,
				0.057067498564720154
			],
			"min":[
				0,
				0,
				0.004749999847263098
			],
			"type":"VEC3"
		},
		{
			"bufferView":4,
			"componentType":5126,
			"count":1326,
			"type":"VEC3"
		},
		{
			"bufferView":5,
			"componentType":5123,
			"count":3285,
			"type":"SCALAR"
		},
		{
			"bufferView":6,
			"componentType":5126,
			"count":406,
			"max":[
				0.014999999664723873,
				0.07124999910593033,
				0.05824696272611618
			],
			"min":[
				0,
				0.0024415620137006044,
				0.0019499999471008778
			],
			"type":"VEC3"
		},
		{
			"bufferView":7,
			"componentType":5126,
			"count":406,
			"type":"VEC3"
		},
		{
			"bufferView":8,
			"componentType":5123,
			"count":1023,
			"type":"SCALAR"
		},
		{
			"bufferView":9,
			"componentType":5126,
			"count":1160,
			"max":[
				0.007925000041723251,
				0.06437499821186066,
				0.006949999835342169
			],
			"min":[
				0.0053400001488626,
				0.009999999776482582,
				0.0024500000290572643
			],
			"type":"VEC3"
		},
		{
			"bufferView":10,
			"componentType":5126,
			"count":1160,
			"type":"VEC3"
		},
		{
			"bufferView":11,
			"componentType":5123,
			"count":1740,
			"type":"SCALAR"
		},
		{
			"bufferView":12,
			"componentType":5126,
			"count":2181,
			"max":[
				0.014999999664723873,
				0.06434082239866257,
				0.0583348423242569
			],
			"min":[
				0.000944599334616214,
				0.008212205022573471,
				-1.0658141129045731e-17
			],
			"type":"VEC3"
		},
		{
			"bufferView":13,
			"componentType":5126,
			"count":2181,
			"type":"VEC3"
		},
		{
			"bufferView":14,
			"componentType":5123,
			"count":6666,
			"type":"SCALAR"
		},
		{
			"bufferView":15,
			"componentType":5126,
			"count":228,
			"max":[
				0.004000999964773655,
				0.06674999743700027,
				0.009750000201165676
			],
			"min":[
				0.003000000026077032,
				0.005849999841302633,
				0.003449999960139394
			],
			"type":"VEC3"
		},
		{
			"bufferView":16,
			"componentType":5126,
			"count":228,
			"type":"VEC3"
		},
		{
			"bufferView":17,
			"componentType":5123,
			"count":576,
			"type":"SCALAR"
		},
		{
			"bufferView":18,
			"componentType":5126,
			"count":54361,
			"max":[
				0.014018209651112556,
				0.0685945376753807,
				0.058244191110134125
			],
			"min":[
				0.0010178873781114817,
				0.004463835619390011,
				0.057535476982593536
			],
			"type":"VEC3"
		},
		{
			"bufferView":19,
			"componentType":5126,
			"count":54361,
			"type":"VEC3"
		},
		{
			"bufferView":20,
			"componentType":5123,
			"count":125832,
			"type":"SCALAR"
		},
		{
			"bufferView":21,
			"componentType":5126,
			"count":24,
			"max":[
				0.014000000432133675,
				0.0249496977776289,
				0.0582435205578804
			],
			"min":[
				0.009499999694526196,
				0.020449697971343994,
				0.05800991877913475
			],
			"type":"VEC3"
		},
		{
			"bufferView":22,
			"componentType":5126,
			"count":24,
			"type":"VEC3"
		},
		{
			"bufferView":23,
			"componentType":5123,
			"count":36,
			"type":"SCALAR"
		}
	],
	"bufferViews":[
		{
			"buffer":0,
			"byteLength":4896,
			"byteOffset":0,
			"target":34962
		},
		{
			"buffer":0,
			"byteLength":4896,
			"byteOffset":4896,
			"target":34962
		},
		{
			"buffer":0,
			"byteLength":2748,
			"byteOffset":9792,
			"target":34963
		},
		{
			"buffer":0,
			"byteLength":15912,
			"byteOffset":12540,
			"target":34962
		},
		{
			"buffer":0,
			"byteLength":15912,
			"byteOffset":28452,
			"target":34962
		},
		{
			"buffer":0,
			"byteLength":6570,
			"byteOffset":44364,
			"target":34963
		},
		{
			"buffer":0,
			"byteLength":4872,
			"byteOffset":50936,
			"target":34962
		},
		{
			"buffer":0,
			"byteLength":4872,
			"byteOffset":55808,
			"target":34962
		},
		{
			"buffer":0,
			"byteLength":2046,
			"byteOffset":60680,
			"target":34963
		},
		{
			"buffer":0,
			"byteLength":13920,
			"byteOffset":62728,
			"target":34962
		},
		{
			"buffer":0,
			"byteLength":13920,
			"byteOffset":76648,
			"target":34962
		},
		{
			"buffer":0,
			"byteLength":3480,
			"byteOffset":90568,
			"target":34963
		},
		{
			"buffer":0,
			"byteLength":26172,
			"byteOffset":94048,
			"target":34962
		},
		{
			"buffer":0,
			"byteLength":26172,
			"byteOffset":120220,
			"target":34962
		},
		{
			"buffer":0,
			"byteLength":13332,
			"byteOffset":146392,
			"target":34963
		},
		{
			"buffer":0,
			"byteLength":2736,
			"byteOffset":159724,
			"target":34962
		},
		{
			"buffer":0,
			"byteLength":2736,
			"byteOffset":162460,
			"target":34962
		},
		{
			"buffer":0,
			"byteLength":1152,
			"byteOffset":165196,
			"target":34963
		},
		{
			"buffer":0,
			"byteLength":652332,
			"byteOffset":166348,
			"target":34962
		},
		{
			"buffer":0,
			"byteLength":652332,
			"byteOffset":818680,
			"target":34962
		},
		{
			"buffer":0,
			"byteLength":251664,
			"byteOffset":1471012,
			"target":34963
		},
		{
			"buffer":0,
			"byteLength":288,
			"byteOffset":1722676,
			"target":34962
		},
		{
			"buffer":0,
			"byteLength":288,
			"byteOffset":1722964,
			"target":34962
		},
		{
			"buffer":0,
			"byteLength":72,
			"byteOffset":1723252,
			"target":34963
		}
	],
	"buffers":[
		{
			"byteLength":1723324,
			"uri":"Component.bin"
		}
	]
}
