{
	"asset":{
		"generator":"Khronos glTF Blender I/O v5.2.40",
		"version":"2.0"
	},
	"scene":0,
	"scenes":[
		{
			"name":"Scene",
			"nodes":[
				0,
				1,
				2,
				3,
				4,
				5
			]
		}
	],
	"nodes":[
		{
			"name":"LEFT_SIDE",
			"scale":[
				0.0010000000474974513,
				0.0010000000474974513,
				0.0010000000474974513
			],
			"translation":[
				0,
				0.059339359402656555,
				0.012224999256432056
			]
		},
		{
			"name":"MOUNTING_POINT",
			"scale":[
				0.0010000000474974513,
				0.0010000000474974513,
				0.0010000000474974513
			],
			"translation":[
				0.007500000298023224,
				0.06058246269822121,
				-0.0028999987989664078
			]
		},
		{
			"name":"MOUNTING_POINT_IO",
			"scale":[
				0.0010000000474974513,
				0.0010000000474974513,
				0.0010000000474974513
			],
			"translation":[
				0.007499999832361937,
				0.084507517516613,
				0.01590000092983246
			]
		},
		{
			"mesh":0,
			"name":"Part 1"
		},
		{
			"mesh":1,
			"name":"Part 2"
		},
		{
			"name":"RIGHT_SIDE",
			"scale":[
				0.0010000000474974513,
				0.0010000000474974513,
				0.0010000000474974513
			],
			"translation":[
				0.014999999664723873,
				0.05811914801597595,
				0.012966666370630264
			]
		}
	],
	"materials":[
		{
			"doubleSided":true,
			"name":"Material_0",
			"pbrMetallicRoughness":{
				"baseColorFactor":[
					0.8227857351303101,
					0.8307698965072632,
					0.8069522380828857,
					1
				],
				"metallicFactor":0
			}
		},
		{
			"doubleSided":true,
			"name":"Material_1",
			"pbrMetallicRoughness":{
				"baseColorFactor":[
					0.09989872574806213,
					0.12743768095970154,
					0.16202937066555023,
					1
				],
				"metallicFactor":0
			}
		},
		{
			"doubleSided":true,
			"name":"Material_2",
			"pbrMetallicRoughness":{
				"baseColorFactor":[
					0.577580451965332,
					0.5972017645835876,
					0.5520114302635193,
					1
				],
				"metallicFactor":0
			}
		},
		{
			"doubleSided":true,
			"name":"Material_3",
			"pbrMetallicRoughness":{
				"baseColorFactor":[
					0.04970656707882881,
					0.20863686501979828,
					0.2622506618499756,
					1
				],
				"metallicFactor":0
			}
		},
		{
			"doubleSided":true,
			"name":"Material_4",
			"pbrMetallicRoughness":{
				"baseColorFactor":[
					0.004776953253895044,
					0.005181516520678997,
					0.005181516520678997,
					1
				],
				"metallicFactor":0
			}
		},
		{
			"doubleSided":true,
			"name":"Material_5",
			"pbrMetallicRoughness":{
				"baseColorFactor":[
					0.6899999976158142,
					0.6899999976158142,
					0.6899999976158142,
					1
				],
				"metallicFactor":0
			}
		},
		{
			"doubleSided":true,
			"name":"Material_6",
			"pbrMetallicRoughness":{
				"baseColorFactor":[
					0.014443843625485897,
					0.021219009533524513,
					0.30054378509521484,
					1
				],
				"metallicFactor":0
			}
		},
		{
			"doubleSided":true,
			"name":"Material_7",
			"pbrMetallicRoughness":{
				"baseColorFactor":[
					0.7011018991470337,
					0.03688944876194,
					0.0666259378194809,
					1
				],
				"metallicFactor":0
			}
		},
		{
			"doubleSided":true,
			"name":"Material_8",
			"pbrMetallicRoughness":{
				"baseColorFactor":[
					0.8227857351303101,
					0.8307698965072632,
					0.8069522380828857,
					1
				],
				"metallicFactor":0
			}
		}
	],
	"meshes":[
		{
			"name":"Part 1",
			"primitives":[
				{
					"attributes":{
						"POSITION":0,
						"NORMAL":1
					},
					"indices":2,
					"material":0
				},
				{
					"attributes":{
						"POSITION":3,
						"NORMAL":4
					},
					"indices":5,
					"material":1
				},
				{
					"attributes":{
						"POSITION":6,
						"NORMAL":7
					},
					"indices":8,
					"material":2
				},
				{
					"attributes":{
						"POSITION":9,
						"NORMAL":10
					},
					"indices":11,
					"material":3
				},
				{
					"attributes":{
						"POSITION":12,
						"NORMAL":13
					},
					"indices":14,
					"material":4
				},
				{
					"attributes":{
						"POSITION":15,
						"NORMAL":16
					},
					"indices":17,
					"material":5
				},
				{
					"attributes":{
						"POSITION":18,
						"NORMAL":19
					},
					"indices":20,
					"material":6
				},
				{
					"attributes":{
						"POSITION":21,
						"NORMAL":22
					},
					"indices":23,
					"material":7
				}
			]
		},
		{
			"name":"Part 2",
			"primitives":[
				{
					"attributes":{
						"POSITION":24,
						"NORMAL":25
					},
					"indices":26,
					"material":8
				}
			]
		}
	],
	"accessors":[
		{
			"bufferView":0,
			"componentType":5126,
			"count":13138,
			"max":[
				0.01510000042617321,
				0.04031972214579582,
				0.03171975910663605
			],
			"min":[
				0.0010997583158314228,
				0.008100002072751522,
				0.015250000171363354
			],
			"type":"VEC3"
		},
		{
			"bufferView":1,
			"componentType":5126,
			"count":13138,
			"type":"VEC3"
		},
		{
			"bufferView":2,
			"componentType":5123,
			"count":45894,
			"type":"SCALAR"
		},
		{
			"bufferView":3,
			"componentType":5126,
			"count":37698,
			"max":[
				0.014999999664723873,
				0.11703730374574661,
				0.03500000014901161
			],
			"min":[
				-0.005308500025421381,
				2.000000165480742e-09,
				2.042810369280755e-17
			],
			"type":"VEC3"
		},
		{
			"bufferView":4,
			"componentType":5126,
			"count":37698,
			"type":"VEC3"
		},
		{
			"bufferView":5,
			"componentType":5123,
			"count":129828,
			"type":"SCALAR"
		},
		{
			"bufferView":6,
			"componentType":5126,
			"count":2477,
			"max":[
				0.013899999670684338,
				0.11615623533725739,
				0.019050000235438347
			],
			"min":[
				-0.002199999988079071,
				0.009232052601873875,
				0.0029500010423362255
			],
			"type":"VEC3"
		},
		{
			"bufferView":7,
			"componentType":5126,
			"count":2477,
			"type":"VEC3"
		},
		{
			"bufferView":8,
			"componentType":5123,
			"count":3414,
			"type":"SCALAR"
		},
		{
			"bufferView":9,
			"componentType":5126,
			"count":10602,
			"max":[
				0.013900241814553738,
				0.04310000315308571,
				0.03171975910663605
			],
			"min":[
				0.0010997583158314228,
				0.026100002229213715,
				0.025707388296723366
			],
			"type":"VEC3"
		},
		{
			"bufferView":10,
			"componentType":5126,
			"count":10602,
			"type":"VEC3"
		},
		{
			"bufferView":11,
			"componentType":5123,
			"count":38520,
			"type":"SCALAR"
		},
		{
			"bufferView":12,
			"componentType":5126,
			"count":2340,
			"max":[
				0.014999999664723873,
				0.1085750013589859,
				0.021700000390410423
			],
			"min":[
				-0.0034000000450760126,
				0.050638120621442795,
				0.009050000458955765
			],
			"type":"VEC3"
		},
		{
			"bufferView":13,
			"componentType":5126,
			"count":2340,
			"type":"VEC3"
		},
		{
			"bufferView":14,
			"componentType":5123,
			"count":5016,
			"type":"SCALAR"
		},
		{
			"bufferView":15,
			"componentType":5126,
			"count":56,
			"max":[
				0.013975000008940697,
				0.07580000162124634,
				0.03179999813437462
			],
			"min":[
				0.00102499988861382,
				0.0011000019731000066,
				0.015250000171363354
			],
			"type":"VEC3"
		},
		{
			"bufferView":16,
			"componentType":5126,
			"count":56,
			"type":"VEC3"
		},
		{
			"bufferView":17,
			"componentType":5123,
			"count":96,
			"type":"SCALAR"
		},
		{
			"bufferView":18,
			"componentType":5126,
			"count":1272,
			"max":[
				0.013900241814553738,
				0.007100001908838749,
				0.03171975910663605
			],
			"min":[
				0.012199999764561653,
				0.003600002033635974,
				0.025707388296723366
			],
			"type":"VEC3"
		},
		{
			"bufferView":19,
			"componentType":5126,
			"count":1272,
			"type":"VEC3"
		},
		{
			"bufferView":20,
			"componentType":5123,
			"count":4818,
			"type":"SCALAR"
		},
		{
			"bufferView":21,
			"componentType":5126,
			"count":1236,
			"max":[
				0.00279999990016222,
				0.007100001908838749,
				0.03171975910663605
			],
			"min":[
				0.0010997583158314228,
				0.003600002033635974,
				0.025707388296723366
			],
			"type":"VEC3"
		},
		{
			"bufferView":22,
			"componentType":5126,
			"count":1236,
			"type":"VEC3"
		},
		{
			"bufferView":23,
			"componentType":5123,
			"count":4812,
			"type":"SCALAR"
		},
		{
			"bufferView":24,
			"componentType":5126,
			"count":39069,
			"max":[
				0.01510000042617321,
				0.06950375437736511,
				0.03189999982714653
			],
			"min":[
				0.00014553265646100044,
				0.0032830352429300547,
				0.020500000566244125
			],
			"type":"VEC3"
		},
		{
			"bufferView":25,
			"componentType":5126,
			"count":39069,
			"type":"VEC3"
		},
		{
			"bufferView":26,
			"componentType":5123,
			"count":111018,
			"type":"SCALAR"
		}
	],
	"bufferViews":[
		{
			"buffer":0,
			"byteLength":157656,
			"byteOffset":0,
			"target":34962
		},
		{
			"buffer":0,
			"byteLength":157656,
			"byteOffset":157656,
			"target":34962
		},
		{
			"buffer":0,
			"byteLength":91788,
			"byteOffset":315312,
			"target":34963
		},
		{
			"buffer":0,
			"byteLength":452376,
			"byteOffset":407100,
			"target":34962
		},
		{
			"buffer":0,
			"byteLength":452376,
			"byteOffset":859476,
			"target":34962
		},
		{
			"buffer":0,
			"byteLength":259656,
			"byteOffset":1311852,
			"target":34963
		},
		{
			"buffer":0,
			"byteLength":29724,
			"byteOffset":1571508,
			"target":34962
		},
		{
			"buffer":0,
			"byteLength":29724,
			"byteOffset":1601232,
			"target":34962
		},
		{
			"buffer":0,
			"byteLength":6828,
			"byteOffset":1630956,
			"target":34963
		},
		{
			"buffer":0,
			"byteLength":127224,
			"byteOffset":1637784,
			"target":34962
		},
		{
			"buffer":0,
			"byteLength":127224,
			"byteOffset":1765008,
			"target":34962
		},
		{
			"buffer":0,
			"byteLength":77040,
			"byteOffset":1892232,
			"target":34963
		},
		{
			"buffer":0,
			"byteLength":28080,
			"byteOffset":1969272,
			"target":34962
		},
		{
			"buffer":0,
			"byteLength":28080,
			"byteOffset":1997352,
			"target":34962
		},
		{
			"buffer":0,
			"byteLength":10032,
			"byteOffset":2025432,
			"target":34963
		},
		{
			"buffer":0,
			"byteLength":672,
			"byteOffset":2035464,
			"target":34962
		},
		{
			"buffer":0,
			"byteLength":672,
			"byteOffset":2036136,
			"target":34962
		},
		{
			"buffer":0,
			"byteLength":192,
			"byteOffset":2036808,
			"target":34963
		},
		{
			"buffer":0,
			"byteLength":15264,
			"byteOffset":2037000,
			"target":34962
		},
		{
			"buffer":0,
			"byteLength":15264,
			"byteOffset":2052264,
			"target":34962
		},
		{
			"buffer":0,
			"byteLength":9636,
			"byteOffset":2067528,
			"target":34963
		},
		{
			"buffer":0,
			"byteLength":14832,
			"byteOffset":2077164,
			"target":34962
		},
		{
			"buffer":0,
			"byteLength":14832,
			"byteOffset":2091996,
			"target":34962
		},
		{
			"buffer":0,
			"byteLength":9624,
			"byteOffset":2106828,
			"target":34963
		},
		{
			"buffer":0,
			"byteLength":468828,
			"byteOffset":2116452,
			"target":34962
		},
		{
			"buffer":0,
			"byteLength":468828,
			"byteOffset":2585280,
			"target":34962
		},
		{
			"buffer":0,
			"byteLength":222036,
			"byteOffset":3054108,
			"target":34963
		}
	],
	"buffers":[
		{
			"byteLength":3276144,
			"uri":"component.bin"
		}
	]
}
