{
	"asset":{
		"generator":"Khronos glTF Blender I/O v5.2.40",
		"version":"2.0"
	},
	"scene":0,
	"scenes":[
		{
			"name":"Scene",
			"nodes":[
				0,
				1,
				2,
				3,
				4
			]
		}
	],
	"nodes":[
		{
			"name":"LEFT_SIDE",
			"scale":[
				0.0010000000474974513,
				0.0010000000474974513,
				0.0010000000474974513
			],
			"translation":[
				9.089037484955043e-05,
				0.03388194739818573,
				0.030933862552046776
			]
		},
		{
			"name":"MOUNTING_POINT",
			"scale":[
				0.0010000000474974513,
				0.0010000000474974513,
				0.0010000000474974513
			],
			"translation":[
				0.007543524727225304,
				0.04120705649256706,
				0
			]
		},
		{
			"mesh":0,
			"name":"Part 1"
		},
		{
			"mesh":1,
			"name":"Part 2"
		},
		{
			"name":"RIGHT_SIDE",
			"scale":[
				0.0010000000474974513,
				0.0010000000474974513,
				0.0010000000474974513
			],
			"translation":[
				0.015090890228748322,
				0.0317804291844368,
				0.03495119512081146
			]
		}
	],
	"materials":[
		{
			"doubleSided":true,
			"name":"Material_0.002",
			"pbrMetallicRoughness":{
				"baseColorFactor":[
					0.8227857351303101,
					0.8307698965072632,
					0.8069522380828857,
					1
				],
				"metallicFactor":0
			}
		},
		{
			"doubleSided":true,
			"name":"Material_1.002",
			"pbrMetallicRoughness":{
				"baseColorFactor":[
					0.004776953253895044,
					0.005181516520678997,
					0.005181516520678997,
					1
				],
				"metallicFactor":0
			}
		},
		{
			"doubleSided":true,
			"name":"Material_2.002",
			"pbrMetallicRoughness":{
				"baseColorFactor":[
					0.577580451965332,
					0.5972017645835876,
					0.5520114302635193,
					1
				],
				"metallicFactor":0
			}
		},
		{
			"doubleSided":true,
			"name":"Material_3.002",
			"pbrMetallicRoughness":{
				"baseColorFactor":[
					0,
					0.33716362714767456,
					0.07421357184648514,
					1
				],
				"metallicFactor":0
			}
		},
		{
			"doubleSided":true,
			"name":"Material_4.002",
			"pbrMetallicRoughness":{
				"baseColorFactor":[
					0.09989872574806213,
					0.12743768095970154,
					0.16202937066555023,
					1
				],
				"metallicFactor":0
			}
		},
		{
			"doubleSided":true,
			"name":"Material_5.002",
			"pbrMetallicRoughness":{
				"baseColorFactor":[
					0.8227857351303101,
					0.8307698965072632,
					0.8069522380828857,
					1
				],
				"metallicFactor":0
			}
		}
	],
	"meshes":[
		{
			"name":"Part 1.002",
			"primitives":[
				{
					"attributes":{
						"POSITION":0,
						"NORMAL":1
					},
					"indices":2,
					"material":0
				},
				{
					"attributes":{
						"POSITION":3,
						"NORMAL":4
					},
					"indices":5,
					"material":1
				},
				{
					"attributes":{
						"POSITION":6,
						"NORMAL":7
					},
					"indices":8,
					"material":2
				},
				{
					"attributes":{
						"POSITION":9,
						"NORMAL":10
					},
					"indices":11,
					"material":3
				},
				{
					"attributes":{
						"POSITION":12,
						"NORMAL":13
					},
					"indices":14,
					"material":4
				}
			]
		},
		{
			"name":"Part 2.002",
			"primitives":[
				{
					"attributes":{
						"POSITION":15,
						"NORMAL":16
					},
					"indices":17,
					"material":5
				}
			]
		}
	],
	"accessors":[
		{
			"bufferView":0,
			"componentType":5126,
			"count":2632,
			"max":[
				0.015066489577293396,
				0.06341318786144257,
				0.058336276561021805
			],
			"min":[
				0.0009443130111321807,
				0.008212205953896046,
				1.0658141129045731e-17
			],
			"type":"VEC3"
		},
		{
			"bufferView":1,
			"componentType":5126,
			"count":2632,
			"type":"VEC3"
		},
		{
			"bufferView":2,
			"componentType":5123,
			"count":6780,
			"type":"SCALAR"
		},
		{
			"bufferView":3,
			"componentType":5126,
			"count":420,
			"max":[
				0.010950000025331974,
				0.0659250020980835,
				0.010649999603629112
			],
			"min":[
				0.0038999998942017555,
				0.008215000852942467,
				0.0011500000255182385
			],
			"type":"VEC3"
		},
		{
			"bufferView":4,
			"componentType":5126,
			"count":420,
			"type":"VEC3"
		},
		{
			"bufferView":5,
			"componentType":5123,
			"count":1386,
			"type":"SCALAR"
		},
		{
			"bufferView":6,
			"componentType":5126,
			"count":1152,
			"max":[
				0.007925000041723251,
				0.06440000236034393,
				0.006850000005215406
			],
			"min":[
				0.005365000106394291,
				0.010015000589191914,
				0.0018482999876141548
			],
			"type":"VEC3"
		},
		{
			"bufferView":7,
			"componentType":5126,
			"count":1152,
			"type":"VEC3"
		},
		{
			"bufferView":8,
			"componentType":5123,
			"count":1728,
			"type":"SCALAR"
		},
		{
			"bufferView":9,
			"componentType":5126,
			"count":341,
			"max":[
				0.012000000104308128,
				0.06765872985124588,
				0.05575000122189522
			],
			"min":[
				0.003000000026077032,
				0.004450000822544098,
				0.0033499998971819878
			],
			"type":"VEC3"
		},
		{
			"bufferView":10,
			"componentType":5126,
			"count":341,
			"type":"VEC3"
		},
		{
			"bufferView":11,
			"componentType":5123,
			"count":900,
			"type":"SCALAR"
		},
		{
			"bufferView":12,
			"componentType":5126,
			"count":1544,
			"max":[
				0.014999999664723873,
				0.07320000231266022,
				0.05824696272611618
			],
			"min":[
				0,
				9.999999717180685e-10,
				0.004749999847263098
			],
			"type":"VEC3"
		},
		{
			"bufferView":13,
			"componentType":5126,
			"count":1544,
			"type":"VEC3"
		},
		{
			"bufferView":14,
			"componentType":5123,
			"count":3774,
			"type":"SCALAR"
		},
		{
			"bufferView":15,
			"componentType":5126,
			"count":49142,
			"max":[
				0.014026576653122902,
				0.06889089941978455,
				0.05834163725376129
			],
			"min":[
				0.000998630770482123,
				0.00450312253087759,
				0.057567231357097626
			],
			"type":"VEC3"
		},
		{
			"bufferView":16,
			"componentType":5126,
			"count":49142,
			"type":"VEC3"
		},
		{
			"bufferView":17,
			"componentType":5123,
			"count":114510,
			"type":"SCALAR"
		}
	],
	"bufferViews":[
		{
			"buffer":0,
			"byteLength":31584,
			"byteOffset":0,
			"target":34962
		},
		{
			"buffer":0,
			"byteLength":31584,
			"byteOffset":31584,
			"target":34962
		},
		{
			"buffer":0,
			"byteLength":13560,
			"byteOffset":63168,
			"target":34963
		},
		{
			"buffer":0,
			"byteLength":5040,
			"byteOffset":76728,
			"target":34962
		},
		{
			"buffer":0,
			"byteLength":5040,
			"byteOffset":81768,
			"target":34962
		},
		{
			"buffer":0,
			"byteLength":2772,
			"byteOffset":86808,
			"target":34963
		},
		{
			"buffer":0,
			"byteLength":13824,
			"byteOffset":89580,
			"target":34962
		},
		{
			"buffer":0,
			"byteLength":13824,
			"byteOffset":103404,
			"target":34962
		},
		{
			"buffer":0,
			"byteLength":3456,
			"byteOffset":117228,
			"target":34963
		},
		{
			"buffer":0,
			"byteLength":4092,
			"byteOffset":120684,
			"target":34962
		},
		{
			"buffer":0,
			"byteLength":4092,
			"byteOffset":124776,
			"target":34962
		},
		{
			"buffer":0,
			"byteLength":1800,
			"byteOffset":128868,
			"target":34963
		},
		{
			"buffer":0,
			"byteLength":18528,
			"byteOffset":130668,
			"target":34962
		},
		{
			"buffer":0,
			"byteLength":18528,
			"byteOffset":149196,
			"target":34962
		},
		{
			"buffer":0,
			"byteLength":7548,
			"byteOffset":167724,
			"target":34963
		},
		{
			"buffer":0,
			"byteLength":589704,
			"byteOffset":175272,
			"target":34962
		},
		{
			"buffer":0,
			"byteLength":589704,
			"byteOffset":764976,
			"target":34962
		},
		{
			"buffer":0,
			"byteLength":229020,
			"byteOffset":1354680,
			"target":34963
		}
	],
	"buffers":[
		{
			"byteLength":1583700,
			"uri":"Component.bin"
		}
	]
}
