{"asset":{"generator":"step-to-gltf","version":"2.0"},"scene":0,"scenes":[{"nodes":[0]}],"nodes":[{"mesh":0,"name":"montageplaat"}],"meshes":[{"name":"montageplaat","primitives":[{"attributes":{"POSITION":0,"NORMAL":1},"indices":2,"material":0,"mode":4}]}],"materials":[{"doubleSided":true,"pbrMetallicRoughness":{"baseColorFactor":[0.69,0.69,0.69,1.0],"metallicFactor":0}}],"accessors":[{"type":"VEC3","componentType":5126,"count":1072,"max":[0.125,0.2625,0.0],"min":[-0.125,-0.0125,-0.002],"bufferView":0},{"type":"VEC3","componentType":5126,"count":1072,"bufferView":1},{"type":"SCALAR","componentType":5125,"count":3012,"bufferView":2}],"bufferViews":[{"buffer":0,"byteOffset":0,"byteLength":12864},{"buffer":0,"byteOffset":12864,"byteLength":12864},{"buffer":0,"byteOffset":25728,"byteLength":12048}],"buffers":[{"byteLength":37776,"uri":"montageplaat.bin"}]}
