{
	"asset":{
		"generator":"Khronos glTF Blender I/O v5.2.40",
		"version":"2.0"
	},
	"scene":0,
	"scenes":[
		{
			"name":"Scene",
			"nodes":[
				0,
				1,
				2,
				3,
				4,
				5
			]
		}
	],
	"nodes":[
		{
			"name":"LEFT_SIDE",
			"scale":[
				0.0010000000474974513,
				0.0010000000474974513,
				0.0010000000474974513
			],
			"translation":[
				-0.000559029052965343,
				-0.02976101078093052,
				-0.026099998503923416
			]
		},
		{
			"name":"MOUNTING_POINT",
			"scale":[
				0.0010000000474974513,
				0.0010000000474974513,
				0.0010000000474974513
			],
			"translation":[
				-0.0011778837069869041,
				-0.06305299699306488,
				-0.008631999604403973
			]
		},
		{
			"mesh":0,
			"name":"Part 1"
		},
		{
			"mesh":1,
			"name":"Part 2"
		},
		{
			"mesh":2,
			"name":"Part 3"
		},
		{
			"name":"RIGHT_SIDE",
			"scale":[
				0.0010000000474974513,
				0.0010000000474974513,
				0.0010000000474974513
			],
			"translation":[
				-0.00045256587327457964,
				-0.029758036136627197,
				0.008700001984834671
			]
		}
	],
	"materials":[
		{
			"doubleSided":true,
			"name":"Material_0",
			"pbrMetallicRoughness":{
				"baseColorFactor":[
					0.6577109098434448,
					0.6939077973365784,
					0.7087041139602661,
					1
				],
				"metallicFactor":0
			}
		},
		{
			"doubleSided":true,
			"name":"Material_1",
			"pbrMetallicRoughness":{
				"baseColorFactor":[
					0.6899999976158142,
					0.6899999976158142,
					0.6899999976158142,
					1
				],
				"metallicFactor":0
			}
		},
		{
			"doubleSided":true,
			"name":"Material_2",
			"pbrMetallicRoughness":{
				"baseColorFactor":[
					1,
					0.27383843064308167,
					0.3162173628807068,
					1
				],
				"metallicFactor":0
			}
		},
		{
			"doubleSided":true,
			"name":"Material_3",
			"pbrMetallicRoughness":{
				"baseColorFactor":[
					0.03310476616024971,
					0.03310476616024971,
					0.31854677200317383,
					1
				],
				"metallicFactor":0
			}
		},
		{
			"doubleSided":true,
			"name":"Material_4",
			"pbrMetallicRoughness":{
				"baseColorFactor":[
					1,
					1,
					0.6038273572921753,
					1
				],
				"metallicFactor":0
			}
		},
		{
			"doubleSided":true,
			"name":"Material_5",
			"pbrMetallicRoughness":{
				"baseColorFactor":[
					0,
					0,
					0,
					1
				],
				"metallicFactor":0
			}
		},
		{
			"doubleSided":true,
			"name":"Material_6",
			"pbrMetallicRoughness":{
				"baseColorFactor":[
					0.7835373878479004,
					0.8227856159210205,
					0.8468737006187439,
					1
				],
				"metallicFactor":0
			}
		},
		{
			"doubleSided":true,
			"name":"Material_7",
			"pbrMetallicRoughness":{
				"baseColorFactor":[
					0.11953842639923096,
					0.31854677200317383,
					0.04373503103852272,
					1
				],
				"metallicFactor":0
			}
		},
		{
			"doubleSided":true,
			"name":"Material_8",
			"pbrMetallicRoughness":{
				"baseColorFactor":[
					0.6038273572921753,
					0.31854677200317383,
					0.6038273572921753,
					1
				],
				"metallicFactor":0
			}
		},
		{
			"doubleSided":true,
			"name":"Material_9",
			"pbrMetallicRoughness":{
				"baseColorFactor":[
					0.6577109098434448,
					0.6939077973365784,
					0.7087041139602661,
					1
				],
				"metallicFactor":0
			}
		},
		{
			"doubleSided":true,
			"name":"Material_10",
			"pbrMetallicRoughness":{
				"baseColorFactor":[
					0.6899999976158142,
					0.6899999976158142,
					0.6899999976158142,
					1
				],
				"metallicFactor":0
			}
		},
		{
			"doubleSided":true,
			"name":"Material_11",
			"pbrMetallicRoughness":{
				"baseColorFactor":[
					0.006941255647689104,
					0.00854038167744875,
					0.006571403704583645,
					1
				],
				"metallicFactor":0
			}
		}
	],
	"meshes":[
		{
			"name":"Part 1",
			"primitives":[
				{
					"attributes":{
						"POSITION":0,
						"NORMAL":1
					},
					"indices":2,
					"material":0
				},
				{
					"attributes":{
						"POSITION":3,
						"NORMAL":4
					},
					"indices":5,
					"material":1
				},
				{
					"attributes":{
						"POSITION":6,
						"NORMAL":7
					},
					"indices":8,
					"material":2
				},
				{
					"attributes":{
						"POSITION":9,
						"NORMAL":10
					},
					"indices":11,
					"material":3
				},
				{
					"attributes":{
						"POSITION":12,
						"NORMAL":13
					},
					"indices":14,
					"material":4
				},
				{
					"attributes":{
						"POSITION":15,
						"NORMAL":16
					},
					"indices":17,
					"material":5
				},
				{
					"attributes":{
						"POSITION":18,
						"NORMAL":19
					},
					"indices":20,
					"material":6
				},
				{
					"attributes":{
						"POSITION":21,
						"NORMAL":22
					},
					"indices":23,
					"material":7
				},
				{
					"attributes":{
						"POSITION":24,
						"NORMAL":25
					},
					"indices":26,
					"material":8
				}
			]
		},
		{
			"name":"Part 2",
			"primitives":[
				{
					"attributes":{
						"POSITION":27,
						"NORMAL":28
					},
					"indices":29,
					"material":9
				},
				{
					"attributes":{
						"POSITION":30,
						"NORMAL":31
					},
					"indices":32,
					"material":10
				}
			]
		},
		{
			"name":"Part 3",
			"primitives":[
				{
					"attributes":{
						"POSITION":33,
						"NORMAL":34
					},
					"indices":35,
					"material":11
				}
			]
		}
	],
	"accessors":[
		{
			"bufferView":0,
			"componentType":5126,
			"count":253116,
			"max":[
				0.04399999976158142,
				0.006500000134110451,
				0.008700001053512096
			],
			"min":[
				-0.04399999976158142,
				-0.0632999986410141,
				-0.026100000366568565
			],
			"type":"VEC3"
		},
		{
			"bufferView":1,
			"componentType":5126,
			"count":253116,
			"type":"VEC3"
		},
		{
			"bufferView":2,
			"componentType":5125,
			"count":816177,
			"type":"SCALAR"
		},
		{
			"bufferView":3,
			"componentType":5126,
			"count":123275,
			"max":[
				0.042000144720077515,
				0.008748602122068405,
				0.008500000461935997
			],
			"min":[
				-0.0421999990940094,
				-0.06261836737394333,
				-0.02589399181306362
			],
			"type":"VEC3"
		},
		{
			"bufferView":4,
			"componentType":5126,
			"count":123275,
			"type":"VEC3"
		},
		{
			"bufferView":5,
			"componentType":5125,
			"count":403764,
			"type":"SCALAR"
		},
		{
			"bufferView":6,
			"componentType":5126,
			"count":14,
			"max":[
				-0.01319538988173008,
				-0.04403295740485191,
				-0.001019999966956675
			],
			"min":[
				-0.01338236778974533,
				-0.04723183810710907,
				-0.002899999963119626
			],
			"type":"VEC3"
		},
		{
			"bufferView":7,
			"componentType":5126,
			"count":14,
			"type":"VEC3"
		},
		{
			"bufferView":8,
			"componentType":5123,
			"count":24,
			"type":"SCALAR"
		},
		{
			"bufferView":9,
			"componentType":5126,
			"count":4,
			"max":[
				-0.01319538988173008,
				-0.0438113659620285,
				9.999999747378752e-05
			],
			"min":[
				-0.013672913424670696,
				-0.043914612382650375,
				7.999999797903001e-05
			],
			"type":"VEC3"
		},
		{
			"bufferView":10,
			"componentType":5126,
			"count":4,
			"type":"VEC3"
		},
		{
			"bufferView":11,
			"componentType":5123,
			"count":6,
			"type":"SCALAR"
		},
		{
			"bufferView":12,
			"componentType":5126,
			"count":24583,
			"max":[
				0.04044995829463005,
				-0.020441198721528053,
				0.004495409317314625
			],
			"min":[
				-0.040449999272823334,
				-0.049300000071525574,
				-0.02334977127611637
			],
			"type":"VEC3"
		},
		{
			"bufferView":13,
			"componentType":5126,
			"count":24583,
			"type":"VEC3"
		},
		{
			"bufferView":14,
			"componentType":5123,
			"count":89538,
			"type":"SCALAR"
		},
		{
			"bufferView":15,
			"componentType":5126,
			"count":14243,
			"max":[
				0.04245099052786827,
				0.009180429391562939,
				0.0066999997943639755
			],
			"min":[
				-0.04259999841451645,
				-0.0628499984741211,
				-0.02410000003874302
			],
			"type":"VEC3"
		},
		{
			"bufferView":16,
			"componentType":5126,
			"count":14243,
			"type":"VEC3"
		},
		{
			"bufferView":17,
			"componentType":5123,
			"count":38694,
			"type":"SCALAR"
		},
		{
			"bufferView":18,
			"componentType":5126,
			"count":3100,
			"max":[
				-0.003800000064074993,
				-0.04690000042319298,
				0.008500000461935997
			],
			"min":[
				-0.00860000029206276,
				-0.05169999971985817,
				-0.02500000037252903
			],
			"type":"VEC3"
		},
		{
			"bufferView":19,
			"componentType":5126,
			"count":3100,
			"type":"VEC3"
		},
		{
			"bufferView":20,
			"componentType":5123,
			"count":13986,
			"type":"SCALAR"
		},
		{
			"bufferView":21,
			"componentType":5126,
			"count":8,
			"max":[
				-0.009196787141263485,
				-0.0003967916127294302,
				9.69273824011907e-05
			],
			"min":[
				-0.012795529328286648,
				-0.0006783670396544039,
				-0.022695109248161316
			],
			"type":"VEC3"
		},
		{
			"bufferView":22,
			"componentType":5126,
			"count":8,
			"type":"VEC3"
		},
		{
			"bufferView":23,
			"componentType":5123,
			"count":12,
			"type":"SCALAR"
		},
		{
			"bufferView":24,
			"componentType":5126,
			"count":40,
			"max":[
				-0.007277334108948708,
				-0.01620480604469776,
				-0.023894689977169037
			],
			"min":[
				-0.00804823823273182,
				-0.016522573307156563,
				-0.024000000208616257
			],
			"type":"VEC3"
		},
		{
			"bufferView":25,
			"componentType":5126,
			"count":40,
			"type":"VEC3"
		},
		{
			"bufferView":26,
			"componentType":5123,
			"count":114,
			"type":"SCALAR"
		},
		{
			"bufferView":27,
			"componentType":5126,
			"count":49,
			"max":[
				0.026790639385581017,
				-0.009050434455275536,
				0.007199999876320362
			],
			"min":[
				-0.021994808688759804,
				-0.057228345423936844,
				-0.02459999918937683
			],
			"type":"VEC3"
		},
		{
			"bufferView":28,
			"componentType":5126,
			"count":49,
			"type":"VEC3"
		},
		{
			"bufferView":29,
			"componentType":5123,
			"count":78,
			"type":"SCALAR"
		},
		{
			"bufferView":30,
			"componentType":5126,
			"count":12,
			"max":[
				0.026790639385581017,
				-0.01804203726351261,
				0.007199999876320362
			],
			"min":[
				0.02198844961822033,
				-0.057228345423936844,
				-0.02459999918937683
			],
			"type":"VEC3"
		},
		{
			"bufferView":31,
			"componentType":5126,
			"count":12,
			"type":"VEC3"
		},
		{
			"bufferView":32,
			"componentType":5123,
			"count":18,
			"type":"SCALAR"
		},
		{
			"bufferView":33,
			"componentType":5126,
			"count":8327,
			"max":[
				-0.0018519015284255147,
				0.011403366923332214,
				0.008100000210106373
			],
			"min":[
				-0.010149636305868626,
				0.0033548164647072554,
				-0.025800000876188278
			],
			"type":"VEC3"
		},
		{
			"bufferView":34,
			"componentType":5126,
			"count":8327,
			"type":"VEC3"
		},
		{
			"bufferView":35,
			"componentType":5123,
			"count":32784,
			"type":"SCALAR"
		}
	],
	"bufferViews":[
		{
			"buffer":0,
			"byteLength":3037392,
			"byteOffset":0,
			"target":34962
		},
		{
			"buffer":0,
			"byteLength":3037392,
			"byteOffset":3037392,
			"target":34962
		},
		{
			"buffer":0,
			"byteLength":3264708,
			"byteOffset":6074784,
			"target":34963
		},
		{
			"buffer":0,
			"byteLength":1479300,
			"byteOffset":9339492,
			"target":34962
		},
		{
			"buffer":0,
			"byteLength":1479300,
			"byteOffset":10818792,
			"target":34962
		},
		{
			"buffer":0,
			"byteLength":1615056,
			"byteOffset":12298092,
			"target":34963
		},
		{
			"buffer":0,
			"byteLength":168,
			"byteOffset":13913148,
			"target":34962
		},
		{
			"buffer":0,
			"byteLength":168,
			"byteOffset":13913316,
			"target":34962
		},
		{
			"buffer":0,
			"byteLength":48,
			"byteOffset":13913484,
			"target":34963
		},
		{
			"buffer":0,
			"byteLength":48,
			"byteOffset":13913532,
			"target":34962
		},
		{
			"buffer":0,
			"byteLength":48,
			"byteOffset":13913580,
			"target":34962
		},
		{
			"buffer":0,
			"byteLength":12,
			"byteOffset":13913628,
			"target":34963
		},
		{
			"buffer":0,
			"byteLength":294996,
			"byteOffset":13913640,
			"target":34962
		},
		{
			"buffer":0,
			"byteLength":294996,
			"byteOffset":14208636,
			"target":34962
		},
		{
			"buffer":0,
			"byteLength":179076,
			"byteOffset":14503632,
			"target":34963
		},
		{
			"buffer":0,
			"byteLength":170916,
			"byteOffset":14682708,
			"target":34962
		},
		{
			"buffer":0,
			"byteLength":170916,
			"byteOffset":14853624,
			"target":34962
		},
		{
			"buffer":0,
			"byteLength":77388,
			"byteOffset":15024540,
			"target":34963
		},
		{
			"buffer":0,
			"byteLength":37200,
			"byteOffset":15101928,
			"target":34962
		},
		{
			"buffer":0,
			"byteLength":37200,
			"byteOffset":15139128,
			"target":34962
		},
		{
			"buffer":0,
			"byteLength":27972,
			"byteOffset":15176328,
			"target":34963
		},
		{
			"buffer":0,
			"byteLength":96,
			"byteOffset":15204300,
			"target":34962
		},
		{
			"buffer":0,
			"byteLength":96,
			"byteOffset":15204396,
			"target":34962
		},
		{
			"buffer":0,
			"byteLength":24,
			"byteOffset":15204492,
			"target":34963
		},
		{
			"buffer":0,
			"byteLength":480,
			"byteOffset":15204516,
			"target":34962
		},
		{
			"buffer":0,
			"byteLength":480,
			"byteOffset":15204996,
			"target":34962
		},
		{
			"buffer":0,
			"byteLength":228,
			"byteOffset":15205476,
			"target":34963
		},
		{
			"buffer":0,
			"byteLength":588,
			"byteOffset":15205704,
			"target":34962
		},
		{
			"buffer":0,
			"byteLength":588,
			"byteOffset":15206292,
			"target":34962
		},
		{
			"buffer":0,
			"byteLength":156,
			"byteOffset":15206880,
			"target":34963
		},
		{
			"buffer":0,
			"byteLength":144,
			"byteOffset":15207036,
			"target":34962
		},
		{
			"buffer":0,
			"byteLength":144,
			"byteOffset":15207180,
			"target":34962
		},
		{
			"buffer":0,
			"byteLength":36,
			"byteOffset":15207324,
			"target":34963
		},
		{
			"buffer":0,
			"byteLength":99924,
			"byteOffset":15207360,
			"target":34962
		},
		{
			"buffer":0,
			"byteLength":99924,
			"byteOffset":15307284,
			"target":34962
		},
		{
			"buffer":0,
			"byteLength":65568,
			"byteOffset":15407208,
			"target":34963
		}
	],
	"buffers":[
		{
			"byteLength":15472776,
			"uri":"component.bin"
		}
	]
}
