{
	"asset":{
		"generator":"Khronos glTF Blender I/O v5.2.40",
		"version":"2.0"
	},
	"scene":0,
	"scenes":[
		{
			"name":"Scene",
			"nodes":[
				0,
				1,
				2,
				3
			]
		}
	],
	"nodes":[
		{
			"name":"LEFT_SIDE",
			"scale":[
				0.0010000000474974513,
				0.0010000000474974513,
				0.0010000000474974513
			],
			"translation":[
				0,
				0.06419327110052109,
				0.04799684137105942
			]
		},
		{
			"name":"MOUNTING_POINT",
			"scale":[
				0.0010000000474974513,
				0.0010000000474974513,
				0.0010000000474974513
			],
			"translation":[
				0.03400000184774399,
				0.06424999982118607,
				-0.0034999996423721313
			]
		},
		{
			"mesh":0,
			"name":"Part 1"
		},
		{
			"name":"RIGHT_SIDE",
			"scale":[
				0.0010000000474974513,
				0.0010000000474974513,
				0.0010000000474974513
			],
			"translation":[
				0.06800001859664917,
				0.06836942583322525,
				0.038641538470983505
			]
		}
	],
	"materials":[
		{
			"doubleSided":true,
			"name":"Material_0",
			"pbrMetallicRoughness":{
				"baseColorFactor":[
					0.05612849071621895,
					0.045186202973127365,
					0.05448027700185776,
					1
				],
				"metallicFactor":0
			}
		},
		{
			"doubleSided":true,
			"name":"Material_1",
			"pbrMetallicRoughness":{
				"baseColorFactor":[
					0.5271151065826416,
					0.5271151065826416,
					0.5271151065826416,
					1
				],
				"metallicFactor":0
			}
		},
		{
			"doubleSided":true,
			"name":"Material_2",
			"pbrMetallicRoughness":{
				"baseColorFactor":[
					0.3762621283531189,
					0.3762621283531189,
					0.3762621283531189,
					1
				],
				"metallicFactor":0
			}
		},
		{
			"doubleSided":true,
			"name":"Material_3",
			"pbrMetallicRoughness":{
				"baseColorFactor":[
					0.30946892499923706,
					0.16826939582824707,
					0.006512090563774109,
					1
				],
				"metallicFactor":0
			}
		},
		{
			"doubleSided":true,
			"name":"Material_4",
			"pbrMetallicRoughness":{
				"baseColorFactor":[
					0.366252601146698,
					0.008568125776946545,
					0.01032982300966978,
					1
				],
				"metallicFactor":0
			}
		},
		{
			"doubleSided":true,
			"name":"Material_5",
			"pbrMetallicRoughness":{
				"metallicFactor":0
			}
		},
		{
			"doubleSided":true,
			"name":"Material_6",
			"pbrMetallicRoughness":{
				"baseColorFactor":[
					0.715693473815918,
					0.15896083414554596,
					0.03189603239297867,
					1
				],
				"metallicFactor":0
			}
		},
		{
			"doubleSided":true,
			"name":"Material_7",
			"pbrMetallicRoughness":{
				"baseColorFactor":[
					0.637596845626831,
					0.4969329833984375,
					0.6172065734863281,
					1
				],
				"metallicFactor":0
			}
		}
	],
	"meshes":[
		{
			"name":"Part 1",
			"primitives":[
				{
					"attributes":{
						"POSITION":0,
						"NORMAL":1
					},
					"indices":2,
					"material":0
				},
				{
					"attributes":{
						"POSITION":3,
						"NORMAL":4
					},
					"indices":5,
					"material":1
				},
				{
					"attributes":{
						"POSITION":6,
						"NORMAL":7
					},
					"indices":8,
					"material":2
				},
				{
					"attributes":{
						"POSITION":9,
						"NORMAL":10
					},
					"indices":11,
					"material":3
				},
				{
					"attributes":{
						"POSITION":12,
						"NORMAL":13
					},
					"indices":14,
					"material":4
				},
				{
					"attributes":{
						"POSITION":15,
						"NORMAL":16
					},
					"indices":17,
					"material":5
				},
				{
					"attributes":{
						"POSITION":18,
						"NORMAL":19
					},
					"indices":20,
					"material":6
				},
				{
					"attributes":{
						"POSITION":21,
						"NORMAL":22
					},
					"indices":23,
					"material":7
				}
			]
		}
	],
	"accessors":[
		{
			"bufferView":0,
			"componentType":5126,
			"count":48932,
			"max":[
				0.06800000369548798,
				0.13120000064373016,
				0.13519999384880066
			],
			"min":[
				-3.397282391825508e-17,
				0.0012000000569969416,
				0.010499999858438969
			],
			"type":"VEC3"
		},
		{
			"bufferView":1,
			"componentType":5126,
			"count":48932,
			"type":"VEC3"
		},
		{
			"bufferView":2,
			"componentType":5123,
			"count":121002,
			"type":"SCALAR"
		},
		{
			"bufferView":3,
			"componentType":5126,
			"count":1456,
			"max":[
				0.057500001043081284,
				0.12251999974250793,
				0.13519999384880066
			],
			"min":[
				0.010499999858438969,
				-1.5801249084157488e-17,
				-5.684342156072553e-17
			],
			"type":"VEC3"
		},
		{
			"bufferView":4,
			"componentType":5126,
			"count":1456,
			"type":"VEC3"
		},
		{
			"bufferView":5,
			"componentType":5123,
			"count":2916,
			"type":"SCALAR"
		},
		{
			"bufferView":6,
			"componentType":5126,
			"count":48,
			"max":[
				0.0677499994635582,
				0.12520000338554382,
				0.1197500005364418
			],
			"min":[
				0.06499999761581421,
				0.1151999980211258,
				0.11569999903440475
			],
			"type":"VEC3"
		},
		{
			"bufferView":7,
			"componentType":5126,
			"count":48,
			"type":"VEC3"
		},
		{
			"bufferView":8,
			"componentType":5123,
			"count":72,
			"type":"SCALAR"
		},
		{
			"bufferView":9,
			"componentType":5126,
			"count":344,
			"max":[
				0.05425490066409111,
				0.11939989030361176,
				0.11925999820232391
			],
			"min":[
				0.049754898995161057,
				0.1148998886346817,
				0.11866000294685364
			],
			"type":"VEC3"
		},
		{
			"bufferView":10,
			"componentType":5126,
			"count":344,
			"type":"VEC3"
		},
		{
			"bufferView":11,
			"componentType":5123,
			"count":744,
			"type":"SCALAR"
		},
		{
			"bufferView":12,
			"componentType":5126,
			"count":72,
			"max":[
				0.055004898458719254,
				0.12670999765396118,
				0.11710000038146973
			],
			"min":[
				0.04900490120053291,
				0.12171000242233276,
				0.11599999666213989
			],
			"type":"VEC3"
		},
		{
			"bufferView":13,
			"componentType":5126,
			"count":72,
			"type":"VEC3"
		},
		{
			"bufferView":14,
			"componentType":5123,
			"count":132,
			"type":"SCALAR"
		},
		{
			"bufferView":15,
			"componentType":5126,
			"count":48,
			"max":[
				0.051979999989271164,
				0.12625999748706818,
				0.11810000240802765
			],
			"min":[
				0.05017999932169914,
				0.12216000258922577,
				0.1160999983549118
			],
			"type":"VEC3"
		},
		{
			"bufferView":16,
			"componentType":5126,
			"count":48,
			"type":"VEC3"
		},
		{
			"bufferView":17,
			"componentType":5123,
			"count":72,
			"type":"SCALAR"
		},
		{
			"bufferView":18,
			"componentType":5126,
			"count":1316,
			"max":[
				0.06800000369548798,
				0.11170349270105362,
				0.13519999384880066
			],
			"min":[
				-8.365475230915169e-18,
				0.03530000150203705,
				0.13510000705718994
			],
			"type":"VEC3"
		},
		{
			"bufferView":19,
			"componentType":5126,
			"count":1316,
			"type":"VEC3"
		},
		{
			"bufferView":20,
			"componentType":5123,
			"count":2736,
			"type":"SCALAR"
		},
		{
			"bufferView":21,
			"componentType":5126,
			"count":1268,
			"max":[
				0.03384000062942505,
				0.12570500373840332,
				0.13539999723434448
			],
			"min":[
				0.02353999949991703,
				0.1225849986076355,
				0.13279999792575836
			],
			"type":"VEC3"
		},
		{
			"bufferView":22,
			"componentType":5126,
			"count":1268,
			"type":"VEC3"
		},
		{
			"bufferView":23,
			"componentType":5123,
			"count":2508,
			"type":"SCALAR"
		}
	],
	"bufferViews":[
		{
			"buffer":0,
			"byteLength":587184,
			"byteOffset":0,
			"target":34962
		},
		{
			"buffer":0,
			"byteLength":587184,
			"byteOffset":587184,
			"target":34962
		},
		{
			"buffer":0,
			"byteLength":242004,
			"byteOffset":1174368,
			"target":34963
		},
		{
			"buffer":0,
			"byteLength":17472,
			"byteOffset":1416372,
			"target":34962
		},
		{
			"buffer":0,
			"byteLength":17472,
			"byteOffset":1433844,
			"target":34962
		},
		{
			"buffer":0,
			"byteLength":5832,
			"byteOffset":1451316,
			"target":34963
		},
		{
			"buffer":0,
			"byteLength":576,
			"byteOffset":1457148,
			"target":34962
		},
		{
			"buffer":0,
			"byteLength":576,
			"byteOffset":1457724,
			"target":34962
		},
		{
			"buffer":0,
			"byteLength":144,
			"byteOffset":1458300,
			"target":34963
		},
		{
			"buffer":0,
			"byteLength":4128,
			"byteOffset":1458444,
			"target":34962
		},
		{
			"buffer":0,
			"byteLength":4128,
			"byteOffset":1462572,
			"target":34962
		},
		{
			"buffer":0,
			"byteLength":1488,
			"byteOffset":1466700,
			"target":34963
		},
		{
			"buffer":0,
			"byteLength":864,
			"byteOffset":1468188,
			"target":34962
		},
		{
			"buffer":0,
			"byteLength":864,
			"byteOffset":1469052,
			"target":34962
		},
		{
			"buffer":0,
			"byteLength":264,
			"byteOffset":1469916,
			"target":34963
		},
		{
			"buffer":0,
			"byteLength":576,
			"byteOffset":1470180,
			"target":34962
		},
		{
			"buffer":0,
			"byteLength":576,
			"byteOffset":1470756,
			"target":34962
		},
		{
			"buffer":0,
			"byteLength":144,
			"byteOffset":1471332,
			"target":34963
		},
		{
			"buffer":0,
			"byteLength":15792,
			"byteOffset":1471476,
			"target":34962
		},
		{
			"buffer":0,
			"byteLength":15792,
			"byteOffset":1487268,
			"target":34962
		},
		{
			"buffer":0,
			"byteLength":5472,
			"byteOffset":1503060,
			"target":34963
		},
		{
			"buffer":0,
			"byteLength":15216,
			"byteOffset":1508532,
			"target":34962
		},
		{
			"buffer":0,
			"byteLength":15216,
			"byteOffset":1523748,
			"target":34962
		},
		{
			"buffer":0,
			"byteLength":5016,
			"byteOffset":1538964,
			"target":34963
		}
	],
	"buffers":[
		{
			"byteLength":1543980,
			"uri":"component.bin"
		}
	]
}
