{"asset":{"generator":"step-to-gltf","version":"2.0"},"scene":0,"scenes":[{"nodes":[0]}],"nodes":[{"mesh":0,"name":"kast_montageplaat"}],"meshes":[{"name":"kast_montageplaat","primitives":[{"attributes":{"POSITION":0,"NORMAL":1},"indices":2,"material":0,"mode":4}]}],"materials":[{"doubleSided":true,"pbrMetallicRoughness":{"baseColorFactor":[0.69,0.69,0.69,1.0],"metallicFactor":0}}],"accessors":[{"type":"VEC3","componentType":5126,"count":1512,"max":[0.275,0.7225,0.0],"min":[-0.275,-0.0125,-0.0025],"bufferView":0},{"type":"VEC3","componentType":5126,"count":1512,"bufferView":1},{"type":"SCALAR","componentType":5125,"count":4308,"bufferView":2}],"bufferViews":[{"buffer":0,"byteOffset":0,"byteLength":18144},{"buffer":0,"byteOffset":18144,"byteLength":18144},{"buffer":0,"byteOffset":36288,"byteLength":17232}],"buffers":[{"byteLength":53520,"uri":"montageplaat.bin"}]}
