{
	"asset":{
		"generator":"Khronos glTF Blender I/O v5.2.40",
		"version":"2.0"
	},
	"scene":0,
	"scenes":[
		{
			"name":"Scene",
			"nodes":[
				0,
				1,
				2,
				3,
				4
			]
		}
	],
	"nodes":[
		{
			"name":"LEFT_SIDE",
			"scale":[
				0.0010000000474974513,
				0.0010000000474974513,
				0.0010000000474974513
			],
			"translation":[
				9.089037484955043e-05,
				0.03388194739818573,
				0.030933862552046776
			]
		},
		{
			"name":"MOUNTING_POINT",
			"scale":[
				0.0010000000474974513,
				0.0010000000474974513,
				0.0010000000474974513
			],
			"translation":[
				0.007543524727225304,
				0.04120705649256706,
				0
			]
		},
		{
			"mesh":0,
			"name":"Part 1"
		},
		{
			"mesh":1,
			"name":"Part 2"
		},
		{
			"name":"RIGHT_SIDE",
			"scale":[
				0.0010000000474974513,
				0.0010000000474974513,
				0.0010000000474974513
			],
			"translation":[
				0.015090890228748322,
				0.0317804291844368,
				0.03495119512081146
			]
		}
	],
	"materials":[
		{
			"doubleSided":true,
			"name":"Material_0.005",
			"pbrMetallicRoughness":{
				"baseColorFactor":[
					0.004776953253895044,
					0.005181516520678997,
					0.005181516520678997,
					1
				],
				"metallicFactor":0
			}
		},
		{
			"doubleSided":true,
			"name":"Material_1.005",
			"pbrMetallicRoughness":{
				"baseColorFactor":[
					0.9473065137863159,
					0.6938717365264893,
					0,
					1
				],
				"metallicFactor":0
			}
		},
		{
			"doubleSided":true,
			"name":"Material_2.005",
			"pbrMetallicRoughness":{
				"baseColorFactor":[
					0,
					0.33716362714767456,
					0.07421357184648514,
					1
				],
				"metallicFactor":0
			}
		},
		{
			"doubleSided":true,
			"name":"Material_3.005",
			"pbrMetallicRoughness":{
				"baseColorFactor":[
					0.8227857351303101,
					0.8307698965072632,
					0.8069522380828857,
					1
				],
				"metallicFactor":0
			}
		},
		{
			"doubleSided":true,
			"name":"Material_4.005",
			"pbrMetallicRoughness":{
				"baseColorFactor":[
					0.09989872574806213,
					0.12743768095970154,
					0.16202937066555023,
					1
				],
				"metallicFactor":0
			}
		},
		{
			"doubleSided":true,
			"name":"Material_5.005",
			"pbrMetallicRoughness":{
				"baseColorFactor":[
					0.577580451965332,
					0.5972017645835876,
					0.5520114302635193,
					1
				],
				"metallicFactor":0
			}
		},
		{
			"doubleSided":true,
			"name":"Material_6.004",
			"pbrMetallicRoughness":{
				"baseColorFactor":[
					0.6899999976158142,
					0.6899999976158142,
					0.6899999976158142,
					1
				],
				"metallicFactor":0
			}
		},
		{
			"doubleSided":true,
			"name":"Material_7",
			"pbrMetallicRoughness":{
				"baseColorFactor":[
					0.8227857351303101,
					0.8307698965072632,
					0.8069522380828857,
					1
				],
				"metallicFactor":0
			}
		}
	],
	"meshes":[
		{
			"name":"Part 1.005",
			"primitives":[
				{
					"attributes":{
						"POSITION":0,
						"NORMAL":1
					},
					"indices":2,
					"material":0
				},
				{
					"attributes":{
						"POSITION":3,
						"NORMAL":4
					},
					"indices":5,
					"material":1
				},
				{
					"attributes":{
						"POSITION":6,
						"NORMAL":7
					},
					"indices":8,
					"material":2
				},
				{
					"attributes":{
						"POSITION":9,
						"NORMAL":10
					},
					"indices":11,
					"material":3
				},
				{
					"attributes":{
						"POSITION":12,
						"NORMAL":13
					},
					"indices":14,
					"material":4
				},
				{
					"attributes":{
						"POSITION":15,
						"NORMAL":16
					},
					"indices":17,
					"material":5
				}
			]
		},
		{
			"name":"Part 2.005",
			"primitives":[
				{
					"attributes":{
						"POSITION":18,
						"NORMAL":19
					},
					"indices":20,
					"material":6
				},
				{
					"attributes":{
						"POSITION":21,
						"NORMAL":22
					},
					"indices":23,
					"material":7
				}
			]
		}
	],
	"accessors":[
		{
			"bufferView":0,
			"componentType":5126,
			"count":458,
			"max":[
				0.010250000283122063,
				0.06643297523260117,
				0.02044999971985817
			],
			"min":[
				0.003800000064074993,
				0.008622976019978523,
				0.0008999999845400453
			],
			"type":"VEC3"
		},
		{
			"bufferView":1,
			"componentType":5126,
			"count":458,
			"type":"VEC3"
		},
		{
			"bufferView":2,
			"componentType":5123,
			"count":1476,
			"type":"SCALAR"
		},
		{
			"bufferView":3,
			"componentType":5126,
			"count":3685,
			"max":[
				0.014999999664723873,
				0.07399734109640121,
				0.05620000138878822
			],
			"min":[
				0,
				2.4328306835741387e-07,
				0.004400019533932209
			],
			"type":"VEC3"
		},
		{
			"bufferView":4,
			"componentType":5126,
			"count":3685,
			"type":"VEC3"
		},
		{
			"bufferView":5,
			"componentType":5123,
			"count":10185,
			"type":"SCALAR"
		},
		{
			"bufferView":6,
			"componentType":5126,
			"count":268,
			"max":[
				0.004000000189989805,
				0.06806830316781998,
				0.055370379239320755
			],
			"min":[
				0.003000000026077032,
				0.0048565673641860485,
				0.0031000194139778614
			],
			"type":"VEC3"
		},
		{
			"bufferView":7,
			"componentType":5126,
			"count":268,
			"type":"VEC3"
		},
		{
			"bufferView":8,
			"componentType":5123,
			"count":708,
			"type":"SCALAR"
		},
		{
			"bufferView":9,
			"componentType":5126,
			"count":1040,
			"max":[
				0.01489999983459711,
				0.06380957365036011,
				0.05790956690907478
			],
			"min":[
				0.0009500000160187483,
				0.008664460852742195,
				0
			],
			"type":"VEC3"
		},
		{
			"bufferView":10,
			"componentType":5126,
			"count":1040,
			"type":"VEC3"
		},
		{
			"bufferView":11,
			"componentType":5123,
			"count":2163,
			"type":"SCALAR"
		},
		{
			"bufferView":12,
			"componentType":5126,
			"count":422,
			"max":[
				0.014999999664723873,
				0.07006335258483887,
				0.05789697915315628
			],
			"min":[
				0,
				0.0039527020417153835,
				0.004550000187009573
			],
			"type":"VEC3"
		},
		{
			"bufferView":13,
			"componentType":5126,
			"count":422,
			"type":"VEC3"
		},
		{
			"bufferView":14,
			"componentType":5123,
			"count":1104,
			"type":"SCALAR"
		},
		{
			"bufferView":15,
			"componentType":5126,
			"count":1160,
			"max":[
				0.007925000041723251,
				0.06480797380208969,
				0.006649999879300594
			],
			"min":[
				0.0053400001488626,
				0.010432975366711617,
				0.00215000007301569
			],
			"type":"VEC3"
		},
		{
			"bufferView":16,
			"componentType":5126,
			"count":1160,
			"type":"VEC3"
		},
		{
			"bufferView":17,
			"componentType":5123,
			"count":1740,
			"type":"SCALAR"
		},
		{
			"bufferView":18,
			"componentType":5126,
			"count":54064,
			"max":[
				0.014002041891217232,
				0.06911540031433105,
				0.05791166424751282
			],
			"min":[
				0.0009950000094249845,
				0.004986758343875408,
				0.057212453335523605
			],
			"type":"VEC3"
		},
		{
			"bufferView":19,
			"componentType":5126,
			"count":54064,
			"type":"VEC3"
		},
		{
			"bufferView":20,
			"componentType":5123,
			"count":112248,
			"type":"SCALAR"
		},
		{
			"bufferView":21,
			"componentType":5126,
			"count":42,
			"max":[
				0.014000000432133675,
				0.025438271462917328,
				0.05791078507900238
			],
			"min":[
				0.009499999694526196,
				0.020938271656632423,
				0.05772784352302551
			],
			"type":"VEC3"
		},
		{
			"bufferView":22,
			"componentType":5126,
			"count":42,
			"type":"VEC3"
		},
		{
			"bufferView":23,
			"componentType":5123,
			"count":84,
			"type":"SCALAR"
		}
	],
	"bufferViews":[
		{
			"buffer":0,
			"byteLength":5496,
			"byteOffset":0,
			"target":34962
		},
		{
			"buffer":0,
			"byteLength":5496,
			"byteOffset":5496,
			"target":34962
		},
		{
			"buffer":0,
			"byteLength":2952,
			"byteOffset":10992,
			"target":34963
		},
		{
			"buffer":0,
			"byteLength":44220,
			"byteOffset":13944,
			"target":34962
		},
		{
			"buffer":0,
			"byteLength":44220,
			"byteOffset":58164,
			"target":34962
		},
		{
			"buffer":0,
			"byteLength":20370,
			"byteOffset":102384,
			"target":34963
		},
		{
			"buffer":0,
			"byteLength":3216,
			"byteOffset":122756,
			"target":34962
		},
		{
			"buffer":0,
			"byteLength":3216,
			"byteOffset":125972,
			"target":34962
		},
		{
			"buffer":0,
			"byteLength":1416,
			"byteOffset":129188,
			"target":34963
		},
		{
			"buffer":0,
			"byteLength":12480,
			"byteOffset":130604,
			"target":34962
		},
		{
			"buffer":0,
			"byteLength":12480,
			"byteOffset":143084,
			"target":34962
		},
		{
			"buffer":0,
			"byteLength":4326,
			"byteOffset":155564,
			"target":34963
		},
		{
			"buffer":0,
			"byteLength":5064,
			"byteOffset":159892,
			"target":34962
		},
		{
			"buffer":0,
			"byteLength":5064,
			"byteOffset":164956,
			"target":34962
		},
		{
			"buffer":0,
			"byteLength":2208,
			"byteOffset":170020,
			"target":34963
		},
		{
			"buffer":0,
			"byteLength":13920,
			"byteOffset":172228,
			"target":34962
		},
		{
			"buffer":0,
			"byteLength":13920,
			"byteOffset":186148,
			"target":34962
		},
		{
			"buffer":0,
			"byteLength":3480,
			"byteOffset":200068,
			"target":34963
		},
		{
			"buffer":0,
			"byteLength":648768,
			"byteOffset":203548,
			"target":34962
		},
		{
			"buffer":0,
			"byteLength":648768,
			"byteOffset":852316,
			"target":34962
		},
		{
			"buffer":0,
			"byteLength":224496,
			"byteOffset":1501084,
			"target":34963
		},
		{
			"buffer":0,
			"byteLength":504,
			"byteOffset":1725580,
			"target":34962
		},
		{
			"buffer":0,
			"byteLength":504,
			"byteOffset":1726084,
			"target":34962
		},
		{
			"buffer":0,
			"byteLength":168,
			"byteOffset":1726588,
			"target":34963
		}
	],
	"buffers":[
		{
			"byteLength":1726756,
			"uri":"Component.bin"
		}
	]
}
