{"asset":{"generator":"step-to-gltf","version":"2.0"},"scene":0,"scenes":[{"nodes":[0]}],"nodes":[{"mesh":0,"name":"montageplaat"}],"meshes":[{"name":"montageplaat","primitives":[{"attributes":{"POSITION":0,"NORMAL":1},"indices":2,"material":0,"mode":4}]}],"materials":[{"doubleSided":true,"pbrMetallicRoughness":{"baseColorFactor":[0.69,0.69,0.69,1.0],"metallicFactor":0}}],"accessors":[{"type":"VEC3","componentType":5126,"count":1816,"max":[0.47250000000000003,0.9625,0.0],"min":[-0.47250000000000003,-0.0125,-0.015],"bufferView":0},{"type":"VEC3","componentType":5126,"count":1816,"bufferView":1},{"type":"SCALAR","componentType":5125,"count":5148,"bufferView":2}],"bufferViews":[{"buffer":0,"byteOffset":0,"byteLength":21792},{"buffer":0,"byteOffset":21792,"byteLength":21792},{"buffer":0,"byteOffset":43584,"byteLength":20592}],"buffers":[{"byteLength":64176,"uri":"montageplaat.bin"}]}
