{
  "asset": {
    "generator": "gltfeditor.com",
    "version": "2.0"
  },
  "buffers": [
    {
      "uri": "signaallamp_groen.bin",
      "byteLength": 2269776
    }
  ],
  "bufferViews": [
    {
      "buffer": 0,
      "byteOffset": 0,
      "byteLength": 119244,
      "byteStride": 12,
      "target": 34962
    },
    {
      "buffer": 0,
      "byteOffset": 119244,
      "byteLength": 119244,
      "byteStride": 12,
      "target": 34962
    },
    {
      "buffer": 0,
      "byteOffset": 238488,
      "byteLength": 172032,
      "target": 34963
    },
    {
      "buffer": 0,
      "byteOffset": 410520,
      "byteLength": 27096,
      "byteStride": 12,
      "target": 34962
    },
    {
      "buffer": 0,
      "byteOffset": 437616,
      "byteLength": 27096,
      "byteStride": 12,
      "target": 34962
    },
    {
      "buffer": 0,
      "byteOffset": 464712,
      "byteLength": 25752,
      "target": 34963
    },
    {
      "buffer": 0,
      "byteOffset": 490464,
      "byteLength": 271776,
      "byteStride": 12,
      "target": 34962
    },
    {
      "buffer": 0,
      "byteOffset": 762240,
      "byteLength": 271776,
      "byteStride": 12,
      "target": 34962
    },
    {
      "buffer": 0,
      "byteOffset": 1034016,
      "byteLength": 319536,
      "target": 34963
    },
    {
      "buffer": 0,
      "byteOffset": 1353552,
      "byteLength": 265368,
      "byteStride": 12,
      "target": 34962
    },
    {
      "buffer": 0,
      "byteOffset": 1618920,
      "byteLength": 265368,
      "byteStride": 12,
      "target": 34962
    },
    {
      "buffer": 0,
      "byteOffset": 1884288,
      "byteLength": 340944,
      "target": 34963
    },
    {
      "buffer": 0,
      "byteOffset": 2225232,
      "byteLength": 15696,
      "byteStride": 12,
      "target": 34962
    },
    {
      "buffer": 0,
      "byteOffset": 2240928,
      "byteLength": 15696,
      "byteStride": 12,
      "target": 34962
    },
    {
      "buffer": 0,
      "byteOffset": 2256624,
      "byteLength": 13152,
      "target": 34963
    }
  ],
  "accessors": [
    {
      "bufferView": 0,
      "byteOffset": 0,
      "componentType": 5126,
      "normalized": false,
      "count": 9937,
      "min": [
        -0.06867985427379608,
        -0.022021794691681862,
        -0.025607749819755554
      ],
      "max": [
        -0.03231296315789223,
        0.008605518378317356,
        0.010778895579278469
      ],
      "type": "VEC3"
    },
    {
      "bufferView": 1,
      "byteOffset": 0,
      "componentType": 5126,
      "normalized": false,
      "count": 9937,
      "min": [
        -1,
        -0.9999042749404907,
        -0.9997001886367798
      ],
      "max": [
        1,
        0.999963641166687,
        0.9999828934669495
      ],
      "type": "VEC3"
    },
    {
      "bufferView": 2,
      "byteOffset": 0,
      "componentType": 5125,
      "normalized": false,
      "count": 43008,
      "min": [
        0
      ],
      "max": [
        9936
      ],
      "type": "SCALAR"
    },
    {
      "bufferView": 3,
      "byteOffset": 0,
      "componentType": 5126,
      "normalized": false,
      "count": 2258,
      "min": [
        -0.06908487528562546,
        -0.025651048868894577,
        -0.02335953153669834
      ],
      "max": [
        -0.027746813371777534,
        -0.013176529668271542,
        0.006835999432951212
      ],
      "type": "VEC3"
    },
    {
      "bufferView": 4,
      "byteOffset": 0,
      "componentType": 5126,
      "normalized": false,
      "count": 2258,
      "min": [
        -0.9999822378158569,
        -0.9995756149291992,
        -0.9995756149291992
      ],
      "max": [
        0.9999822378158569,
        0.999594509601593,
        0.9995756149291992
      ],
      "type": "VEC3"
    },
    {
      "bufferView": 5,
      "byteOffset": 0,
      "componentType": 5125,
      "normalized": false,
      "count": 6438,
      "min": [
        0
      ],
      "max": [
        2257
      ],
      "type": "SCALAR"
    },
    {
      "bufferView": 6,
      "byteOffset": 0,
      "componentType": 5126,
      "normalized": false,
      "count": 22648,
      "min": [
        -0.06808099150657654,
        0.001668749493546784,
        -0.02500574104487896
      ],
      "max": [
        -0.03291182592511177,
        0.006566012743860483,
        0.010086502879858017
      ],
      "type": "VEC3"
    },
    {
      "bufferView": 7,
      "byteOffset": 0,
      "componentType": 5126,
      "normalized": false,
      "count": 22648,
      "min": [
        -1,
        -0.9999818205833435,
        -0.999889075756073
      ],
      "max": [
        1,
        0.9997754693031311,
        0.9997130632400513
      ],
      "type": "VEC3"
    },
    {
      "bufferView": 8,
      "byteOffset": 0,
      "componentType": 5125,
      "normalized": false,
      "count": 79884,
      "min": [
        0
      ],
      "max": [
        22647
      ],
      "type": "SCALAR"
    },
    {
      "bufferView": 9,
      "byteOffset": 0,
      "componentType": 5126,
      "normalized": false,
      "count": 22114,
      "min": [
        -0.06849640607833862,
        -0.01021835021674633,
        -0.02554534748196602
      ],
      "max": [
        -0.032496411353349686,
        0.004613425116986036,
        0.01048427727073431
      ],
      "type": "VEC3"
    },
    {
      "bufferView": 10,
      "byteOffset": 0,
      "componentType": 5126,
      "normalized": false,
      "count": 22114,
      "min": [
        -1,
        -0.999970018863678,
        -0.9998499155044556
      ],
      "max": [
        1,
        0.999763011932373,
        0.9997416734695435
      ],
      "type": "VEC3"
    },
    {
      "bufferView": 11,
      "byteOffset": 0,
      "componentType": 5125,
      "normalized": false,
      "count": 85236,
      "min": [
        0
      ],
      "max": [
        22113
      ],
      "type": "SCALAR"
    },
    {
      "bufferView": 12,
      "byteOffset": 0,
      "componentType": 5126,
      "normalized": false,
      "count": 1308,
      "min": [
        -0.06612689793109894,
        -0.04575237259268761,
        -0.01384809147566557
      ],
      "max": [
        -0.033626895397901535,
        -0.005915746558457613,
        -0.003259909339249134
      ],
      "type": "VEC3"
    },
    {
      "bufferView": 13,
      "byteOffset": 0,
      "componentType": 5126,
      "normalized": false,
      "count": 1308,
      "min": [
        -1,
        -0.9995901584625244,
        -0.9995756149291992
      ],
      "max": [
        1,
        0.9995756149291992,
        0.9995756149291992
      ],
      "type": "VEC3"
    },
    {
      "bufferView": 14,
      "byteOffset": 0,
      "componentType": 5125,
      "normalized": false,
      "count": 3288,
      "min": [
        0
      ],
      "max": [
        1307
      ],
      "type": "SCALAR"
    }
  ],
  "scene": 0,
  "scenes": [
    {
      "nodes": [
        0
      ],
      "name": "signaallamp_groen"
    }
  ],
  "nodes": [
    {
      "name": "signaallamp_groen",
      "mesh": 0
    }
  ],
  "meshes": [
    {
      "primitives": [
        {
          "material": 0,
          "mode": 4,
          "attributes": {
            "POSITION": 0,
            "NORMAL": 1
          },
          "indices": 2
        },
        {
          "material": 1,
          "mode": 4,
          "attributes": {
            "POSITION": 3,
            "NORMAL": 4
          },
          "indices": 5
        },
        {
          "material": 2,
          "mode": 4,
          "attributes": {
            "POSITION": 6,
            "NORMAL": 7
          },
          "indices": 8
        },
        {
          "material": 3,
          "mode": 4,
          "attributes": {
            "POSITION": 9,
            "NORMAL": 10
          },
          "indices": 11
        },
        {
          "material": 4,
          "mode": 4,
          "attributes": {
            "POSITION": 12,
            "NORMAL": 13
          },
          "indices": 14
        }
      ]
    }
  ],
  "materials": [
    {
      "name": "",
      "pbrMetallicRoughness": {
        "baseColorFactor": [
          0.07058823529411765,
          0.43529411764705883,
          0,
          1
        ],
        "metallicFactor": 0,
        "roughnessFactor": 1
      },
      "emissiveFactor": [
        0,
        0,
        0
      ],
      "alphaMode": "OPAQUE",
      "doubleSided": true
    },
    {
      "name": "",
      "pbrMetallicRoughness": {
        "baseColorFactor": [
          0.058823529411764705,
          0.058823529411764705,
          0.058823529411764705,
          1
        ],
        "metallicFactor": 0,
        "roughnessFactor": 1
      },
      "emissiveFactor": [
        0,
        0,
        0
      ],
      "alphaMode": "OPAQUE",
      "doubleSided": true
    },
    {
      "name": "",
      "pbrMetallicRoughness": {
        "baseColorFactor": [
          0,
          0,
          0,
          1
        ],
        "metallicFactor": 0,
        "roughnessFactor": 1
      },
      "emissiveFactor": [
        0,
        0,
        0
      ],
      "alphaMode": "OPAQUE",
      "doubleSided": true
    },
    {
      "name": "",
      "pbrMetallicRoughness": {
        "baseColorFactor": [
          0.08235294117647059,
          0.08235294117647059,
          0.08235294117647059,
          1
        ],
        "metallicFactor": 0,
        "roughnessFactor": 1
      },
      "emissiveFactor": [
        0,
        0,
        0
      ],
      "alphaMode": "OPAQUE",
      "doubleSided": true
    },
    {
      "name": "",
      "pbrMetallicRoughness": {
        "baseColorFactor": [
          0.054901960784313725,
          0.054901960784313725,
          0.054901960784313725,
          1
        ],
        "metallicFactor": 0,
        "roughnessFactor": 1
      },
      "emissiveFactor": [
        0,
        0,
        0
      ],
      "alphaMode": "OPAQUE",
      "doubleSided": true
    }
  ],
  "extensions": {}
}