{
	"asset":{
		"generator":"Khronos glTF Blender I/O v5.2.40",
		"version":"2.0"
	},
	"scene":0,
	"scenes":[
		{
			"name":"Scene",
			"nodes":[
				0,
				1,
				2,
				3,
				4
			]
		}
	],
	"nodes":[
		{
			"name":"LEFT_SIDE",
			"scale":[
				0.0010000000474974513,
				0.0010000000474974513,
				0.0010000000474974513
			],
			"translation":[
				9.089037484955043e-05,
				0.03388194739818573,
				0.030933862552046776
			]
		},
		{
			"name":"MOUNTING_POINT",
			"scale":[
				0.0010000000474974513,
				0.0010000000474974513,
				0.0010000000474974513
			],
			"translation":[
				0.007543524727225304,
				0.04120705649256706,
				0
			]
		},
		{
			"mesh":0,
			"name":"Part 1"
		},
		{
			"mesh":1,
			"name":"Part 2"
		},
		{
			"name":"RIGHT_SIDE",
			"scale":[
				0.0010000000474974513,
				0.0010000000474974513,
				0.0010000000474974513
			],
			"translation":[
				0.015090890228748322,
				0.0317804291844368,
				0.03495119512081146
			]
		}
	],
	"materials":[
		{
			"doubleSided":true,
			"name":"Material_0.001",
			"pbrMetallicRoughness":{
				"baseColorFactor":[
					0.09989872574806213,
					0.12743768095970154,
					0.16202937066555023,
					1
				],
				"metallicFactor":0
			}
		},
		{
			"doubleSided":true,
			"name":"Material_1.001",
			"pbrMetallicRoughness":{
				"baseColorFactor":[
					0.004776953253895044,
					0.005181516520678997,
					0.005181516520678997,
					1
				],
				"metallicFactor":0
			}
		},
		{
			"doubleSided":true,
			"name":"Material_2.001",
			"pbrMetallicRoughness":{
				"baseColorFactor":[
					0,
					0.33716362714767456,
					0.07421357184648514,
					1
				],
				"metallicFactor":0
			}
		},
		{
			"doubleSided":true,
			"name":"Material_3.001",
			"pbrMetallicRoughness":{
				"baseColorFactor":[
					0.8227857351303101,
					0.8307698965072632,
					0.8069522380828857,
					1
				],
				"metallicFactor":0
			}
		},
		{
			"doubleSided":true,
			"name":"Material_4.001",
			"pbrMetallicRoughness":{
				"baseColorFactor":[
					0.577580451965332,
					0.5972017645835876,
					0.5520114302635193,
					1
				],
				"metallicFactor":0
			}
		},
		{
			"doubleSided":true,
			"name":"Material_5.001",
			"pbrMetallicRoughness":{
				"baseColorFactor":[
					0.577580451965332,
					0.577580451965332,
					0.5711248517036438,
					1
				],
				"metallicFactor":0
			}
		},
		{
			"doubleSided":true,
			"name":"Material_6.001",
			"pbrMetallicRoughness":{
				"baseColorFactor":[
					0.014443843625485897,
					0.021219009533524513,
					0.30054378509521484,
					1
				],
				"metallicFactor":0
			}
		}
	],
	"meshes":[
		{
			"name":"Part 1.001",
			"primitives":[
				{
					"attributes":{
						"POSITION":0,
						"NORMAL":1
					},
					"indices":2,
					"material":0
				},
				{
					"attributes":{
						"POSITION":3,
						"NORMAL":4
					},
					"indices":5,
					"material":1
				},
				{
					"attributes":{
						"POSITION":6,
						"NORMAL":7
					},
					"indices":8,
					"material":2
				},
				{
					"attributes":{
						"POSITION":9,
						"NORMAL":10
					},
					"indices":11,
					"material":3
				},
				{
					"attributes":{
						"POSITION":12,
						"NORMAL":13
					},
					"indices":14,
					"material":4
				}
			]
		},
		{
			"name":"Part 2.001",
			"primitives":[
				{
					"attributes":{
						"POSITION":15,
						"NORMAL":16
					},
					"indices":17,
					"material":5
				},
				{
					"attributes":{
						"POSITION":18,
						"NORMAL":19
					},
					"indices":20,
					"material":6
				}
			]
		}
	],
	"accessors":[
		{
			"bufferView":0,
			"componentType":5126,
			"count":4240,
			"max":[
				0.014999999664723873,
				0.07320000231266022,
				0.05824696272611618
			],
			"min":[
				0,
				0,
				0.0018500000005587935
			],
			"type":"VEC3"
		},
		{
			"bufferView":1,
			"componentType":5126,
			"count":4240,
			"type":"VEC3"
		},
		{
			"bufferView":2,
			"componentType":5123,
			"count":11928,
			"type":"SCALAR"
		},
		{
			"bufferView":3,
			"componentType":5126,
			"count":420,
			"max":[
				0.010150999762117863,
				0.0659250020980835,
				0.010649999603629112
			],
			"min":[
				0.003879002295434475,
				0.008214999921619892,
				0.0011500000255182385
			],
			"type":"VEC3"
		},
		{
			"bufferView":4,
			"componentType":5126,
			"count":420,
			"type":"VEC3"
		},
		{
			"bufferView":5,
			"componentType":5123,
			"count":1410,
			"type":"SCALAR"
		},
		{
			"bufferView":6,
			"componentType":5126,
			"count":424,
			"max":[
				0.012000000104308128,
				0.06765872985124588,
				0.05575000122189522
			],
			"min":[
				0.003000000026077032,
				0.004449999891221523,
				0.0033499998971819878
			],
			"type":"VEC3"
		},
		{
			"bufferView":7,
			"componentType":5126,
			"count":424,
			"type":"VEC3"
		},
		{
			"bufferView":8,
			"componentType":5123,
			"count":1134,
			"type":"SCALAR"
		},
		{
			"bufferView":9,
			"componentType":5126,
			"count":398,
			"max":[
				0.01489999983459711,
				0.05951506271958351,
				0.03981790691614151
			],
			"min":[
				0.003000000026077032,
				0.03424999862909317,
				1.0658141129045731e-17
			],
			"type":"VEC3"
		},
		{
			"bufferView":10,
			"componentType":5126,
			"count":398,
			"type":"VEC3"
		},
		{
			"bufferView":11,
			"componentType":5123,
			"count":1002,
			"type":"SCALAR"
		},
		{
			"bufferView":12,
			"componentType":5126,
			"count":1262,
			"max":[
				0.007925000041723251,
				0.06440000236034393,
				0.058336276561021805
			],
			"min":[
				0.000944599334616214,
				0.008212205022573471,
				0.0018482999876141548
			],
			"type":"VEC3"
		},
		{
			"bufferView":13,
			"componentType":5126,
			"count":1262,
			"type":"VEC3"
		},
		{
			"bufferView":14,
			"componentType":5123,
			"count":1920,
			"type":"SCALAR"
		},
		{
			"bufferView":15,
			"componentType":5126,
			"count":30320,
			"max":[
				0.01387086696922779,
				0.06867637485265732,
				0.058260947465896606
			],
			"min":[
				0.0010218375828117132,
				0.004578752443194389,
				0.05756375566124916
			],
			"type":"VEC3"
		},
		{
			"bufferView":16,
			"componentType":5126,
			"count":30320,
			"type":"VEC3"
		},
		{
			"bufferView":17,
			"componentType":5123,
			"count":71610,
			"type":"SCALAR"
		},
		{
			"bufferView":18,
			"componentType":5126,
			"count":41,
			"max":[
				0.013959584757685661,
				0.024957118555903435,
				0.05825956538319588
			],
			"min":[
				0.009959585033357143,
				0.02095711976289749,
				0.05808684974908829
			],
			"type":"VEC3"
		},
		{
			"bufferView":19,
			"componentType":5126,
			"count":41,
			"type":"VEC3"
		},
		{
			"bufferView":20,
			"componentType":5123,
			"count":84,
			"type":"SCALAR"
		}
	],
	"bufferViews":[
		{
			"buffer":0,
			"byteLength":50880,
			"byteOffset":0,
			"target":34962
		},
		{
			"buffer":0,
			"byteLength":50880,
			"byteOffset":50880,
			"target":34962
		},
		{
			"buffer":0,
			"byteLength":23856,
			"byteOffset":101760,
			"target":34963
		},
		{
			"buffer":0,
			"byteLength":5040,
			"byteOffset":125616,
			"target":34962
		},
		{
			"buffer":0,
			"byteLength":5040,
			"byteOffset":130656,
			"target":34962
		},
		{
			"buffer":0,
			"byteLength":2820,
			"byteOffset":135696,
			"target":34963
		},
		{
			"buffer":0,
			"byteLength":5088,
			"byteOffset":138516,
			"target":34962
		},
		{
			"buffer":0,
			"byteLength":5088,
			"byteOffset":143604,
			"target":34962
		},
		{
			"buffer":0,
			"byteLength":2268,
			"byteOffset":148692,
			"target":34963
		},
		{
			"buffer":0,
			"byteLength":4776,
			"byteOffset":150960,
			"target":34962
		},
		{
			"buffer":0,
			"byteLength":4776,
			"byteOffset":155736,
			"target":34962
		},
		{
			"buffer":0,
			"byteLength":2004,
			"byteOffset":160512,
			"target":34963
		},
		{
			"buffer":0,
			"byteLength":15144,
			"byteOffset":162516,
			"target":34962
		},
		{
			"buffer":0,
			"byteLength":15144,
			"byteOffset":177660,
			"target":34962
		},
		{
			"buffer":0,
			"byteLength":3840,
			"byteOffset":192804,
			"target":34963
		},
		{
			"buffer":0,
			"byteLength":363840,
			"byteOffset":196644,
			"target":34962
		},
		{
			"buffer":0,
			"byteLength":363840,
			"byteOffset":560484,
			"target":34962
		},
		{
			"buffer":0,
			"byteLength":143220,
			"byteOffset":924324,
			"target":34963
		},
		{
			"buffer":0,
			"byteLength":492,
			"byteOffset":1067544,
			"target":34962
		},
		{
			"buffer":0,
			"byteLength":492,
			"byteOffset":1068036,
			"target":34962
		},
		{
			"buffer":0,
			"byteLength":168,
			"byteOffset":1068528,
			"target":34963
		}
	],
	"buffers":[
		{
			"byteLength":1068696,
			"uri":"Component.bin"
		}
	]
}
