{
	"asset":{
		"generator":"Khronos glTF Blender I/O v5.2.40",
		"version":"2.0"
	},
	"scene":0,
	"scenes":[
		{
			"name":"Scene",
			"nodes":[
				0,
				1,
				2,
				3
			]
		}
	],
	"nodes":[
		{
			"name":"LEFT_SIDE",
			"scale":[
				0.0005000000237487257,
				0.0005000000237487257,
				0.0005000000237487257
			],
			"translation":[
				0,
				0.028706315904855728,
				0.01481300126761198
			]
		},
		{
			"name":"MOUNTING_POINT",
			"scale":[
				0.0010000000474974513,
				0.0010000000474974513,
				0.0010000000474974513
			],
			"translation":[
				0.0025500000920146704,
				0.028575677424669266,
				4.999999873689376e-05
			]
		},
		{
			"mesh":0,
			"name":"Part 1"
		},
		{
			"name":"RIGHT_SIDE",
			"scale":[
				0.0005000000237487257,
				0.0005000000237487257,
				0.0005000000237487257
			],
			"translation":[
				0.005100000184029341,
				0.028706315904855728,
				0.01481300126761198
			]
		}
	],
	"materials":[
		{
			"doubleSided":true,
			"name":"Material_0",
			"pbrMetallicRoughness":{
				"baseColorFactor":[
					0.6899999976158142,
					0.6899999976158142,
					0.6899999976158142,
					1
				],
				"metallicFactor":0
			}
		},
		{
			"doubleSided":true,
			"name":"Material_1",
			"pbrMetallicRoughness":{
				"baseColorFactor":[
					0.715693473815918,
					0.15896083414554596,
					0.03189603239297867,
					1
				],
				"metallicFactor":0
			}
		}
	],
	"meshes":[
		{
			"name":"Part 1",
			"primitives":[
				{
					"attributes":{
						"POSITION":0,
						"NORMAL":1
					},
					"indices":2,
					"material":0
				},
				{
					"attributes":{
						"POSITION":3,
						"NORMAL":4
					},
					"indices":5,
					"material":1
				}
			]
		}
	],
	"accessors":[
		{
			"bufferView":0,
			"componentType":5126,
			"count":13321,
			"max":[
				0.005100000184029341,
				0.054235104471445084,
				0.0361500009894371
			],
			"min":[
				-7.450582577110676e-13,
				-5.846995350111683e-07,
				0
			],
			"type":"VEC3"
		},
		{
			"bufferView":1,
			"componentType":5126,
			"count":13321,
			"type":"VEC3"
		},
		{
			"bufferView":2,
			"componentType":5123,
			"count":34680,
			"type":"SCALAR"
		},
		{
			"bufferView":3,
			"componentType":5126,
			"count":893,
			"max":[
				0.004449999891221523,
				0.04413650184869766,
				0.0361500009894371
			],
			"min":[
				0.000750000006519258,
				0.011586503125727177,
				0.03435000032186508
			],
			"type":"VEC3"
		},
		{
			"bufferView":4,
			"componentType":5126,
			"count":893,
			"type":"VEC3"
		},
		{
			"bufferView":5,
			"componentType":5123,
			"count":2292,
			"type":"SCALAR"
		}
	],
	"bufferViews":[
		{
			"buffer":0,
			"byteLength":159852,
			"byteOffset":0,
			"target":34962
		},
		{
			"buffer":0,
			"byteLength":159852,
			"byteOffset":159852,
			"target":34962
		},
		{
			"buffer":0,
			"byteLength":69360,
			"byteOffset":319704,
			"target":34963
		},
		{
			"buffer":0,
			"byteLength":10716,
			"byteOffset":389064,
			"target":34962
		},
		{
			"buffer":0,
			"byteLength":10716,
			"byteOffset":399780,
			"target":34962
		},
		{
			"buffer":0,
			"byteLength":4584,
			"byteOffset":410496,
			"target":34963
		}
	],
	"buffers":[
		{
			"byteLength":415080,
			"uri":"component.bin"
		}
	]
}
