{
	"asset":{
		"generator":"Khronos glTF Blender I/O v5.2.40",
		"version":"2.0"
	},
	"scene":0,
	"scenes":[
		{
			"name":"Scene",
			"nodes":[
				0,
				1,
				2,
				3,
				4
			]
		}
	],
	"nodes":[
		{
			"name":"LEFT_SIDE",
			"scale":[
				0.0010000000474974513,
				0.0010000000474974513,
				0.0010000000474974513
			],
			"translation":[
				0,
				0.04922041296958923,
				0.029645418748259544
			]
		},
		{
			"name":"MOUNTING_POINT",
			"scale":[
				0.0010000000474974513,
				0.0010000000474974513,
				0.0010000000474974513
			],
			"translation":[
				0.035999998450279236,
				0.04540000110864639,
				-0.0037999991327524185
			]
		},
		{
			"mesh":0,
			"name":"Part 1"
		},
		{
			"mesh":1,
			"name":"Part 2"
		},
		{
			"name":"RIGHT_SIDE",
			"scale":[
				0.0010000000474974513,
				0.0010000000474974513,
				0.0010000000474974513
			],
			"translation":[
				0.07200000435113907,
				0.04922041296958923,
				0.029645422473549843
			]
		}
	],
	"materials":[
		{
			"doubleSided":true,
			"name":"Material_0",
			"pbrMetallicRoughness":{
				"baseColorFactor":[
					0.10653357952833176,
					0.11927718669176102,
					0.1548718959093094,
					1
				],
				"metallicFactor":0
			}
		},
		{
			"doubleSided":true,
			"name":"Material_1",
			"pbrMetallicRoughness":{
				"baseColorFactor":[
					0.7873971462249756,
					0.7873971462249756,
					0.7483906149864197,
					1
				],
				"metallicFactor":0
			}
		},
		{
			"doubleSided":true,
			"name":"Material_2",
			"pbrMetallicRoughness":{
				"baseColorFactor":[
					0.7378813624382019,
					0.7378813624382019,
					0.7378813624382019,
					1
				],
				"metallicFactor":0
			}
		},
		{
			"doubleSided":true,
			"name":"Material_3",
			"pbrMetallicRoughness":{
				"baseColorFactor":[
					0.5271151661872864,
					0.6444528102874756,
					0.7529128193855286,
					1
				],
				"metallicFactor":0
			}
		},
		{
			"doubleSided":true,
			"name":"Material_4",
			"pbrMetallicRoughness":{
				"baseColorFactor":[
					0.10653357952833176,
					0.11927718669176102,
					0.1548718959093094,
					1
				],
				"metallicFactor":0
			}
		},
		{
			"doubleSided":true,
			"name":"Material_5",
			"pbrMetallicRoughness":{
				"baseColorFactor":[
					0.13286831974983215,
					0.13286831974983215,
					0.13286831974983215,
					1
				],
				"metallicFactor":0
			}
		},
		{
			"doubleSided":true,
			"name":"Material_6",
			"pbrMetallicRoughness":{
				"baseColorFactor":[
					0,
					0.3185468018054962,
					0.3185468018054962,
					1
				],
				"metallicFactor":0
			}
		}
	],
	"meshes":[
		{
			"name":"Part 1",
			"primitives":[
				{
					"attributes":{
						"POSITION":0,
						"NORMAL":1
					},
					"indices":2,
					"material":0
				}
			]
		},
		{
			"name":"Part 2",
			"primitives":[
				{
					"attributes":{
						"POSITION":3,
						"NORMAL":4
					},
					"indices":5,
					"material":1
				},
				{
					"attributes":{
						"POSITION":6,
						"NORMAL":7
					},
					"indices":8,
					"material":2
				},
				{
					"attributes":{
						"POSITION":9,
						"NORMAL":10
					},
					"indices":11,
					"material":3
				},
				{
					"attributes":{
						"POSITION":12,
						"NORMAL":13
					},
					"indices":14,
					"material":4
				},
				{
					"attributes":{
						"POSITION":15,
						"NORMAL":16
					},
					"indices":17,
					"material":5
				},
				{
					"attributes":{
						"POSITION":18,
						"NORMAL":19
					},
					"indices":20,
					"material":6
				}
			]
		}
	],
	"accessors":[
		{
			"bufferView":0,
			"componentType":5126,
			"count":2247,
			"max":[
				0.07079999893903732,
				0.039599403738975525,
				0.07428064942359924
			],
			"min":[
				0.0012000000569969416,
				0.024551548063755035,
				0.060251057147979736
			],
			"type":"VEC3"
		},
		{
			"bufferView":1,
			"componentType":5126,
			"count":2247,
			"type":"VEC3"
		},
		{
			"bufferView":2,
			"componentType":5123,
			"count":5724,
			"type":"SCALAR"
		},
		{
			"bufferView":3,
			"componentType":5126,
			"count":1416,
			"max":[
				0.05000000074505806,
				0.06588790565729141,
				0.07020000368356705
			],
			"min":[
				0.0006818567053414881,
				0.00025000018649734557,
				0.011700000613927841
			],
			"type":"VEC3"
		},
		{
			"bufferView":4,
			"componentType":5126,
			"count":1416,
			"type":"VEC3"
		},
		{
			"bufferView":5,
			"componentType":5123,
			"count":3552,
			"type":"SCALAR"
		},
		{
			"bufferView":6,
			"componentType":5126,
			"count":95037,
			"max":[
				0.07199999690055847,
				0.09005000442266464,
				0.07450000196695328
			],
			"min":[
				0,
				0.00025000012828968465,
				4.39097644691893e-14
			],
			"type":"VEC3"
		},
		{
			"bufferView":7,
			"componentType":5126,
			"count":95037,
			"type":"VEC3"
		},
		{
			"bufferView":8,
			"componentType":5125,
			"count":338802,
			"type":"SCALAR"
		},
		{
			"bufferView":9,
			"componentType":5126,
			"count":2262,
			"max":[
				0.06639999896287918,
				0.08495000004768372,
				0.04814999923110008
			],
			"min":[
				0.00559999980032444,
				0.005350000225007534,
				0.00885000079870224
			],
			"type":"VEC3"
		},
		{
			"bufferView":10,
			"componentType":5126,
			"count":2262,
			"type":"VEC3"
		},
		{
			"bufferView":11,
			"componentType":5123,
			"count":5868,
			"type":"SCALAR"
		},
		{
			"bufferView":12,
			"componentType":5126,
			"count":4863,
			"max":[
				0.0684249997138977,
				0.02969999983906746,
				0.05010003224015236
			],
			"min":[
				0.0035749999806284904,
				0,
				0.0013000008184462786
			],
			"type":"VEC3"
		},
		{
			"bufferView":13,
			"componentType":5126,
			"count":4863,
			"type":"VEC3"
		},
		{
			"bufferView":14,
			"componentType":5123,
			"count":11826,
			"type":"SCALAR"
		},
		{
			"bufferView":15,
			"componentType":5126,
			"count":4476,
			"max":[
				0.05968880653381348,
				0.07898760586977005,
				0.07020000368356705
			],
			"min":[
				0.0006138703320175409,
				0.01209999993443489,
				0.05006999894976616
			],
			"type":"VEC3"
		},
		{
			"bufferView":16,
			"componentType":5126,
			"count":4476,
			"type":"VEC3"
		},
		{
			"bufferView":17,
			"componentType":5123,
			"count":10230,
			"type":"SCALAR"
		},
		{
			"bufferView":18,
			"componentType":5126,
			"count":475,
			"max":[
				0.012868056073784828,
				0.06588732451200485,
				0.07018999755382538
			],
			"min":[
				0.0006818720721639693,
				0.06396201252937317,
				0.07018999755382538
			],
			"type":"VEC3"
		},
		{
			"bufferView":19,
			"componentType":5126,
			"count":475,
			"type":"VEC3"
		},
		{
			"bufferView":20,
			"componentType":5123,
			"count":864,
			"type":"SCALAR"
		}
	],
	"bufferViews":[
		{
			"buffer":0,
			"byteLength":26964,
			"byteOffset":0,
			"target":34962
		},
		{
			"buffer":0,
			"byteLength":26964,
			"byteOffset":26964,
			"target":34962
		},
		{
			"buffer":0,
			"byteLength":11448,
			"byteOffset":53928,
			"target":34963
		},
		{
			"buffer":0,
			"byteLength":16992,
			"byteOffset":65376,
			"target":34962
		},
		{
			"buffer":0,
			"byteLength":16992,
			"byteOffset":82368,
			"target":34962
		},
		{
			"buffer":0,
			"byteLength":7104,
			"byteOffset":99360,
			"target":34963
		},
		{
			"buffer":0,
			"byteLength":1140444,
			"byteOffset":106464,
			"target":34962
		},
		{
			"buffer":0,
			"byteLength":1140444,
			"byteOffset":1246908,
			"target":34962
		},
		{
			"buffer":0,
			"byteLength":1355208,
			"byteOffset":2387352,
			"target":34963
		},
		{
			"buffer":0,
			"byteLength":27144,
			"byteOffset":3742560,
			"target":34962
		},
		{
			"buffer":0,
			"byteLength":27144,
			"byteOffset":3769704,
			"target":34962
		},
		{
			"buffer":0,
			"byteLength":11736,
			"byteOffset":3796848,
			"target":34963
		},
		{
			"buffer":0,
			"byteLength":58356,
			"byteOffset":3808584,
			"target":34962
		},
		{
			"buffer":0,
			"byteLength":58356,
			"byteOffset":3866940,
			"target":34962
		},
		{
			"buffer":0,
			"byteLength":23652,
			"byteOffset":3925296,
			"target":34963
		},
		{
			"buffer":0,
			"byteLength":53712,
			"byteOffset":3948948,
			"target":34962
		},
		{
			"buffer":0,
			"byteLength":53712,
			"byteOffset":4002660,
			"target":34962
		},
		{
			"buffer":0,
			"byteLength":20460,
			"byteOffset":4056372,
			"target":34963
		},
		{
			"buffer":0,
			"byteLength":5700,
			"byteOffset":4076832,
			"target":34962
		},
		{
			"buffer":0,
			"byteLength":5700,
			"byteOffset":4082532,
			"target":34962
		},
		{
			"buffer":0,
			"byteLength":1728,
			"byteOffset":4088232,
			"target":34963
		}
	],
	"buffers":[
		{
			"byteLength":4089960,
			"uri":"component.bin"
		}
	]
}
