{
	"asset":{
		"generator":"Khronos glTF Blender I/O v5.2.40",
		"version":"2.0"
	},
	"scene":0,
	"scenes":[
		{
			"name":"Scene",
			"nodes":[
				0,
				1,
				2,
				3
			]
		}
	],
	"nodes":[
		{
			"name":"LEFT_SIDE",
			"scale":[
				0.0010000000474974513,
				0.0010000000474974513,
				0.0010000000474974513
			],
			"translation":[
				0,
				0.06389274448156357,
				0.04130571335554123
			]
		},
		{
			"name":"MOUNTING_POINT",
			"scale":[
				0.0010000000474974513,
				0.0010000000474974513,
				0.0010000000474974513
			],
			"translation":[
				0.02049889788031578,
				0.06185000017285347,
				-0.003999998793005943
			]
		},
		{
			"mesh":0,
			"name":"Part 1"
		},
		{
			"name":"RIGHT_SIDE",
			"scale":[
				0.0010000000474974513,
				0.0010000000474974513,
				0.0010000000474974513
			],
			"translation":[
				0.04100000113248825,
				0.06389274448156357,
				0.04130570963025093
			]
		}
	],
	"materials":[
		{
			"doubleSided":true,
			"name":"Material_0",
			"pbrMetallicRoughness":{
				"baseColorFactor":[
					0.9559735059738159,
					0.23074007034301758,
					0.024157634004950523,
					1
				],
				"metallicFactor":0
			}
		},
		{
			"doubleSided":true,
			"name":"Material_1",
			"pbrMetallicRoughness":{
				"baseColorFactor":[
					0.6583749651908875,
					0.6938719153404236,
					0.7083759307861328,
					1
				],
				"metallicFactor":0
			}
		},
		{
			"doubleSided":true,
			"name":"Material_2.001",
			"pbrMetallicRoughness":{
				"baseColorFactor":[
					0.2746773362159729,
					0.3049873411655426,
					0.3185468018054962,
					1
				],
				"metallicFactor":0
			}
		},
		{
			"doubleSided":true,
			"name":"Material_3.001",
			"pbrMetallicRoughness":{
				"baseColorFactor":[
					0.0802198275923729,
					0.0802198275923729,
					0.0802198275923729,
					1
				],
				"metallicFactor":0
			}
		},
		{
			"doubleSided":true,
			"name":"Material_4.001",
			"pbrMetallicRoughness":{
				"baseColorFactor":[
					0.8713672757148743,
					0.8713672757148743,
					0.9130988121032715,
					1
				],
				"metallicFactor":0
			}
		},
		{
			"doubleSided":true,
			"name":"Material_5.001",
			"pbrMetallicRoughness":{
				"baseColorFactor":[
					0.6444798111915588,
					0.6444798111915588,
					0.5775805711746216,
					1
				],
				"metallicFactor":0
			}
		}
	],
	"meshes":[
		{
			"name":"Part 1",
			"primitives":[
				{
					"attributes":{
						"POSITION":0,
						"NORMAL":1
					},
					"indices":2,
					"material":0
				},
				{
					"attributes":{
						"POSITION":3,
						"NORMAL":4
					},
					"indices":5,
					"material":1
				},
				{
					"attributes":{
						"POSITION":6,
						"NORMAL":7
					},
					"indices":8,
					"material":2
				},
				{
					"attributes":{
						"POSITION":9,
						"NORMAL":10
					},
					"indices":11,
					"material":3
				},
				{
					"attributes":{
						"POSITION":12,
						"NORMAL":13
					},
					"indices":14,
					"material":4
				},
				{
					"attributes":{
						"POSITION":15,
						"NORMAL":16
					},
					"indices":17,
					"material":5
				}
			]
		}
	],
	"accessors":[
		{
			"bufferView":0,
			"componentType":5126,
			"count":2403,
			"max":[
				0.033087972551584244,
				0.12572063505649567,
				0.118471160531044
			],
			"min":[
				0.01032224204391241,
				0.0007132067694328725,
				9.999999747378752e-05
			],
			"type":"VEC3"
		},
		{
			"bufferView":1,
			"componentType":5126,
			"count":2403,
			"type":"VEC3"
		},
		{
			"bufferView":2,
			"componentType":5123,
			"count":4896,
			"type":"SCALAR"
		},
		{
			"bufferView":3,
			"componentType":5126,
			"count":2457,
			"max":[
				0.04094799980521202,
				0.12990015745162964,
				0.12079791724681854
			],
			"min":[
				4.800000533577986e-05,
				0.00010016260057454929,
				0.10418497025966644
			],
			"type":"VEC3"
		},
		{
			"bufferView":4,
			"componentType":5126,
			"count":2457,
			"type":"VEC3"
		},
		{
			"bufferView":5,
			"componentType":5123,
			"count":4698,
			"type":"SCALAR"
		},
		{
			"bufferView":6,
			"componentType":5126,
			"count":1828,
			"max":[
				0.04100000113248825,
				0.12999999523162842,
				0.1126246377825737
			],
			"min":[
				-5.562217210435224e-17,
				0,
				-3.9790394430763384e-16
			],
			"type":"VEC3"
		},
		{
			"bufferView":7,
			"componentType":5126,
			"count":1828,
			"type":"VEC3"
		},
		{
			"bufferView":8,
			"componentType":5123,
			"count":3732,
			"type":"SCALAR"
		},
		{
			"bufferView":9,
			"componentType":5126,
			"count":10387,
			"max":[
				0.03692950680851936,
				0.12798132002353668,
				0.11826424300670624
			],
			"min":[
				0.0020000000949949026,
				0.0020186854526400566,
				0.008043122477829456
			],
			"type":"VEC3"
		},
		{
			"bufferView":10,
			"componentType":5126,
			"count":10387,
			"type":"VEC3"
		},
		{
			"bufferView":11,
			"componentType":5123,
			"count":26010,
			"type":"SCALAR"
		},
		{
			"bufferView":12,
			"componentType":5126,
			"count":2251,
			"max":[
				0.027487998828291893,
				0.12509310245513916,
				0.11859270930290222
			],
			"min":[
				0.013834000565111637,
				0.04941856116056442,
				0.11148325353860855
			],
			"type":"VEC3"
		},
		{
			"bufferView":13,
			"componentType":5126,
			"count":2251,
			"type":"VEC3"
		},
		{
			"bufferView":14,
			"componentType":5123,
			"count":4812,
			"type":"SCALAR"
		},
		{
			"bufferView":15,
			"componentType":5126,
			"count":1384,
			"max":[
				0.028315233066678047,
				0.12561771273612976,
				0.11297856271266937
			],
			"min":[
				0.009449999779462814,
				0.020558254793286324,
				0.091828353703022
			],
			"type":"VEC3"
		},
		{
			"bufferView":16,
			"componentType":5126,
			"count":1384,
			"type":"VEC3"
		},
		{
			"bufferView":17,
			"componentType":5123,
			"count":2028,
			"type":"SCALAR"
		}
	],
	"bufferViews":[
		{
			"buffer":0,
			"byteLength":28836,
			"byteOffset":0,
			"target":34962
		},
		{
			"buffer":0,
			"byteLength":28836,
			"byteOffset":28836,
			"target":34962
		},
		{
			"buffer":0,
			"byteLength":9792,
			"byteOffset":57672,
			"target":34963
		},
		{
			"buffer":0,
			"byteLength":29484,
			"byteOffset":67464,
			"target":34962
		},
		{
			"buffer":0,
			"byteLength":29484,
			"byteOffset":96948,
			"target":34962
		},
		{
			"buffer":0,
			"byteLength":9396,
			"byteOffset":126432,
			"target":34963
		},
		{
			"buffer":0,
			"byteLength":21936,
			"byteOffset":135828,
			"target":34962
		},
		{
			"buffer":0,
			"byteLength":21936,
			"byteOffset":157764,
			"target":34962
		},
		{
			"buffer":0,
			"byteLength":7464,
			"byteOffset":179700,
			"target":34963
		},
		{
			"buffer":0,
			"byteLength":124644,
			"byteOffset":187164,
			"target":34962
		},
		{
			"buffer":0,
			"byteLength":124644,
			"byteOffset":311808,
			"target":34962
		},
		{
			"buffer":0,
			"byteLength":52020,
			"byteOffset":436452,
			"target":34963
		},
		{
			"buffer":0,
			"byteLength":27012,
			"byteOffset":488472,
			"target":34962
		},
		{
			"buffer":0,
			"byteLength":27012,
			"byteOffset":515484,
			"target":34962
		},
		{
			"buffer":0,
			"byteLength":9624,
			"byteOffset":542496,
			"target":34963
		},
		{
			"buffer":0,
			"byteLength":16608,
			"byteOffset":552120,
			"target":34962
		},
		{
			"buffer":0,
			"byteLength":16608,
			"byteOffset":568728,
			"target":34962
		},
		{
			"buffer":0,
			"byteLength":4056,
			"byteOffset":585336,
			"target":34963
		}
	],
	"buffers":[
		{
			"byteLength":589392,
			"uri":"component.bin"
		}
	]
}
