{
	"asset":{
		"generator":"Khronos glTF Blender I/O v5.2.40",
		"version":"2.0"
	},
	"scene":0,
	"scenes":[
		{
			"name":"Scene",
			"nodes":[
				0,
				1,
				2,
				3,
				4
			]
		}
	],
	"nodes":[
		{
			"name":"LEFT_SIDE",
			"scale":[
				0.0010000000474974513,
				0.0010000000474974513,
				0.0010000000474974513
			],
			"translation":[
				9.089037484955043e-05,
				0.03388194739818573,
				0.030933862552046776
			]
		},
		{
			"name":"MOUNTING_POINT",
			"scale":[
				0.0010000000474974513,
				0.0010000000474974513,
				0.0010000000474974513
			],
			"translation":[
				0.007543524727225304,
				0.04120705649256706,
				0
			]
		},
		{
			"mesh":0,
			"name":"Part 1"
		},
		{
			"mesh":1,
			"name":"Part 2"
		},
		{
			"name":"RIGHT_SIDE",
			"scale":[
				0.0010000000474974513,
				0.0010000000474974513,
				0.0010000000474974513
			],
			"translation":[
				0.015090890228748322,
				0.0317804291844368,
				0.03495119512081146
			]
		}
	],
	"materials":[
		{
			"doubleSided":true,
			"name":"Material_0.004",
			"pbrMetallicRoughness":{
				"baseColorFactor":[
					0.9473065137863159,
					0.6938717365264893,
					0,
					1
				],
				"metallicFactor":0
			}
		},
		{
			"doubleSided":true,
			"name":"Material_1.004",
			"pbrMetallicRoughness":{
				"baseColorFactor":[
					0.09989872574806213,
					0.12743768095970154,
					0.16202937066555023,
					1
				],
				"metallicFactor":0
			}
		},
		{
			"doubleSided":true,
			"name":"Material_2.004",
			"pbrMetallicRoughness":{
				"baseColorFactor":[
					0,
					0.33716362714767456,
					0.07421357184648514,
					1
				],
				"metallicFactor":0
			}
		},
		{
			"doubleSided":true,
			"name":"Material_3.004",
			"pbrMetallicRoughness":{
				"baseColorFactor":[
					0.8227857351303101,
					0.8307698965072632,
					0.8069522380828857,
					1
				],
				"metallicFactor":0
			}
		},
		{
			"doubleSided":true,
			"name":"Material_4.004",
			"pbrMetallicRoughness":{
				"baseColorFactor":[
					0.004776953253895044,
					0.005181516520678997,
					0.005181516520678997,
					1
				],
				"metallicFactor":0
			}
		},
		{
			"doubleSided":true,
			"name":"Material_5.004",
			"pbrMetallicRoughness":{
				"baseColorFactor":[
					0.8227857351303101,
					0.8307698965072632,
					0.8069522380828857,
					1
				],
				"metallicFactor":0
			}
		},
		{
			"doubleSided":true,
			"name":"Material_6.003",
			"pbrMetallicRoughness":{
				"baseColorFactor":[
					0.14126329123973846,
					0.18447498977184296,
					0.4564110338687897,
					1
				],
				"metallicFactor":0
			}
		}
	],
	"meshes":[
		{
			"name":"Part 1.004",
			"primitives":[
				{
					"attributes":{
						"POSITION":0,
						"NORMAL":1
					},
					"indices":2,
					"material":0
				},
				{
					"attributes":{
						"POSITION":3,
						"NORMAL":4
					},
					"indices":5,
					"material":1
				},
				{
					"attributes":{
						"POSITION":6,
						"NORMAL":7
					},
					"indices":8,
					"material":2
				},
				{
					"attributes":{
						"POSITION":9,
						"NORMAL":10
					},
					"indices":11,
					"material":3
				},
				{
					"attributes":{
						"POSITION":12,
						"NORMAL":13
					},
					"indices":14,
					"material":4
				}
			]
		},
		{
			"name":"Part 2.004",
			"primitives":[
				{
					"attributes":{
						"POSITION":15,
						"NORMAL":16
					},
					"indices":17,
					"material":5
				},
				{
					"attributes":{
						"POSITION":18,
						"NORMAL":19
					},
					"indices":20,
					"material":6
				}
			]
		}
	],
	"accessors":[
		{
			"bufferView":0,
			"componentType":5126,
			"count":1744,
			"max":[
				0.014999999664723873,
				0.07320000231266022,
				0.057248156517744064
			],
			"min":[
				0,
				0,
				0.004749999847263098
			],
			"type":"VEC3"
		},
		{
			"bufferView":1,
			"componentType":5126,
			"count":1744,
			"type":"VEC3"
		},
		{
			"bufferView":2,
			"componentType":5123,
			"count":4434,
			"type":"SCALAR"
		},
		{
			"bufferView":3,
			"componentType":5126,
			"count":319,
			"max":[
				0.014999999664723873,
				0.06968236714601517,
				0.05824696272611618
			],
			"min":[
				0,
				0.0035176340024918318,
				0.0019499999471008778
			],
			"type":"VEC3"
		},
		{
			"bufferView":4,
			"componentType":5126,
			"count":319,
			"type":"VEC3"
		},
		{
			"bufferView":5,
			"componentType":5123,
			"count":828,
			"type":"SCALAR"
		},
		{
			"bufferView":6,
			"componentType":5126,
			"count":251,
			"max":[
				0.012400000356137753,
				0.06674999743700027,
				0.009750000201165676
			],
			"min":[
				0.003000000026077032,
				0.005849999841302633,
				0.0033499998971819878
			],
			"type":"VEC3"
		},
		{
			"bufferView":7,
			"componentType":5126,
			"count":251,
			"type":"VEC3"
		},
		{
			"bufferView":8,
			"componentType":5123,
			"count":600,
			"type":"SCALAR"
		},
		{
			"bufferView":9,
			"componentType":5126,
			"count":4930,
			"max":[
				0.014999999664723873,
				0.06440000236034393,
				0.0583348423242569
			],
			"min":[
				0.000944599334616214,
				0.008212205022573471,
				-1.0658141129045731e-17
			],
			"type":"VEC3"
		},
		{
			"bufferView":10,
			"componentType":5126,
			"count":4930,
			"type":"VEC3"
		},
		{
			"bufferView":11,
			"componentType":5123,
			"count":10980,
			"type":"SCALAR"
		},
		{
			"bufferView":12,
			"componentType":5126,
			"count":416,
			"max":[
				0.010950000025331974,
				0.0659250020980835,
				0.009750000201165676
			],
			"min":[
				0.0038999998942017555,
				0.008214999921619892,
				0.0011500000255182385
			],
			"type":"VEC3"
		},
		{
			"bufferView":13,
			"componentType":5126,
			"count":416,
			"type":"VEC3"
		},
		{
			"bufferView":14,
			"componentType":5123,
			"count":1404,
			"type":"SCALAR"
		},
		{
			"bufferView":15,
			"componentType":5126,
			"count":47629,
			"max":[
				0.01401788741350174,
				0.06862227618694305,
				0.058259859681129456
			],
			"min":[
				0.0010000000474974513,
				0.004463963210582733,
				0.057561203837394714
			],
			"type":"VEC3"
		},
		{
			"bufferView":16,
			"componentType":5126,
			"count":47629,
			"type":"VEC3"
		},
		{
			"bufferView":17,
			"componentType":5123,
			"count":111168,
			"type":"SCALAR"
		},
		{
			"bufferView":18,
			"componentType":5126,
			"count":40,
			"max":[
				0.013517887331545353,
				0.024715613573789597,
				0.05825583636760712
			],
			"min":[
				0.010017887689173222,
				0.021215613931417465,
				0.05809219554066658
			],
			"type":"VEC3"
		},
		{
			"bufferView":19,
			"componentType":5126,
			"count":40,
			"type":"VEC3"
		},
		{
			"bufferView":20,
			"componentType":5123,
			"count":84,
			"type":"SCALAR"
		}
	],
	"bufferViews":[
		{
			"buffer":0,
			"byteLength":20928,
			"byteOffset":0,
			"target":34962
		},
		{
			"buffer":0,
			"byteLength":20928,
			"byteOffset":20928,
			"target":34962
		},
		{
			"buffer":0,
			"byteLength":8868,
			"byteOffset":41856,
			"target":34963
		},
		{
			"buffer":0,
			"byteLength":3828,
			"byteOffset":50724,
			"target":34962
		},
		{
			"buffer":0,
			"byteLength":3828,
			"byteOffset":54552,
			"target":34962
		},
		{
			"buffer":0,
			"byteLength":1656,
			"byteOffset":58380,
			"target":34963
		},
		{
			"buffer":0,
			"byteLength":3012,
			"byteOffset":60036,
			"target":34962
		},
		{
			"buffer":0,
			"byteLength":3012,
			"byteOffset":63048,
			"target":34962
		},
		{
			"buffer":0,
			"byteLength":1200,
			"byteOffset":66060,
			"target":34963
		},
		{
			"buffer":0,
			"byteLength":59160,
			"byteOffset":67260,
			"target":34962
		},
		{
			"buffer":0,
			"byteLength":59160,
			"byteOffset":126420,
			"target":34962
		},
		{
			"buffer":0,
			"byteLength":21960,
			"byteOffset":185580,
			"target":34963
		},
		{
			"buffer":0,
			"byteLength":4992,
			"byteOffset":207540,
			"target":34962
		},
		{
			"buffer":0,
			"byteLength":4992,
			"byteOffset":212532,
			"target":34962
		},
		{
			"buffer":0,
			"byteLength":2808,
			"byteOffset":217524,
			"target":34963
		},
		{
			"buffer":0,
			"byteLength":571548,
			"byteOffset":220332,
			"target":34962
		},
		{
			"buffer":0,
			"byteLength":571548,
			"byteOffset":791880,
			"target":34962
		},
		{
			"buffer":0,
			"byteLength":222336,
			"byteOffset":1363428,
			"target":34963
		},
		{
			"buffer":0,
			"byteLength":480,
			"byteOffset":1585764,
			"target":34962
		},
		{
			"buffer":0,
			"byteLength":480,
			"byteOffset":1586244,
			"target":34962
		},
		{
			"buffer":0,
			"byteLength":168,
			"byteOffset":1586724,
			"target":34963
		}
	],
	"buffers":[
		{
			"byteLength":1586892,
			"uri":"Component.bin"
		}
	]
}
