{
	"asset":{
		"generator":"Khronos glTF Blender I/O v5.2.40",
		"version":"2.0"
	},
	"scene":0,
	"scenes":[
		{
			"name":"Scene",
			"nodes":[
				0,
				1,
				2,
				3
			]
		}
	],
	"nodes":[
		{
			"name":"LEFT_SIDE",
			"scale":[
				0.0010000000474974513,
				0.0010000000474974513,
				0.0010000000474974513
			],
			"translation":[
				0,
				0.028999999165534973,
				0.016724999994039536
			]
		},
		{
			"name":"MOUNTING_POINT",
			"scale":[
				0.0010000000474974513,
				0.0010000000474974513,
				0.0010000000474974513
			],
			"translation":[
				0.004000000189989805,
				0.029000001028180122,
				-0.00299999862909317
			]
		},
		{
			"mesh":0,
			"name":"Part 1"
		},
		{
			"name":"RIGHT_SIDE",
			"scale":[
				0.0010000000474974513,
				0.0010000000474974513,
				0.0010000000474974513
			],
			"translation":[
				0.00800000037997961,
				0.029000001028180122,
				0.016724999994039536
			]
		}
	],
	"materials":[
		{
			"doubleSided":true,
			"name":"Material_0",
			"pbrMetallicRoughness":{
				"baseColorFactor":[
					0.6899999976158142,
					0.6899999976158142,
					0.6899999976158142,
					1
				],
				"metallicFactor":0
			}
		},
		{
			"doubleSided":true,
			"name":"Material_1",
			"pbrMetallicRoughness":{
				"baseColorFactor":[
					0.6444796919822693,
					0.6444796919822693,
					1,
					1
				],
				"metallicFactor":0
			}
		}
	],
	"meshes":[
		{
			"name":"Part 1",
			"primitives":[
				{
					"attributes":{
						"POSITION":0,
						"NORMAL":1
					},
					"indices":2,
					"material":0
				},
				{
					"attributes":{
						"POSITION":3,
						"NORMAL":4
					},
					"indices":5,
					"material":1
				}
			]
		}
	],
	"accessors":[
		{
			"bufferView":0,
			"componentType":5126,
			"count":8470,
			"max":[
				0.00800000037997961,
				0.05799327418208122,
				0.036400001496076584
			],
			"min":[
				-1.799901379138076e-18,
				6.726623269059928e-06,
				-1.776356923772673e-18
			],
			"type":"VEC3"
		},
		{
			"bufferView":1,
			"componentType":5126,
			"count":8470,
			"type":"VEC3"
		},
		{
			"bufferView":2,
			"componentType":5123,
			"count":27492,
			"type":"SCALAR"
		},
		{
			"bufferView":3,
			"componentType":5126,
			"count":1655,
			"max":[
				0.006500451359897852,
				0.05119999870657921,
				0.006765385158360004
			],
			"min":[
				0.001500000013038516,
				0.006800000090152025,
				0.0024999999441206455
			],
			"type":"VEC3"
		},
		{
			"bufferView":4,
			"componentType":5126,
			"count":1655,
			"type":"VEC3"
		},
		{
			"bufferView":5,
			"componentType":5123,
			"count":4326,
			"type":"SCALAR"
		}
	],
	"bufferViews":[
		{
			"buffer":0,
			"byteLength":101640,
			"byteOffset":0,
			"target":34962
		},
		{
			"buffer":0,
			"byteLength":101640,
			"byteOffset":101640,
			"target":34962
		},
		{
			"buffer":0,
			"byteLength":54984,
			"byteOffset":203280,
			"target":34963
		},
		{
			"buffer":0,
			"byteLength":19860,
			"byteOffset":258264,
			"target":34962
		},
		{
			"buffer":0,
			"byteLength":19860,
			"byteOffset":278124,
			"target":34962
		},
		{
			"buffer":0,
			"byteLength":8652,
			"byteOffset":297984,
			"target":34963
		}
	],
	"buffers":[
		{
			"byteLength":306636,
			"uri":"component.bin"
		}
	]
}
