{
	"asset":{
		"generator":"Khronos glTF Blender I/O v5.2.40",
		"version":"2.0"
	},
	"scene":0,
	"scenes":[
		{
			"name":"Scene",
			"nodes":[
				0,
				1,
				2,
				3,
				4
			]
		}
	],
	"nodes":[
		{
			"name":"LEFT_SIDE",
			"scale":[
				0.0010000000474974513,
				0.0010000000474974513,
				0.0010000000474974513
			],
			"translation":[
				9.089037484955043e-05,
				0.03388194739818573,
				0.030933862552046776
			]
		},
		{
			"name":"MOUNTING_POINT",
			"scale":[
				0.0010000000474974513,
				0.0010000000474974513,
				0.0010000000474974513
			],
			"translation":[
				0.007543524727225304,
				0.04120705649256706,
				0
			]
		},
		{
			"mesh":0,
			"name":"Part 1"
		},
		{
			"mesh":1,
			"name":"Part 2"
		},
		{
			"name":"RIGHT_SIDE",
			"scale":[
				0.0010000000474974513,
				0.0010000000474974513,
				0.0010000000474974513
			],
			"translation":[
				0.015090890228748322,
				0.0317804291844368,
				0.03495119512081146
			]
		}
	],
	"materials":[
		{
			"doubleSided":true,
			"name":"Material_0",
			"pbrMetallicRoughness":{
				"baseColorFactor":[
					0.09989872574806213,
					0.12743768095970154,
					0.16202937066555023,
					1
				],
				"metallicFactor":0
			}
		},
		{
			"doubleSided":true,
			"name":"Material_1",
			"pbrMetallicRoughness":{
				"baseColorFactor":[
					0.8227857351303101,
					0.8307698965072632,
					0.8069522380828857,
					1
				],
				"metallicFactor":0
			}
		},
		{
			"doubleSided":true,
			"name":"Material_2",
			"pbrMetallicRoughness":{
				"baseColorFactor":[
					0,
					0.33716362714767456,
					0.07421357184648514,
					1
				],
				"metallicFactor":0
			}
		},
		{
			"doubleSided":true,
			"name":"Material_3",
			"pbrMetallicRoughness":{
				"baseColorFactor":[
					0.004776953253895044,
					0.005181516520678997,
					0.005181516520678997,
					1
				],
				"metallicFactor":0
			}
		},
		{
			"doubleSided":true,
			"name":"Material_4",
			"pbrMetallicRoughness":{
				"baseColorFactor":[
					0.577580451965332,
					0.5972017645835876,
					0.5520114302635193,
					1
				],
				"metallicFactor":0
			}
		},
		{
			"doubleSided":true,
			"name":"Material_5",
			"pbrMetallicRoughness":{
				"baseColorFactor":[
					0.8227857351303101,
					0.8307698965072632,
					0.8069522380828857,
					1
				],
				"metallicFactor":0
			}
		},
		{
			"doubleSided":true,
			"name":"Material_6",
			"pbrMetallicRoughness":{
				"baseColorFactor":[
					0.14126329123973846,
					0.18447498977184296,
					0.4564110338687897,
					1
				],
				"metallicFactor":0
			}
		}
	],
	"meshes":[
		{
			"name":"Part 1",
			"primitives":[
				{
					"attributes":{
						"POSITION":0,
						"NORMAL":1
					},
					"indices":2,
					"material":0
				},
				{
					"attributes":{
						"POSITION":3,
						"NORMAL":4
					},
					"indices":5,
					"material":1
				},
				{
					"attributes":{
						"POSITION":6,
						"NORMAL":7
					},
					"indices":8,
					"material":2
				},
				{
					"attributes":{
						"POSITION":9,
						"NORMAL":10
					},
					"indices":11,
					"material":3
				},
				{
					"attributes":{
						"POSITION":12,
						"NORMAL":13
					},
					"indices":14,
					"material":4
				}
			]
		},
		{
			"name":"Part 2",
			"primitives":[
				{
					"attributes":{
						"POSITION":15,
						"NORMAL":16
					},
					"indices":17,
					"material":5
				},
				{
					"attributes":{
						"POSITION":18,
						"NORMAL":19
					},
					"indices":20,
					"material":6
				}
			]
		}
	],
	"accessors":[
		{
			"bufferView":0,
			"componentType":5126,
			"count":6493,
			"max":[
				0.01518178079277277,
				0.07316132634878159,
				0.05864696577191353
			],
			"min":[
				0,
				-9.947598607690846e-17,
				0.0005499999970197678
			],
			"type":"VEC3"
		},
		{
			"bufferView":1,
			"componentType":5126,
			"count":6493,
			"type":"VEC3"
		},
		{
			"bufferView":2,
			"componentType":5123,
			"count":15153,
			"type":"SCALAR"
		},
		{
			"bufferView":3,
			"componentType":5126,
			"count":3665,
			"max":[
				0.015190890058875084,
				0.06344766914844513,
				0.058649998158216476
			],
			"min":[
				0.0010908906115218997,
				0.005832666996866465,
				2.4993339764743964e-15
			],
			"type":"VEC3"
		},
		{
			"bufferView":4,
			"componentType":5126,
			"count":3665,
			"type":"VEC3"
		},
		{
			"bufferView":5,
			"componentType":5123,
			"count":10323,
			"type":"SCALAR"
		},
		{
			"bufferView":6,
			"componentType":5126,
			"count":1203,
			"max":[
				0.012090890668332577,
				0.06673266738653183,
				0.0340462327003479
			],
			"min":[
				0.003090890822932124,
				0.005832666996866465,
				0.0037499999161809683
			],
			"type":"VEC3"
		},
		{
			"bufferView":7,
			"componentType":5126,
			"count":1203,
			"type":"VEC3"
		},
		{
			"bufferView":8,
			"componentType":5123,
			"count":3432,
			"type":"SCALAR"
		},
		{
			"bufferView":9,
			"componentType":5126,
			"count":526,
			"max":[
				0.010240891017019749,
				0.06620766967535019,
				0.0340462327003479
			],
			"min":[
				0.003953255247324705,
				0.008197667077183723,
				0.001449999981559813
			],
			"type":"VEC3"
		},
		{
			"bufferView":10,
			"componentType":5126,
			"count":526,
			"type":"VEC3"
		},
		{
			"bufferView":11,
			"componentType":5123,
			"count":1650,
			"type":"SCALAR"
		},
		{
			"bufferView":12,
			"componentType":5126,
			"count":1582,
			"max":[
				0.0080158906057477,
				0.06438266485929489,
				0.007550000213086605
			],
			"min":[
				0.005455890670418739,
				0.00999766681343317,
				0.0026700000744313
			],
			"type":"VEC3"
		},
		{
			"bufferView":13,
			"componentType":5126,
			"count":1582,
			"type":"VEC3"
		},
		{
			"bufferView":14,
			"componentType":5123,
			"count":2364,
			"type":"SCALAR"
		},
		{
			"bufferView":15,
			"componentType":5126,
			"count":31273,
			"max":[
				0.014076471328735352,
				0.06893827021121979,
				0.05864531546831131
			],
			"min":[
				0.0011352876899763942,
				0.004803215153515339,
				0.05793175473809242
			],
			"type":"VEC3"
		},
		{
			"bufferView":16,
			"componentType":5126,
			"count":31273,
			"type":"VEC3"
		},
		{
			"bufferView":17,
			"componentType":5123,
			"count":74604,
			"type":"SCALAR"
		},
		{
			"bufferView":18,
			"componentType":5126,
			"count":42,
			"max":[
				0.014325384981930256,
				0.0248813945800066,
				0.05863872542977333
			],
			"min":[
				0.009775384329259396,
				0.020681394264101982,
				0.05846141278743744
			],
			"type":"VEC3"
		},
		{
			"bufferView":19,
			"componentType":5126,
			"count":42,
			"type":"VEC3"
		},
		{
			"bufferView":20,
			"componentType":5123,
			"count":84,
			"type":"SCALAR"
		}
	],
	"bufferViews":[
		{
			"buffer":0,
			"byteLength":77916,
			"byteOffset":0,
			"target":34962
		},
		{
			"buffer":0,
			"byteLength":77916,
			"byteOffset":77916,
			"target":34962
		},
		{
			"buffer":0,
			"byteLength":30306,
			"byteOffset":155832,
			"target":34963
		},
		{
			"buffer":0,
			"byteLength":43980,
			"byteOffset":186140,
			"target":34962
		},
		{
			"buffer":0,
			"byteLength":43980,
			"byteOffset":230120,
			"target":34962
		},
		{
			"buffer":0,
			"byteLength":20646,
			"byteOffset":274100,
			"target":34963
		},
		{
			"buffer":0,
			"byteLength":14436,
			"byteOffset":294748,
			"target":34962
		},
		{
			"buffer":0,
			"byteLength":14436,
			"byteOffset":309184,
			"target":34962
		},
		{
			"buffer":0,
			"byteLength":6864,
			"byteOffset":323620,
			"target":34963
		},
		{
			"buffer":0,
			"byteLength":6312,
			"byteOffset":330484,
			"target":34962
		},
		{
			"buffer":0,
			"byteLength":6312,
			"byteOffset":336796,
			"target":34962
		},
		{
			"buffer":0,
			"byteLength":3300,
			"byteOffset":343108,
			"target":34963
		},
		{
			"buffer":0,
			"byteLength":18984,
			"byteOffset":346408,
			"target":34962
		},
		{
			"buffer":0,
			"byteLength":18984,
			"byteOffset":365392,
			"target":34962
		},
		{
			"buffer":0,
			"byteLength":4728,
			"byteOffset":384376,
			"target":34963
		},
		{
			"buffer":0,
			"byteLength":375276,
			"byteOffset":389104,
			"target":34962
		},
		{
			"buffer":0,
			"byteLength":375276,
			"byteOffset":764380,
			"target":34962
		},
		{
			"buffer":0,
			"byteLength":149208,
			"byteOffset":1139656,
			"target":34963
		},
		{
			"buffer":0,
			"byteLength":504,
			"byteOffset":1288864,
			"target":34962
		},
		{
			"buffer":0,
			"byteLength":504,
			"byteOffset":1289368,
			"target":34962
		},
		{
			"buffer":0,
			"byteLength":168,
			"byteOffset":1289872,
			"target":34963
		}
	],
	"buffers":[
		{
			"byteLength":1290040,
			"uri":"Component.bin"
		}
	]
}
