{
	"asset":{
		"generator":"Khronos glTF Blender I/O v5.2.40",
		"version":"2.0"
	},
	"scene":0,
	"scenes":[
		{
			"name":"Scene",
			"nodes":[
				0,
				1,
				2,
				3,
				4
			]
		}
	],
	"nodes":[
		{
			"name":"LEFT_SIDE",
			"scale":[
				0.0010000000474974513,
				0.0010000000474974513,
				0.0010000000474974513
			],
			"translation":[
				9.089037484955043e-05,
				0.03388194739818573,
				0.030933862552046776
			]
		},
		{
			"name":"MOUNTING_POINT",
			"scale":[
				0.0010000000474974513,
				0.0010000000474974513,
				0.0010000000474974513
			],
			"translation":[
				0.007543524727225304,
				0.04120705649256706,
				0
			]
		},
		{
			"mesh":0,
			"name":"Part 1"
		},
		{
			"mesh":1,
			"name":"Part 2"
		},
		{
			"name":"RIGHT_SIDE",
			"scale":[
				0.0010000000474974513,
				0.0010000000474974513,
				0.0010000000474974513
			],
			"translation":[
				0.015090890228748322,
				0.0317804291844368,
				0.03495119512081146
			]
		}
	],
	"materials":[
		{
			"doubleSided":true,
			"name":"Material_0.003",
			"pbrMetallicRoughness":{
				"baseColorFactor":[
					0.004776953253895044,
					0.005181516520678997,
					0.005181516520678997,
					1
				],
				"metallicFactor":0
			}
		},
		{
			"doubleSided":true,
			"name":"Material_1.003",
			"pbrMetallicRoughness":{
				"baseColorFactor":[
					0.577580451965332,
					0.5972017645835876,
					0.5520114302635193,
					1
				],
				"metallicFactor":0
			}
		},
		{
			"doubleSided":true,
			"name":"Material_2.003",
			"pbrMetallicRoughness":{
				"baseColorFactor":[
					0,
					0.33716362714767456,
					0.07421357184648514,
					1
				],
				"metallicFactor":0
			}
		},
		{
			"doubleSided":true,
			"name":"Material_3.003",
			"pbrMetallicRoughness":{
				"baseColorFactor":[
					0.8227857351303101,
					0.8307698965072632,
					0.8069522380828857,
					1
				],
				"metallicFactor":0
			}
		},
		{
			"doubleSided":true,
			"name":"Material_4.003",
			"pbrMetallicRoughness":{
				"baseColorFactor":[
					0.09989872574806213,
					0.12743768095970154,
					0.16202937066555023,
					1
				],
				"metallicFactor":0
			}
		},
		{
			"doubleSided":true,
			"name":"Material_5.003",
			"pbrMetallicRoughness":{
				"baseColorFactor":[
					0.8227857351303101,
					0.8307698965072632,
					0.8069522380828857,
					1
				],
				"metallicFactor":0
			}
		},
		{
			"doubleSided":true,
			"name":"Material_6.002",
			"pbrMetallicRoughness":{
				"baseColorFactor":[
					0.004776953253895044,
					0.005181516520678997,
					0.005181516520678997,
					1
				],
				"metallicFactor":0
			}
		}
	],
	"meshes":[
		{
			"name":"Part 1.003",
			"primitives":[
				{
					"attributes":{
						"POSITION":0,
						"NORMAL":1
					},
					"indices":2,
					"material":0
				},
				{
					"attributes":{
						"POSITION":3,
						"NORMAL":4
					},
					"indices":5,
					"material":1
				},
				{
					"attributes":{
						"POSITION":6,
						"NORMAL":7
					},
					"indices":8,
					"material":2
				},
				{
					"attributes":{
						"POSITION":9,
						"NORMAL":10
					},
					"indices":11,
					"material":3
				},
				{
					"attributes":{
						"POSITION":12,
						"NORMAL":13
					},
					"indices":14,
					"material":4
				}
			]
		},
		{
			"name":"Part 2.003",
			"primitives":[
				{
					"attributes":{
						"POSITION":15,
						"NORMAL":16
					},
					"indices":17,
					"material":5
				},
				{
					"attributes":{
						"POSITION":18,
						"NORMAL":19
					},
					"indices":20,
					"material":6
				}
			]
		}
	],
	"accessors":[
		{
			"bufferView":0,
			"componentType":5126,
			"count":424,
			"max":[
				0.010150999762117863,
				0.0659250020980835,
				0.010649999603629112
			],
			"min":[
				0.0038999998942017555,
				0.008214999921619892,
				0.0011500000255182385
			],
			"type":"VEC3"
		},
		{
			"bufferView":1,
			"componentType":5126,
			"count":424,
			"type":"VEC3"
		},
		{
			"bufferView":2,
			"componentType":5123,
			"count":1404,
			"type":"SCALAR"
		},
		{
			"bufferView":3,
			"componentType":5126,
			"count":1160,
			"max":[
				0.007925000041723251,
				0.06440000236034393,
				0.006850000005215406
			],
			"min":[
				0.005365000106394291,
				0.010014999657869339,
				0.0018482999876141548
			],
			"type":"VEC3"
		},
		{
			"bufferView":4,
			"componentType":5126,
			"count":1160,
			"type":"VEC3"
		},
		{
			"bufferView":5,
			"componentType":5123,
			"count":1740,
			"type":"SCALAR"
		},
		{
			"bufferView":6,
			"componentType":5126,
			"count":372,
			"max":[
				0.004000999964773655,
				0.06875000149011612,
				0.05575000122189522
			],
			"min":[
				0.003000000026077032,
				0.004449999891221523,
				0.0033499998971819878
			],
			"type":"VEC3"
		},
		{
			"bufferView":7,
			"componentType":5126,
			"count":372,
			"type":"VEC3"
		},
		{
			"bufferView":8,
			"componentType":5123,
			"count":972,
			"type":"SCALAR"
		},
		{
			"bufferView":9,
			"componentType":5126,
			"count":2326,
			"max":[
				0.01510000042617321,
				0.06341318041086197,
				0.05828482285141945
			],
			"min":[
				0.0009447934571653605,
				0.008212132379412651,
				-1.0658141129045731e-17
			],
			"type":"VEC3"
		},
		{
			"bufferView":10,
			"componentType":5126,
			"count":2326,
			"type":"VEC3"
		},
		{
			"bufferView":11,
			"componentType":5123,
			"count":6900,
			"type":"SCALAR"
		},
		{
			"bufferView":12,
			"componentType":5126,
			"count":1656,
			"max":[
				0.014999999664723873,
				0.07320000231266022,
				0.05824696272611618
			],
			"min":[
				0,
				0,
				0.004749999847263098
			],
			"type":"VEC3"
		},
		{
			"bufferView":13,
			"componentType":5126,
			"count":1656,
			"type":"VEC3"
		},
		{
			"bufferView":14,
			"componentType":5123,
			"count":4092,
			"type":"SCALAR"
		},
		{
			"bufferView":15,
			"componentType":5126,
			"count":38906,
			"max":[
				0.01393390167504549,
				0.06861383467912674,
				0.058269113302230835
			],
			"min":[
				0.0009304631385020912,
				0.004517444409430027,
				0.05756361410021782
			],
			"type":"VEC3"
		},
		{
			"bufferView":16,
			"componentType":5126,
			"count":38906,
			"type":"VEC3"
		},
		{
			"bufferView":17,
			"componentType":5123,
			"count":92742,
			"type":"SCALAR"
		},
		{
			"bufferView":18,
			"componentType":5126,
			"count":41,
			"max":[
				0.01392608042806387,
				0.02496238611638546,
				0.05825967341661453
			],
			"min":[
				0.009376080706715584,
				0.020410072058439255,
				0.05807529762387276
			],
			"type":"VEC3"
		},
		{
			"bufferView":19,
			"componentType":5126,
			"count":41,
			"type":"VEC3"
		},
		{
			"bufferView":20,
			"componentType":5123,
			"count":84,
			"type":"SCALAR"
		}
	],
	"bufferViews":[
		{
			"buffer":0,
			"byteLength":5088,
			"byteOffset":0,
			"target":34962
		},
		{
			"buffer":0,
			"byteLength":5088,
			"byteOffset":5088,
			"target":34962
		},
		{
			"buffer":0,
			"byteLength":2808,
			"byteOffset":10176,
			"target":34963
		},
		{
			"buffer":0,
			"byteLength":13920,
			"byteOffset":12984,
			"target":34962
		},
		{
			"buffer":0,
			"byteLength":13920,
			"byteOffset":26904,
			"target":34962
		},
		{
			"buffer":0,
			"byteLength":3480,
			"byteOffset":40824,
			"target":34963
		},
		{
			"buffer":0,
			"byteLength":4464,
			"byteOffset":44304,
			"target":34962
		},
		{
			"buffer":0,
			"byteLength":4464,
			"byteOffset":48768,
			"target":34962
		},
		{
			"buffer":0,
			"byteLength":1944,
			"byteOffset":53232,
			"target":34963
		},
		{
			"buffer":0,
			"byteLength":27912,
			"byteOffset":55176,
			"target":34962
		},
		{
			"buffer":0,
			"byteLength":27912,
			"byteOffset":83088,
			"target":34962
		},
		{
			"buffer":0,
			"byteLength":13800,
			"byteOffset":111000,
			"target":34963
		},
		{
			"buffer":0,
			"byteLength":19872,
			"byteOffset":124800,
			"target":34962
		},
		{
			"buffer":0,
			"byteLength":19872,
			"byteOffset":144672,
			"target":34962
		},
		{
			"buffer":0,
			"byteLength":8184,
			"byteOffset":164544,
			"target":34963
		},
		{
			"buffer":0,
			"byteLength":466872,
			"byteOffset":172728,
			"target":34962
		},
		{
			"buffer":0,
			"byteLength":466872,
			"byteOffset":639600,
			"target":34962
		},
		{
			"buffer":0,
			"byteLength":185484,
			"byteOffset":1106472,
			"target":34963
		},
		{
			"buffer":0,
			"byteLength":492,
			"byteOffset":1291956,
			"target":34962
		},
		{
			"buffer":0,
			"byteLength":492,
			"byteOffset":1292448,
			"target":34962
		},
		{
			"buffer":0,
			"byteLength":168,
			"byteOffset":1292940,
			"target":34963
		}
	],
	"buffers":[
		{
			"byteLength":1293108,
			"uri":"Component.bin"
		}
	]
}
