{
	"asset":{
		"generator":"Khronos glTF Blender I/O v5.2.40",
		"version":"2.0"
	},
	"scene":0,
	"scenes":[
		{
			"name":"Scene",
			"nodes":[
				0,
				1,
				2,
				3,
				4,
				5
			]
		}
	],
	"nodes":[
		{
			"name":"LEFT_SIDE",
			"scale":[
				0.0010000000474974513,
				0.0010000000474974513,
				0.0010000000474974513
			],
			"translation":[
				-0.0005904635181650519,
				-0.029889116063714027,
				-0.0609000027179718
			]
		},
		{
			"name":"MOUNTING_POINT",
			"scale":[
				0.0010000000474974513,
				0.0010000000474974513,
				0.0010000000474974513
			],
			"translation":[
				-0.0017776493914425373,
				-0.06641111522912979,
				-0.025433331727981567
			]
		},
		{
			"mesh":0,
			"name":"Part 1"
		},
		{
			"mesh":1,
			"name":"Part 2"
		},
		{
			"mesh":2,
			"name":"Part 3"
		},
		{
			"name":"RIGHT_SIDE",
			"scale":[
				0.0010000000474974513,
				0.0010000000474974513,
				0.0010000000474974513
			],
			"translation":[
				-0.0005614570109173656,
				-0.029508506879210472,
				0.008700000122189522
			]
		}
	],
	"materials":[
		{
			"doubleSided":true,
			"name":"Material_0",
			"pbrMetallicRoughness":{
				"baseColorFactor":[
					0.6577109098434448,
					0.6939077973365784,
					0.7087041139602661,
					1
				],
				"metallicFactor":0
			}
		},
		{
			"doubleSided":true,
			"name":"Material_1",
			"pbrMetallicRoughness":{
				"baseColorFactor":[
					0.6899999976158142,
					0.6899999976158142,
					0.6899999976158142,
					1
				],
				"metallicFactor":0
			}
		},
		{
			"doubleSided":true,
			"name":"Material_2",
			"pbrMetallicRoughness":{
				"baseColorFactor":[
					1,
					1,
					0.6038273572921753,
					1
				],
				"metallicFactor":0
			}
		},
		{
			"doubleSided":true,
			"name":"Material_3",
			"pbrMetallicRoughness":{
				"baseColorFactor":[
					0,
					0,
					0,
					1
				],
				"metallicFactor":0
			}
		},
		{
			"doubleSided":true,
			"name":"Material_4",
			"pbrMetallicRoughness":{
				"baseColorFactor":[
					0.11953842639923096,
					0.31854677200317383,
					0.04373503103852272,
					1
				],
				"metallicFactor":0
			}
		},
		{
			"doubleSided":true,
			"name":"Material_5",
			"pbrMetallicRoughness":{
				"baseColorFactor":[
					0.7835373878479004,
					0.8227856159210205,
					0.8468737006187439,
					1
				],
				"metallicFactor":0
			}
		},
		{
			"doubleSided":true,
			"name":"Material_6",
			"pbrMetallicRoughness":{
				"baseColorFactor":[
					0.03310476616024971,
					0.03310476616024971,
					0.31854677200317383,
					1
				],
				"metallicFactor":0
			}
		},
		{
			"doubleSided":true,
			"name":"Material_7",
			"pbrMetallicRoughness":{
				"baseColorFactor":[
					1,
					0.27383843064308167,
					0.3162173628807068,
					1
				],
				"metallicFactor":0
			}
		},
		{
			"doubleSided":true,
			"name":"Material_8",
			"pbrMetallicRoughness":{
				"baseColorFactor":[
					0.514766275882721,
					0.013782561756670475,
					0.0052084787748754025,
					1
				],
				"metallicFactor":0
			}
		},
		{
			"doubleSided":true,
			"name":"Material_9",
			"pbrMetallicRoughness":{
				"baseColorFactor":[
					0.6038273572921753,
					0.31854677200317383,
					0.6038273572921753,
					1
				],
				"metallicFactor":0
			}
		},
		{
			"doubleSided":true,
			"name":"Material_10",
			"pbrMetallicRoughness":{
				"baseColorFactor":[
					0.6577109098434448,
					0.6939077973365784,
					0.7087041139602661,
					1
				],
				"metallicFactor":0
			}
		},
		{
			"doubleSided":true,
			"name":"Material_11",
			"pbrMetallicRoughness":{
				"baseColorFactor":[
					0.6899999976158142,
					0.6899999976158142,
					0.6899999976158142,
					1
				],
				"metallicFactor":0
			}
		},
		{
			"doubleSided":true,
			"name":"Material_12",
			"pbrMetallicRoughness":{
				"baseColorFactor":[
					0.006941255647689104,
					0.00854038167744875,
					0.006571403704583645,
					1
				],
				"metallicFactor":0
			}
		}
	],
	"meshes":[
		{
			"name":"Part 1",
			"primitives":[
				{
					"attributes":{
						"POSITION":0,
						"NORMAL":1
					},
					"indices":2,
					"material":0
				},
				{
					"attributes":{
						"POSITION":3,
						"NORMAL":4
					},
					"indices":5,
					"material":1
				},
				{
					"attributes":{
						"POSITION":6,
						"NORMAL":7
					},
					"indices":8,
					"material":2
				},
				{
					"attributes":{
						"POSITION":9,
						"NORMAL":10
					},
					"indices":11,
					"material":3
				},
				{
					"attributes":{
						"POSITION":12,
						"NORMAL":13
					},
					"indices":14,
					"material":4
				},
				{
					"attributes":{
						"POSITION":15,
						"NORMAL":16
					},
					"indices":17,
					"material":5
				},
				{
					"attributes":{
						"POSITION":18,
						"NORMAL":19
					},
					"indices":20,
					"material":6
				},
				{
					"attributes":{
						"POSITION":21,
						"NORMAL":22
					},
					"indices":23,
					"material":7
				},
				{
					"attributes":{
						"POSITION":24,
						"NORMAL":25
					},
					"indices":26,
					"material":8
				},
				{
					"attributes":{
						"POSITION":27,
						"NORMAL":28
					},
					"indices":29,
					"material":9
				}
			]
		},
		{
			"name":"Part 2",
			"primitives":[
				{
					"attributes":{
						"POSITION":30,
						"NORMAL":31
					},
					"indices":32,
					"material":10
				},
				{
					"attributes":{
						"POSITION":33,
						"NORMAL":34
					},
					"indices":35,
					"material":11
				}
			]
		},
		{
			"name":"Part 3",
			"primitives":[
				{
					"attributes":{
						"POSITION":36,
						"NORMAL":37
					},
					"indices":38,
					"material":12
				}
			]
		}
	],
	"accessors":[
		{
			"bufferView":0,
			"componentType":5126,
			"count":430072,
			"max":[
				0.04399999976158142,
				0.006499927956610918,
				0.008700001053512096
			],
			"min":[
				-0.04399999976158142,
				-0.0632999986410141,
				-0.0608999989926815
			],
			"type":"VEC3"
		},
		{
			"bufferView":1,
			"componentType":5126,
			"count":430072,
			"type":"VEC3"
		},
		{
			"bufferView":2,
			"componentType":5125,
			"count":1351290,
			"type":"SCALAR"
		},
		{
			"bufferView":3,
			"componentType":5126,
			"count":333307,
			"max":[
				0.04206940531730652,
				0.008703438565135002,
				0.008500000461935997
			],
			"min":[
				-0.04224943369626999,
				-0.06276523321866989,
				-0.0608999989926815
			],
			"type":"VEC3"
		},
		{
			"bufferView":4,
			"componentType":5126,
			"count":333307,
			"type":"VEC3"
		},
		{
			"bufferView":5,
			"componentType":5125,
			"count":1085553,
			"type":"SCALAR"
		},
		{
			"bufferView":6,
			"componentType":5126,
			"count":60869,
			"max":[
				0.04044995829463005,
				-0.020515795797109604,
				0.00430382089689374
			],
			"min":[
				-0.040449999272823334,
				-0.049300000071525574,
				-0.058149535208940506
			],
			"type":"VEC3"
		},
		{
			"bufferView":7,
			"componentType":5126,
			"count":60869,
			"type":"VEC3"
		},
		{
			"bufferView":8,
			"componentType":5123,
			"count":218037,
			"type":"SCALAR"
		},
		{
			"bufferView":9,
			"componentType":5126,
			"count":27398,
			"max":[
				0.04245099052786827,
				0.009180429391562939,
				0.007058790419250727
			],
			"min":[
				-0.04259999841451645,
				-0.0628499984741211,
				-0.05889999866485596
			],
			"type":"VEC3"
		},
		{
			"bufferView":10,
			"componentType":5126,
			"count":27398,
			"type":"VEC3"
		},
		{
			"bufferView":11,
			"componentType":5123,
			"count":71007,
			"type":"SCALAR"
		},
		{
			"bufferView":12,
			"componentType":5126,
			"count":24,
			"max":[
				-0.009081654250621796,
				-0.00038874076562933624,
				0.00035525430575944483
			],
			"min":[
				-0.013425054028630257,
				-0.000722387689165771,
				-0.05768836289644241
			],
			"type":"VEC3"
		},
		{
			"bufferView":13,
			"componentType":5126,
			"count":24,
			"type":"VEC3"
		},
		{
			"bufferView":14,
			"componentType":5123,
			"count":48,
			"type":"SCALAR"
		},
		{
			"bufferView":15,
			"componentType":5126,
			"count":6914,
			"max":[
				0.01759999990463257,
				-0.006300000008195639,
				0.008500000461935997
			],
			"min":[
				-0.00860000029206276,
				-0.05169999971985817,
				-0.05979999899864197
			],
			"type":"VEC3"
		},
		{
			"bufferView":16,
			"componentType":5126,
			"count":6914,
			"type":"VEC3"
		},
		{
			"bufferView":17,
			"componentType":5123,
			"count":31326,
			"type":"SCALAR"
		},
		{
			"bufferView":18,
			"componentType":5126,
			"count":4,
			"max":[
				-0.013030199334025383,
				-0.04377565160393715,
				9.999999747378752e-05
			],
			"min":[
				-0.013672913424670696,
				-0.043914612382650375,
				7.999999797903001e-05
			],
			"type":"VEC3"
		},
		{
			"bufferView":19,
			"componentType":5126,
			"count":4,
			"type":"VEC3"
		},
		{
			"bufferView":20,
			"componentType":5123,
			"count":6,
			"type":"SCALAR"
		},
		{
			"bufferView":21,
			"componentType":5126,
			"count":15,
			"max":[
				-0.013030199334025383,
				-0.044207070022821426,
				-0.001019999966956675
			],
			"min":[
				-0.013388924300670624,
				-0.04736590385437012,
				-0.002899999963119626
			],
			"type":"VEC3"
		},
		{
			"bufferView":22,
			"componentType":5126,
			"count":15,
			"type":"VEC3"
		},
		{
			"bufferView":23,
			"componentType":5123,
			"count":24,
			"type":"SCALAR"
		},
		{
			"bufferView":24,
			"componentType":5126,
			"count":7869,
			"max":[
				0.016699999570846558,
				-0.0020000021904706955,
				-0.000299999926937744
			],
			"min":[
				-0.023803573101758957,
				-0.051499996334314346,
				-0.051899999380111694
			],
			"type":"VEC3"
		},
		{
			"bufferView":25,
			"componentType":5126,
			"count":7869,
			"type":"VEC3"
		},
		{
			"bufferView":26,
			"componentType":5123,
			"count":12693,
			"type":"SCALAR"
		},
		{
			"bufferView":27,
			"componentType":5126,
			"count":41,
			"max":[
				-0.007277334108948708,
				-0.01620480604469776,
				-0.05847806856036186
			],
			"min":[
				-0.00804823823273182,
				-0.016522573307156563,
				-0.058800000697374344
			],
			"type":"VEC3"
		},
		{
			"bufferView":28,
			"componentType":5126,
			"count":41,
			"type":"VEC3"
		},
		{
			"bufferView":29,
			"componentType":5123,
			"count":114,
			"type":"SCALAR"
		},
		{
			"bufferView":30,
			"componentType":5126,
			"count":29,
			"max":[
				-0.024069122970104218,
				-0.017751814797520638,
				0.007199999876320362
			],
			"min":[
				-0.02687222696840763,
				-0.03595646098256111,
				-0.05939999967813492
			],
			"type":"VEC3"
		},
		{
			"bufferView":31,
			"componentType":5126,
			"count":29,
			"type":"VEC3"
		},
		{
			"bufferView":32,
			"componentType":5123,
			"count":36,
			"type":"SCALAR"
		},
		{
			"bufferView":33,
			"componentType":5126,
			"count":29,
			"max":[
				-0.024069122970104218,
				-0.017751814797520638,
				0.007199999876320362
			],
			"min":[
				-0.02687222696840763,
				-0.03595646098256111,
				-0.05939999967813492
			],
			"type":"VEC3"
		},
		{
			"bufferView":34,
			"componentType":5126,
			"count":29,
			"type":"VEC3"
		},
		{
			"bufferView":35,
			"componentType":5123,
			"count":36,
			"type":"SCALAR"
		},
		{
			"bufferView":36,
			"componentType":5126,
			"count":8835,
			"max":[
				-0.0018519015284255147,
				0.011403366923332214,
				0.008100000210106373
			],
			"min":[
				-0.010149868205189705,
				0.0033548164647072554,
				-0.060499999672174454
			],
			"type":"VEC3"
		},
		{
			"bufferView":37,
			"componentType":5126,
			"count":8835,
			"type":"VEC3"
		},
		{
			"bufferView":38,
			"componentType":5123,
			"count":34476,
			"type":"SCALAR"
		}
	],
	"bufferViews":[
		{
			"buffer":0,
			"byteLength":5160864,
			"byteOffset":0,
			"target":34962
		},
		{
			"buffer":0,
			"byteLength":5160864,
			"byteOffset":5160864,
			"target":34962
		},
		{
			"buffer":0,
			"byteLength":5405160,
			"byteOffset":10321728,
			"target":34963
		},
		{
			"buffer":0,
			"byteLength":3999684,
			"byteOffset":15726888,
			"target":34962
		},
		{
			"buffer":0,
			"byteLength":3999684,
			"byteOffset":19726572,
			"target":34962
		},
		{
			"buffer":0,
			"byteLength":4342212,
			"byteOffset":23726256,
			"target":34963
		},
		{
			"buffer":0,
			"byteLength":730428,
			"byteOffset":28068468,
			"target":34962
		},
		{
			"buffer":0,
			"byteLength":730428,
			"byteOffset":28798896,
			"target":34962
		},
		{
			"buffer":0,
			"byteLength":436074,
			"byteOffset":29529324,
			"target":34963
		},
		{
			"buffer":0,
			"byteLength":328776,
			"byteOffset":29965400,
			"target":34962
		},
		{
			"buffer":0,
			"byteLength":328776,
			"byteOffset":30294176,
			"target":34962
		},
		{
			"buffer":0,
			"byteLength":142014,
			"byteOffset":30622952,
			"target":34963
		},
		{
			"buffer":0,
			"byteLength":288,
			"byteOffset":30764968,
			"target":34962
		},
		{
			"buffer":0,
			"byteLength":288,
			"byteOffset":30765256,
			"target":34962
		},
		{
			"buffer":0,
			"byteLength":96,
			"byteOffset":30765544,
			"target":34963
		},
		{
			"buffer":0,
			"byteLength":82968,
			"byteOffset":30765640,
			"target":34962
		},
		{
			"buffer":0,
			"byteLength":82968,
			"byteOffset":30848608,
			"target":34962
		},
		{
			"buffer":0,
			"byteLength":62652,
			"byteOffset":30931576,
			"target":34963
		},
		{
			"buffer":0,
			"byteLength":48,
			"byteOffset":30994228,
			"target":34962
		},
		{
			"buffer":0,
			"byteLength":48,
			"byteOffset":30994276,
			"target":34962
		},
		{
			"buffer":0,
			"byteLength":12,
			"byteOffset":30994324,
			"target":34963
		},
		{
			"buffer":0,
			"byteLength":180,
			"byteOffset":30994336,
			"target":34962
		},
		{
			"buffer":0,
			"byteLength":180,
			"byteOffset":30994516,
			"target":34962
		},
		{
			"buffer":0,
			"byteLength":48,
			"byteOffset":30994696,
			"target":34963
		},
		{
			"buffer":0,
			"byteLength":94428,
			"byteOffset":30994744,
			"target":34962
		},
		{
			"buffer":0,
			"byteLength":94428,
			"byteOffset":31089172,
			"target":34962
		},
		{
			"buffer":0,
			"byteLength":25386,
			"byteOffset":31183600,
			"target":34963
		},
		{
			"buffer":0,
			"byteLength":492,
			"byteOffset":31208988,
			"target":34962
		},
		{
			"buffer":0,
			"byteLength":492,
			"byteOffset":31209480,
			"target":34962
		},
		{
			"buffer":0,
			"byteLength":228,
			"byteOffset":31209972,
			"target":34963
		},
		{
			"buffer":0,
			"byteLength":348,
			"byteOffset":31210200,
			"target":34962
		},
		{
			"buffer":0,
			"byteLength":348,
			"byteOffset":31210548,
			"target":34962
		},
		{
			"buffer":0,
			"byteLength":72,
			"byteOffset":31210896,
			"target":34963
		},
		{
			"buffer":0,
			"byteLength":348,
			"byteOffset":31210968,
			"target":34962
		},
		{
			"buffer":0,
			"byteLength":348,
			"byteOffset":31211316,
			"target":34962
		},
		{
			"buffer":0,
			"byteLength":72,
			"byteOffset":31211664,
			"target":34963
		},
		{
			"buffer":0,
			"byteLength":106020,
			"byteOffset":31211736,
			"target":34962
		},
		{
			"buffer":0,
			"byteLength":106020,
			"byteOffset":31317756,
			"target":34962
		},
		{
			"buffer":0,
			"byteLength":68952,
			"byteOffset":31423776,
			"target":34963
		}
	],
	"buffers":[
		{
			"byteLength":31492728,
			"uri":"component.bin"
		}
	]
}
