{
	"asset":{
		"generator":"Khronos glTF Blender I/O v5.2.40",
		"version":"2.0"
	},
	"scene":0,
	"scenes":[
		{
			"name":"Scene",
			"nodes":[
				0,
				1,
				2,
				3
			]
		}
	],
	"nodes":[
		{
			"name":"LEFT_SIDE",
			"scale":[
				0.0010000000474974513,
				0.0010000000474974513,
				0.0010000000474974513
			],
			"translation":[
				0,
				0.06545236706733704,
				0.07112500071525574
			]
		},
		{
			"name":"MOUNTING_POINT",
			"scale":[
				0.0010000000474974513,
				0.0010000000474974513,
				0.0010000001639127731
			],
			"translation":[
				0.03500000014901161,
				0.06350000202655792,
				-0.0029999995604157448
			]
		},
		{
			"mesh":0,
			"name":"Part 1"
		},
		{
			"name":"RIGHT_SIDE",
			"scale":[
				0.0010000000474974513,
				0.0010000000474974513,
				0.0010000000474974513
			],
			"translation":[
				0.07000000029802322,
				0.06545236706733704,
				0.07112500071525574
			]
		}
	],
	"materials":[
		{
			"doubleSided":true,
			"name":"Material_0",
			"pbrMetallicRoughness":{
				"baseColorFactor":[
					0.49102088809013367,
					0.5520114898681641,
					0.5775805711746216,
					1
				],
				"metallicFactor":0
			}
		},
		{
			"doubleSided":true,
			"name":"Material_1",
			"pbrMetallicRoughness":{
				"baseColorFactor":[
					0.9559735059738159,
					0.23074007034301758,
					0.024157634004950523,
					1
				],
				"metallicFactor":0
			}
		},
		{
			"doubleSided":true,
			"name":"Material_2",
			"pbrMetallicRoughness":{
				"baseColorFactor":[
					0.2746773362159729,
					0.3049873411655426,
					0.3185468018054962,
					1
				],
				"metallicFactor":0
			}
		},
		{
			"doubleSided":true,
			"name":"Material_3",
			"pbrMetallicRoughness":{
				"baseColorFactor":[
					0.3762621581554413,
					0.3762621581554413,
					0.3762621581554413,
					1
				],
				"metallicFactor":0
			}
		},
		{
			"doubleSided":true,
			"name":"Material_4",
			"pbrMetallicRoughness":{
				"baseColorFactor":[
					0.20507876574993134,
					0.20507876574993134,
					0.24228115379810333,
					1
				],
				"metallicFactor":0
			}
		},
		{
			"doubleSided":true,
			"name":"Material_5",
			"pbrMetallicRoughness":{
				"baseColorFactor":[
					0.6444798111915588,
					0.6444798111915588,
					0.5775805711746216,
					1
				],
				"metallicFactor":0
			}
		},
		{
			"doubleSided":true,
			"name":"Material_6",
			"pbrMetallicRoughness":{
				"baseColorFactor":[
					0.6583749651908875,
					0.6938719153404236,
					0.7083759307861328,
					1
				],
				"metallicFactor":0
			}
		},
		{
			"doubleSided":true,
			"name":"Material_7",
			"pbrMetallicRoughness":{
				"baseColorFactor":[
					0.0802198275923729,
					0.0802198275923729,
					0.0802198275923729,
					1
				],
				"metallicFactor":0
			}
		},
		{
			"doubleSided":true,
			"name":"Material_8",
			"pbrMetallicRoughness":{
				"baseColorFactor":[
					0.6899999976158142,
					0.6899999976158142,
					0.6899999976158142,
					1
				],
				"metallicFactor":0
			}
		}
	],
	"meshes":[
		{
			"name":"Part 1",
			"primitives":[
				{
					"attributes":{
						"POSITION":0,
						"NORMAL":1
					},
					"indices":2,
					"material":0
				},
				{
					"attributes":{
						"POSITION":3,
						"NORMAL":4
					},
					"indices":5,
					"material":1
				},
				{
					"attributes":{
						"POSITION":6,
						"NORMAL":7
					},
					"indices":8,
					"material":2
				},
				{
					"attributes":{
						"POSITION":9,
						"NORMAL":10
					},
					"indices":11,
					"material":3
				},
				{
					"attributes":{
						"POSITION":12,
						"NORMAL":13
					},
					"indices":14,
					"material":4
				},
				{
					"attributes":{
						"POSITION":15,
						"NORMAL":16
					},
					"indices":17,
					"material":5
				},
				{
					"attributes":{
						"POSITION":18,
						"NORMAL":19
					},
					"indices":20,
					"material":6
				},
				{
					"attributes":{
						"POSITION":21,
						"NORMAL":22
					},
					"indices":23,
					"material":7
				},
				{
					"attributes":{
						"POSITION":24,
						"NORMAL":25
					},
					"indices":26,
					"material":8
				}
			]
		}
	],
	"accessors":[
		{
			"bufferView":0,
			"componentType":5126,
			"count":6152,
			"max":[
				0.061000000685453415,
				0.10760366916656494,
				0.009999999776482582
			],
			"min":[
				0.008999999612569809,
				0,
				-2.895461692691638e-16
			],
			"type":"VEC3"
		},
		{
			"bufferView":1,
			"componentType":5126,
			"count":6152,
			"type":"VEC3"
		},
		{
			"bufferView":2,
			"componentType":5123,
			"count":14976,
			"type":"SCALAR"
		},
		{
			"bufferView":3,
			"componentType":5126,
			"count":1001,
			"max":[
				0.05939999967813492,
				0.09520236402750015,
				0.13191479444503784
			],
			"min":[
				0.05732500180602074,
				0.07470236718654633,
				0.13004499673843384
			],
			"type":"VEC3"
		},
		{
			"bufferView":4,
			"componentType":5126,
			"count":1001,
			"type":"VEC3"
		},
		{
			"bufferView":5,
			"componentType":5123,
			"count":2070,
			"type":"SCALAR"
		},
		{
			"bufferView":6,
			"componentType":5126,
			"count":8598,
			"max":[
				0.06456000357866287,
				0.13035236299037933,
				0.13210000097751617
			],
			"min":[
				0.011900000274181366,
				0.0005523652071133256,
				0.10899999737739563
			],
			"type":"VEC3"
		},
		{
			"bufferView":7,
			"componentType":5126,
			"count":8598,
			"type":"VEC3"
		},
		{
			"bufferView":8,
			"componentType":5123,
			"count":20634,
			"type":"SCALAR"
		},
		{
			"bufferView":9,
			"componentType":5126,
			"count":2538,
			"max":[
				0.07000000029802322,
				0.13045236468315125,
				0.13224999606609344
			],
			"min":[
				0,
				0.00045236520236358047,
				0.009999999776482582
			],
			"type":"VEC3"
		},
		{
			"bufferView":10,
			"componentType":5126,
			"count":2538,
			"type":"VEC3"
		},
		{
			"bufferView":11,
			"componentType":5123,
			"count":8874,
			"type":"SCALAR"
		},
		{
			"bufferView":12,
			"componentType":5126,
			"count":16,
			"max":[
				0.04699999839067459,
				0.07095236331224442,
				0.13214999437332153
			],
			"min":[
				0.04399999976158142,
				0.05995236337184906,
				0.13214999437332153
			],
			"type":"VEC3"
		},
		{
			"bufferView":13,
			"componentType":5126,
			"count":16,
			"type":"VEC3"
		},
		{
			"bufferView":14,
			"componentType":5123,
			"count":24,
			"type":"SCALAR"
		},
		{
			"bufferView":15,
			"componentType":5126,
			"count":1295,
			"max":[
				0.050196465104818344,
				0.12298421561717987,
				0.12695173919200897
			],
			"min":[
				0.013078535906970501,
				0.007920515723526478,
				0.11334999650716782
			],
			"type":"VEC3"
		},
		{
			"bufferView":16,
			"componentType":5126,
			"count":1295,
			"type":"VEC3"
		},
		{
			"bufferView":17,
			"componentType":5123,
			"count":1968,
			"type":"SCALAR"
		},
		{
			"bufferView":18,
			"componentType":5126,
			"count":791,
			"max":[
				0.07000000029802322,
				0.13045236468315125,
				0.13294999301433563
			],
			"min":[
				0,
				0.00045236520236358047,
				0.13224999606609344
			],
			"type":"VEC3"
		},
		{
			"bufferView":19,
			"componentType":5126,
			"count":791,
			"type":"VEC3"
		},
		{
			"bufferView":20,
			"componentType":5123,
			"count":1932,
			"type":"SCALAR"
		},
		{
			"bufferView":21,
			"componentType":5126,
			"count":1854,
			"max":[
				0.06800000369548798,
				0.12965236604213715,
				0.1274999976158142
			],
			"min":[
				0.0020000000949949026,
				0.0012523651821538806,
				0.016499999910593033
			],
			"type":"VEC3"
		},
		{
			"bufferView":22,
			"componentType":5126,
			"count":1854,
			"type":"VEC3"
		},
		{
			"bufferView":23,
			"componentType":5123,
			"count":3606,
			"type":"SCALAR"
		},
		{
			"bufferView":24,
			"componentType":5126,
			"count":7344,
			"max":[
				0.06800000369548798,
				0.13045236468315125,
				0.1274999976158142
			],
			"min":[
				0.0020000000949949026,
				0.00045236520236358047,
				0.016499999910593033
			],
			"type":"VEC3"
		},
		{
			"bufferView":25,
			"componentType":5126,
			"count":7344,
			"type":"VEC3"
		},
		{
			"bufferView":26,
			"componentType":5123,
			"count":11016,
			"type":"SCALAR"
		}
	],
	"bufferViews":[
		{
			"buffer":0,
			"byteLength":73824,
			"byteOffset":0,
			"target":34962
		},
		{
			"buffer":0,
			"byteLength":73824,
			"byteOffset":73824,
			"target":34962
		},
		{
			"buffer":0,
			"byteLength":29952,
			"byteOffset":147648,
			"target":34963
		},
		{
			"buffer":0,
			"byteLength":12012,
			"byteOffset":177600,
			"target":34962
		},
		{
			"buffer":0,
			"byteLength":12012,
			"byteOffset":189612,
			"target":34962
		},
		{
			"buffer":0,
			"byteLength":4140,
			"byteOffset":201624,
			"target":34963
		},
		{
			"buffer":0,
			"byteLength":103176,
			"byteOffset":205764,
			"target":34962
		},
		{
			"buffer":0,
			"byteLength":103176,
			"byteOffset":308940,
			"target":34962
		},
		{
			"buffer":0,
			"byteLength":41268,
			"byteOffset":412116,
			"target":34963
		},
		{
			"buffer":0,
			"byteLength":30456,
			"byteOffset":453384,
			"target":34962
		},
		{
			"buffer":0,
			"byteLength":30456,
			"byteOffset":483840,
			"target":34962
		},
		{
			"buffer":0,
			"byteLength":17748,
			"byteOffset":514296,
			"target":34963
		},
		{
			"buffer":0,
			"byteLength":192,
			"byteOffset":532044,
			"target":34962
		},
		{
			"buffer":0,
			"byteLength":192,
			"byteOffset":532236,
			"target":34962
		},
		{
			"buffer":0,
			"byteLength":48,
			"byteOffset":532428,
			"target":34963
		},
		{
			"buffer":0,
			"byteLength":15540,
			"byteOffset":532476,
			"target":34962
		},
		{
			"buffer":0,
			"byteLength":15540,
			"byteOffset":548016,
			"target":34962
		},
		{
			"buffer":0,
			"byteLength":3936,
			"byteOffset":563556,
			"target":34963
		},
		{
			"buffer":0,
			"byteLength":9492,
			"byteOffset":567492,
			"target":34962
		},
		{
			"buffer":0,
			"byteLength":9492,
			"byteOffset":576984,
			"target":34962
		},
		{
			"buffer":0,
			"byteLength":3864,
			"byteOffset":586476,
			"target":34963
		},
		{
			"buffer":0,
			"byteLength":22248,
			"byteOffset":590340,
			"target":34962
		},
		{
			"buffer":0,
			"byteLength":22248,
			"byteOffset":612588,
			"target":34962
		},
		{
			"buffer":0,
			"byteLength":7212,
			"byteOffset":634836,
			"target":34963
		},
		{
			"buffer":0,
			"byteLength":88128,
			"byteOffset":642048,
			"target":34962
		},
		{
			"buffer":0,
			"byteLength":88128,
			"byteOffset":730176,
			"target":34962
		},
		{
			"buffer":0,
			"byteLength":22032,
			"byteOffset":818304,
			"target":34963
		}
	],
	"buffers":[
		{
			"byteLength":840336,
			"uri":"component.bin"
		}
	]
}
