{
	"asset":{
		"generator":"Khronos glTF Blender I/O v5.2.40",
		"version":"2.0"
	},
	"scene":0,
	"scenes":[
		{
			"name":"Scene",
			"nodes":[
				14
			]
		}
	],
	"nodes":[
		{
			"mesh":0,
			"name":"CABINET_BODY"
		},
		{
			"mesh":1,
			"name":"CABINET_HINGE_BOTTOM"
		},
		{
			"mesh":2,
			"name":"CABINET_HINGE_TOP"
		},
		{
			"mesh":3,
			"name":"CABINET_PE_NUT"
		},
		{
			"mesh":4,
			"name":"DOOR_BODY",
			"translation":[
				-0.2903674840927124,
				-0.15970000624656677,
				-0.19933366775512695
			]
		},
		{
			"mesh":5,
			"name":"DOOR_HINGE_BOTTOM",
			"translation":[
				-0.2903674840927124,
				-0.15970000624656677,
				-0.19933366775512695
			]
		},
		{
			"mesh":6,
			"name":"DOOR_HINGE_TOP",
			"translation":[
				-0.2903674840927124,
				-0.15970000624656677,
				-0.19933366775512695
			]
		},
		{
			"mesh":7,
			"name":"DOOR_LOCK_1",
			"translation":[
				-0.2903674840927124,
				-0.15970000624656677,
				-0.19933366775512695
			]
		},
		{
			"mesh":8,
			"name":"DOOR_LOCK_2",
			"translation":[
				-0.2903674840927124,
				-0.15970000624656677,
				-0.19933366775512695
			]
		},
		{
			"mesh":9,
			"name":"DOOR_PE_NUT",
			"translation":[
				-0.2903674840927124,
				-0.15970000624656677,
				-0.19933366775512695
			]
		},
		{
			"extras":{
				"width":0.6000000238418579,
				"height":0.3799999952316284,
				"normalAxis":"Y",
				"horizontalAxis":"X",
				"verticalAxis":"Z",
				"configuratorType":"placementSurface",
				"surfaceId":"doorOutside"
			},
			"name":"SURFACE_DOOR_OUTSIDE",
			"scale":[
				3,
				1.899999976158142,
				0.009999990463256836
			],
			"translation":[
				-0.2903674840927124,
				-0.15970000624656677,
				0.011666342616081238
			]
		},
		{
			"children":[
				4,
				5,
				6,
				7,
				8,
				9,
				10
			],
			"extras":{
				"configuratorType":"hinge",
				"configuratorId":"cabinet-door-hinge",
				"axis":"Y",
				"minAngleDeg":0.0,
				"maxAngleDeg":110.0,
				"defaultAngleDeg":0.0,
				"movingPart":"door"
			},
			"name":"DOOR_PIVOT",
			"translation":[
				0.2903674840927124,
				0.15970000624656677,
				0.19933366775512695
			]
		},
		{
			"mesh":10,
			"name":"MOUNTING_PLATE"
		},
		{
			"extras":{
				"normalAxis":"Y",
				"horizontalAxis":"X",
				"verticalAxis":"Z",
				"configuratorType":"placementSurface",
				"surfaceId":"mountingPlate",
				"height":0.3499999940395355,
				"width":0.550000011920929
			},
			"name":"SURFACE_MOUNTING_PLATE",
			"scale":[
				2.75,
				1.78000009059906,
				0.009999990463256836
			],
			"translation":[
				0,
				0,
				0.01875000074505806
			]
		},
		{
			"children":[
				0,
				1,
				2,
				3,
				11,
				12,
				13
			],
			"name":"CABINET_ROOT"
		}
	],
	"materials":[
		{
			"doubleSided":true,
			"name":"Material_0.002",
			"pbrMetallicRoughness":{
				"baseColorFactor":[
					0.4338795244693756,
					0.4338795244693756,
					0.4338795244693756,
					1
				],
				"metallicFactor":0
			}
		},
		{
			"doubleSided":true,
			"name":"Material_3.002",
			"pbrMetallicRoughness":{
				"baseColorFactor":[
					0.4338795244693756,
					0.4338795244693756,
					0.4338795244693756,
					1
				],
				"metallicFactor":0
			}
		},
		{
			"doubleSided":true,
			"name":"Material_9.002",
			"pbrMetallicRoughness":{
				"baseColorFactor":[
					0.4338795244693756,
					0.4338795244693756,
					0.4338795244693756,
					1
				],
				"metallicFactor":0
			}
		},
		{
			"doubleSided":true,
			"name":"Material_2.002",
			"pbrMetallicRoughness":{
				"baseColorFactor":[
					0.4338795244693756,
					0.4338795244693756,
					0.4338795244693756,
					1
				],
				"metallicFactor":0
			}
		},
		{
			"doubleSided":true,
			"name":"Material_4.002",
			"pbrMetallicRoughness":{
				"baseColorFactor":[
					0.4338795244693756,
					0.4338795244693756,
					0.4338795244693756,
					1
				],
				"metallicFactor":0
			}
		},
		{
			"doubleSided":true,
			"name":"Material_8.002",
			"pbrMetallicRoughness":{
				"baseColorFactor":[
					0.4338795244693756,
					0.4338795244693756,
					0.4338795244693756,
					1
				],
				"metallicFactor":0
			}
		},
		{
			"doubleSided":true,
			"name":"Material_10.002",
			"pbrMetallicRoughness":{
				"baseColorFactor":[
					0.4338795244693756,
					0.4338795244693756,
					0.4338795244693756,
					1
				],
				"metallicFactor":0
			}
		},
		{
			"doubleSided":true,
			"name":"Material_5.002",
			"pbrMetallicRoughness":{
				"baseColorFactor":[
					0.4338795244693756,
					0.4338795244693756,
					0.4338795244693756,
					1
				],
				"metallicFactor":0
			}
		},
		{
			"doubleSided":true,
			"name":"Material_6.002",
			"pbrMetallicRoughness":{
				"baseColorFactor":[
					0.4338795244693756,
					0.4338795244693756,
					0.4338795244693756,
					1
				],
				"metallicFactor":0
			}
		},
		{
			"doubleSided":true,
			"name":"Material_7.002",
			"pbrMetallicRoughness":{
				"baseColorFactor":[
					0.4338795244693756,
					0.4338795244693756,
					0.4338795244693756,
					1
				],
				"metallicFactor":0
			}
		},
		{
			"doubleSided":true,
			"name":"Material_1.002",
			"pbrMetallicRoughness":{
				"baseColorFactor":[
					0.4338795244693756,
					0.4338795244693756,
					0.4338795244693756,
					1
				],
				"metallicFactor":0
			}
		}
	],
	"meshes":[
		{
			"name":"CABINET_BODY_MESH",
			"primitives":[
				{
					"attributes":{
						"POSITION":0,
						"NORMAL":1
					},
					"indices":2,
					"material":0
				}
			]
		},
		{
			"name":"CABINET_HINGE_BOTTOM_MESH",
			"primitives":[
				{
					"attributes":{
						"POSITION":3,
						"NORMAL":4
					},
					"indices":5,
					"material":1
				}
			]
		},
		{
			"name":"CABINET_HINGE_TOP_MESH",
			"primitives":[
				{
					"attributes":{
						"POSITION":6,
						"NORMAL":7
					},
					"indices":8,
					"material":2
				}
			]
		},
		{
			"name":"CABINET_PE_NUT_MESH",
			"primitives":[
				{
					"attributes":{
						"POSITION":9,
						"NORMAL":10
					},
					"indices":11,
					"material":3
				}
			]
		},
		{
			"name":"DOOR_BODY_MESH",
			"primitives":[
				{
					"attributes":{
						"POSITION":12,
						"NORMAL":13
					},
					"indices":14,
					"material":4
				}
			]
		},
		{
			"name":"DOOR_HINGE_BOTTOM_MESH",
			"primitives":[
				{
					"attributes":{
						"POSITION":15,
						"NORMAL":16
					},
					"indices":17,
					"material":5
				}
			]
		},
		{
			"name":"DOOR_HINGE_TOP_MESH",
			"primitives":[
				{
					"attributes":{
						"POSITION":18,
						"NORMAL":19
					},
					"indices":20,
					"material":6
				}
			]
		},
		{
			"name":"DOOR_LOCK_1_MESH",
			"primitives":[
				{
					"attributes":{
						"POSITION":21,
						"NORMAL":22
					},
					"indices":23,
					"material":7
				}
			]
		},
		{
			"name":"DOOR_LOCK_2_MESH",
			"primitives":[
				{
					"attributes":{
						"POSITION":24,
						"NORMAL":25
					},
					"indices":26,
					"material":8
				}
			]
		},
		{
			"name":"DOOR_PE_NUT_MESH",
			"primitives":[
				{
					"attributes":{
						"POSITION":27,
						"NORMAL":28
					},
					"indices":29,
					"material":9
				}
			]
		},
		{
			"name":"MOUNTING_PLATE_MESH",
			"primitives":[
				{
					"attributes":{
						"POSITION":30,
						"NORMAL":31
					},
					"indices":32,
					"material":10
				}
			]
		}
	],
	"accessors":[
		{
			"bufferView":0,
			"componentType":5126,
			"count":122266,
			"max":[
				0.30000001192092896,
				0.1899999976158142,
				0.2054000049829483
			],
			"min":[
				-0.30000001192092896,
				-0.1899999976158142,
				0
			],
			"type":"VEC3"
		},
		{
			"bufferView":1,
			"componentType":5126,
			"count":122266,
			"type":"VEC3"
		},
		{
			"bufferView":2,
			"componentType":5125,
			"count":603186,
			"type":"SCALAR"
		},
		{
			"bufferView":3,
			"componentType":5126,
			"count":10019,
			"max":[
				0.2952496111392975,
				-0.09529999643564224,
				0.20386241376399994
			],
			"min":[
				0.27950000762939453,
				-0.16130000352859497,
				0.1931000053882599
			],
			"type":"VEC3"
		},
		{
			"bufferView":4,
			"componentType":5126,
			"count":10019,
			"type":"VEC3"
		},
		{
			"bufferView":5,
			"componentType":5123,
			"count":44160,
			"type":"SCALAR"
		},
		{
			"bufferView":6,
			"componentType":5126,
			"count":10059,
			"max":[
				0.2952496111392975,
				0.15970000624656677,
				0.20386241376399994
			],
			"min":[
				0.27950000762939453,
				0.09369999915361404,
				0.1931000053882599
			],
			"type":"VEC3"
		},
		{
			"bufferView":7,
			"componentType":5126,
			"count":10059,
			"type":"VEC3"
		},
		{
			"bufferView":8,
			"componentType":5123,
			"count":44160,
			"type":"SCALAR"
		},
		{
			"bufferView":9,
			"componentType":5126,
			"count":5099,
			"max":[
				0.23374909162521362,
				-0.156050905585289,
				0.04450000077486038
			],
			"min":[
				0.21585090458393097,
				-0.17394909262657166,
				0.010700000450015068
			],
			"type":"VEC3"
		},
		{
			"bufferView":10,
			"componentType":5126,
			"count":5099,
			"type":"VEC3"
		},
		{
			"bufferView":11,
			"componentType":5123,
			"count":22479,
			"type":"SCALAR"
		},
		{
			"bufferView":12,
			"componentType":5126,
			"count":21944,
			"max":[
				0.2976999878883362,
				0.18700000643730164,
				0.20999999344348907
			],
			"min":[
				-0.2962999939918518,
				-0.18700000643730164,
				0.19200000166893005
			],
			"type":"VEC3"
		},
		{
			"bufferView":13,
			"componentType":5126,
			"count":21944,
			"type":"VEC3"
		},
		{
			"bufferView":14,
			"componentType":5123,
			"count":98466,
			"type":"SCALAR"
		},
		{
			"bufferView":15,
			"componentType":5126,
			"count":2907,
			"max":[
				0.2973000109195709,
				-0.10899999737739563,
				0.2066500037908554
			],
			"min":[
				0.2935999929904938,
				-0.1459999978542328,
				0.19179999828338623
			],
			"type":"VEC3"
		},
		{
			"bufferView":16,
			"componentType":5126,
			"count":2907,
			"type":"VEC3"
		},
		{
			"bufferView":17,
			"componentType":5123,
			"count":6834,
			"type":"SCALAR"
		},
		{
			"bufferView":18,
			"componentType":5126,
			"count":2952,
			"max":[
				0.2973000109195709,
				0.1459999978542328,
				0.2066500037908554
			],
			"min":[
				0.2935999929904938,
				0.10899999737739563,
				0.19179999828338623
			],
			"type":"VEC3"
		},
		{
			"bufferView":19,
			"componentType":5126,
			"count":2952,
			"type":"VEC3"
		},
		{
			"bufferView":20,
			"componentType":5123,
			"count":6834,
			"type":"SCALAR"
		},
		{
			"bufferView":21,
			"componentType":5126,
			"count":8270,
			"max":[
				-0.2316499948501587,
				0.027499999850988388,
				0.21699999272823334
			],
			"min":[
				-0.2872999906539917,
				-0.02759999968111515,
				0.16985000669956207
			],
			"type":"VEC3"
		},
		{
			"bufferView":22,
			"componentType":5126,
			"count":8270,
			"type":"VEC3"
		},
		{
			"bufferView":23,
			"componentType":5123,
			"count":28278,
			"type":"SCALAR"
		},
		{
			"bufferView":24,
			"componentType":5126,
			"count":5323,
			"max":[
				-0.24130000174045563,
				0.00795000046491623,
				0.21594999730587006
			],
			"min":[
				-0.2572999894618988,
				-0.008050000295042992,
				0.18895000219345093
			],
			"type":"VEC3"
		},
		{
			"bufferView":25,
			"componentType":5126,
			"count":5323,
			"type":"VEC3"
		},
		{
			"bufferView":26,
			"componentType":5123,
			"count":23358,
			"type":"SCALAR"
		},
		{
			"bufferView":27,
			"componentType":5126,
			"count":8883,
			"max":[
				-0.25029999017715454,
				-0.13249999284744263,
				0.2084999978542328
			],
			"min":[
				-0.27379998564720154,
				-0.1670999974012375,
				0.19349999725818634
			],
			"type":"VEC3"
		},
		{
			"bufferView":28,
			"componentType":5126,
			"count":8883,
			"type":"VEC3"
		},
		{
			"bufferView":29,
			"componentType":5123,
			"count":27906,
			"type":"SCALAR"
		},
		{
			"bufferView":30,
			"componentType":5126,
			"count":3322,
			"max":[
				0.2750000059604645,
				0.17749999463558197,
				0.017750000581145287
			],
			"min":[
				-0.2750000059604645,
				-0.17749999463558197,
				0.015250000171363354
			],
			"type":"VEC3"
		},
		{
			"bufferView":31,
			"componentType":5126,
			"count":3322,
			"type":"VEC3"
		},
		{
			"bufferView":32,
			"componentType":5123,
			"count":8436,
			"type":"SCALAR"
		}
	],
	"bufferViews":[
		{
			"buffer":0,
			"byteLength":1467192,
			"byteOffset":0,
			"target":34962
		},
		{
			"buffer":0,
			"byteLength":1467192,
			"byteOffset":1467192,
			"target":34962
		},
		{
			"buffer":0,
			"byteLength":2412744,
			"byteOffset":2934384,
			"target":34963
		},
		{
			"buffer":0,
			"byteLength":120228,
			"byteOffset":5347128,
			"target":34962
		},
		{
			"buffer":0,
			"byteLength":120228,
			"byteOffset":5467356,
			"target":34962
		},
		{
			"buffer":0,
			"byteLength":88320,
			"byteOffset":5587584,
			"target":34963
		},
		{
			"buffer":0,
			"byteLength":120708,
			"byteOffset":5675904,
			"target":34962
		},
		{
			"buffer":0,
			"byteLength":120708,
			"byteOffset":5796612,
			"target":34962
		},
		{
			"buffer":0,
			"byteLength":88320,
			"byteOffset":5917320,
			"target":34963
		},
		{
			"buffer":0,
			"byteLength":61188,
			"byteOffset":6005640,
			"target":34962
		},
		{
			"buffer":0,
			"byteLength":61188,
			"byteOffset":6066828,
			"target":34962
		},
		{
			"buffer":0,
			"byteLength":44958,
			"byteOffset":6128016,
			"target":34963
		},
		{
			"buffer":0,
			"byteLength":263328,
			"byteOffset":6172976,
			"target":34962
		},
		{
			"buffer":0,
			"byteLength":263328,
			"byteOffset":6436304,
			"target":34962
		},
		{
			"buffer":0,
			"byteLength":196932,
			"byteOffset":6699632,
			"target":34963
		},
		{
			"buffer":0,
			"byteLength":34884,
			"byteOffset":6896564,
			"target":34962
		},
		{
			"buffer":0,
			"byteLength":34884,
			"byteOffset":6931448,
			"target":34962
		},
		{
			"buffer":0,
			"byteLength":13668,
			"byteOffset":6966332,
			"target":34963
		},
		{
			"buffer":0,
			"byteLength":35424,
			"byteOffset":6980000,
			"target":34962
		},
		{
			"buffer":0,
			"byteLength":35424,
			"byteOffset":7015424,
			"target":34962
		},
		{
			"buffer":0,
			"byteLength":13668,
			"byteOffset":7050848,
			"target":34963
		},
		{
			"buffer":0,
			"byteLength":99240,
			"byteOffset":7064516,
			"target":34962
		},
		{
			"buffer":0,
			"byteLength":99240,
			"byteOffset":7163756,
			"target":34962
		},
		{
			"buffer":0,
			"byteLength":56556,
			"byteOffset":7262996,
			"target":34963
		},
		{
			"buffer":0,
			"byteLength":63876,
			"byteOffset":7319552,
			"target":34962
		},
		{
			"buffer":0,
			"byteLength":63876,
			"byteOffset":7383428,
			"target":34962
		},
		{
			"buffer":0,
			"byteLength":46716,
			"byteOffset":7447304,
			"target":34963
		},
		{
			"buffer":0,
			"byteLength":106596,
			"byteOffset":7494020,
			"target":34962
		},
		{
			"buffer":0,
			"byteLength":106596,
			"byteOffset":7600616,
			"target":34962
		},
		{
			"buffer":0,
			"byteLength":55812,
			"byteOffset":7707212,
			"target":34963
		},
		{
			"buffer":0,
			"byteLength":39864,
			"byteOffset":7763024,
			"target":34962
		},
		{
			"buffer":0,
			"byteLength":39864,
			"byteOffset":7802888,
			"target":34962
		},
		{
			"buffer":0,
			"byteLength":16872,
			"byteOffset":7842752,
			"target":34963
		}
	],
	"buffers":[
		{
			"byteLength":7859624,
			"uri":"kast.bin"
		}
	]
}
