{
	"asset":{
		"generator":"Khronos glTF Blender I/O v5.2.40",
		"version":"2.0"
	},
	"scene":0,
	"scenes":[
		{
			"name":"Scene",
			"nodes":[
				0,
				1,
				2,
				3,
				4,
				5,
				6,
				7,
				8,
				9,
				10,
				11,
				12
			]
		}
	],
	"nodes":[
		{
			"mesh":0,
			"name":"Part 2"
		},
		{
			"mesh":1,
			"name":"Part 3"
		},
		{
			"mesh":2,
			"name":"Part 4"
		},
		{
			"mesh":3,
			"name":"Part 5"
		},
		{
			"mesh":4,
			"name":"Part 6"
		},
		{
			"mesh":5,
			"name":"Part 7"
		},
		{
			"mesh":6,
			"name":"Part 8"
		},
		{
			"mesh":7,
			"name":"Part 9"
		},
		{
			"mesh":8,
			"name":"Part 10"
		},
		{
			"mesh":9,
			"name":"Part 11"
		},
		{
			"mesh":10,
			"name":"Part 12"
		},
		{
			"mesh":11,
			"name":"Part 13"
		},
		{
			"mesh":12,
			"name":"Part 14"
		}
	],
	"materials":[
		{
			"doubleSided":true,
			"name":"Material_1",
			"pbrMetallicRoughness":{
				"baseColorFactor":[
					0.49102088809013367,
					0.49102088809013367,
					0.49102088809013367,
					1
				],
				"metallicFactor":0
			}
		},
		{
			"doubleSided":true,
			"name":"Material_2",
			"pbrMetallicRoughness":{
				"baseColorFactor":[
					0,
					0.2158605307340622,
					0.2158605307340622,
					1
				],
				"metallicFactor":0
			}
		},
		{
			"doubleSided":true,
			"name":"Material_3",
			"pbrMetallicRoughness":{
				"baseColorFactor":[
					0,
					0.2158605307340622,
					0.2158605307340622,
					1
				],
				"metallicFactor":0
			}
		},
		{
			"doubleSided":true,
			"name":"Material_4",
			"pbrMetallicRoughness":{
				"baseColorFactor":[
					0,
					0.2158605307340622,
					0.2158605307340622,
					1
				],
				"metallicFactor":0
			}
		},
		{
			"doubleSided":true,
			"name":"Material_5",
			"pbrMetallicRoughness":{
				"baseColorFactor":[
					0,
					0.2158605307340622,
					0.2158605307340622,
					1
				],
				"metallicFactor":0
			}
		},
		{
			"doubleSided":true,
			"name":"Material_6",
			"pbrMetallicRoughness":{
				"baseColorFactor":[
					1,
					0.21223075687885284,
					0,
					1
				],
				"metallicFactor":0
			}
		},
		{
			"doubleSided":true,
			"name":"Material_7",
			"pbrMetallicRoughness":{
				"baseColorFactor":[
					1,
					0.21223075687885284,
					0,
					1
				],
				"metallicFactor":0
			}
		},
		{
			"doubleSided":true,
			"name":"Material_8",
			"pbrMetallicRoughness":{
				"baseColorFactor":[
					0.6583748459815979,
					0.391572505235672,
					0.28744086623191833,
					1
				],
				"metallicFactor":0
			}
		},
		{
			"doubleSided":true,
			"name":"Material_9",
			"pbrMetallicRoughness":{
				"baseColorFactor":[
					0.6583748459815979,
					0.391572505235672,
					0.28744086623191833,
					1
				],
				"metallicFactor":0
			}
		},
		{
			"doubleSided":true,
			"name":"Material_10",
			"pbrMetallicRoughness":{
				"baseColorFactor":[
					0.2158605307340622,
					0,
					0,
					1
				],
				"metallicFactor":0
			}
		},
		{
			"doubleSided":true,
			"name":"Material_11",
			"pbrMetallicRoughness":{
				"baseColorFactor":[
					0.6583748459815979,
					0.391572505235672,
					0.28744086623191833,
					1
				],
				"metallicFactor":0
			}
		},
		{
			"doubleSided":true,
			"name":"Material_12",
			"pbrMetallicRoughness":{
				"baseColorFactor":[
					0.6583748459815979,
					0.391572505235672,
					0.28744086623191833,
					1
				],
				"metallicFactor":0
			}
		},
		{
			"doubleSided":true,
			"name":"Material_13",
			"pbrMetallicRoughness":{
				"baseColorFactor":[
					0.2158605307340622,
					0,
					0,
					1
				],
				"metallicFactor":0
			}
		}
	],
	"meshes":[
		{
			"name":"Part 2",
			"primitives":[
				{
					"attributes":{
						"POSITION":0,
						"NORMAL":1
					},
					"indices":2,
					"material":0
				}
			]
		},
		{
			"name":"Part 3",
			"primitives":[
				{
					"attributes":{
						"POSITION":3,
						"NORMAL":4
					},
					"indices":5,
					"material":1
				}
			]
		},
		{
			"name":"Part 4",
			"primitives":[
				{
					"attributes":{
						"POSITION":6,
						"NORMAL":7
					},
					"indices":8,
					"material":2
				}
			]
		},
		{
			"name":"Part 5",
			"primitives":[
				{
					"attributes":{
						"POSITION":9,
						"NORMAL":10
					},
					"indices":11,
					"material":3
				}
			]
		},
		{
			"name":"Part 6",
			"primitives":[
				{
					"attributes":{
						"POSITION":12,
						"NORMAL":13
					},
					"indices":8,
					"material":4
				}
			]
		},
		{
			"name":"Part 7",
			"primitives":[
				{
					"attributes":{
						"POSITION":14,
						"NORMAL":15
					},
					"indices":16,
					"material":5
				}
			]
		},
		{
			"name":"Part 8",
			"primitives":[
				{
					"attributes":{
						"POSITION":17,
						"NORMAL":18
					},
					"indices":19,
					"material":6
				}
			]
		},
		{
			"name":"Part 9",
			"primitives":[
				{
					"attributes":{
						"POSITION":20,
						"NORMAL":21
					},
					"indices":22,
					"material":7
				}
			]
		},
		{
			"name":"Part 10",
			"primitives":[
				{
					"attributes":{
						"POSITION":23,
						"NORMAL":24
					},
					"indices":25,
					"material":8
				}
			]
		},
		{
			"name":"Part 11",
			"primitives":[
				{
					"attributes":{
						"POSITION":26,
						"NORMAL":27
					},
					"indices":11,
					"material":9
				}
			]
		},
		{
			"name":"Part 12",
			"primitives":[
				{
					"attributes":{
						"POSITION":28,
						"NORMAL":29
					},
					"indices":30,
					"material":10
				}
			]
		},
		{
			"name":"Part 13",
			"primitives":[
				{
					"attributes":{
						"POSITION":31,
						"NORMAL":32
					},
					"indices":33,
					"material":11
				}
			]
		},
		{
			"name":"Part 14",
			"primitives":[
				{
					"attributes":{
						"POSITION":34,
						"NORMAL":35
					},
					"indices":5,
					"material":12
				}
			]
		}
	],
	"accessors":[
		{
			"bufferView":0,
			"componentType":5126,
			"count":1533,
			"max":[
				0.574999988079071,
				-0.015250000171363354,
				0.3675000071525574
			],
			"min":[
				0.02500000037252903,
				-0.017750000581145287,
				0.012500000186264515
			],
			"type":"VEC3"
		},
		{
			"bufferView":1,
			"componentType":5126,
			"count":1533,
			"type":"VEC3"
		},
		{
			"bufferView":2,
			"componentType":5123,
			"count":4308,
			"type":"SCALAR"
		},
		{
			"bufferView":3,
			"componentType":5126,
			"count":24,
			"max":[
				0.054999999701976776,
				-0.017750000581145287,
				0.3425000011920929
			],
			"min":[
				0.029999999329447746,
				-0.09775000065565109,
				0.03750000149011612
			],
			"type":"VEC3"
		},
		{
			"bufferView":4,
			"componentType":5126,
			"count":24,
			"type":"VEC3"
		},
		{
			"bufferView":5,
			"componentType":5123,
			"count":36,
			"type":"SCALAR"
		},
		{
			"bufferView":6,
			"componentType":5126,
			"count":24,
			"max":[
				0.25,
				-0.017750000581145287,
				0.1765500009059906
			],
			"min":[
				0.22499999403953552,
				-0.09775000065565109,
				0.03750000149011612
			],
			"type":"VEC3"
		},
		{
			"bufferView":7,
			"componentType":5126,
			"count":24,
			"type":"VEC3"
		},
		{
			"bufferView":8,
			"componentType":5123,
			"count":36,
			"type":"SCALAR"
		},
		{
			"bufferView":9,
			"componentType":5126,
			"count":24,
			"max":[
				0.25,
				-0.017750000581145287,
				0.20155000686645508
			],
			"min":[
				0.054999999701976776,
				-0.09775000065565109,
				0.1765500009059906
			],
			"type":"VEC3"
		},
		{
			"bufferView":10,
			"componentType":5126,
			"count":24,
			"type":"VEC3"
		},
		{
			"bufferView":11,
			"componentType":5123,
			"count":36,
			"type":"SCALAR"
		},
		{
			"bufferView":12,
			"componentType":5126,
			"count":24,
			"max":[
				0.574999988079071,
				-0.017750000581145287,
				0.14249999821186066
			],
			"min":[
				0.25,
				-0.09775000065565109,
				0.08250000327825546
			],
			"type":"VEC3"
		},
		{
			"bufferView":13,
			"componentType":5126,
			"count":24,
			"type":"VEC3"
		},
		{
			"bufferView":14,
			"componentType":5126,
			"count":742,
			"max":[
				0.5699999928474426,
				-0.017750000581145287,
				0.2917500138282776
			],
			"min":[
				0.054999999701976776,
				-0.032749999314546585,
				0.2567499876022339
			],
			"type":"VEC3"
		},
		{
			"bufferView":15,
			"componentType":5126,
			"count":742,
			"type":"VEC3"
		},
		{
			"bufferView":16,
			"componentType":5123,
			"count":1620,
			"type":"SCALAR"
		},
		{
			"bufferView":17,
			"componentType":5126,
			"count":741,
			"max":[
				0.22499999403953552,
				-0.017750000581145287,
				0.12999999523162842
			],
			"min":[
				0.054999999701976776,
				-0.032749999314546585,
				0.0949999988079071
			],
			"type":"VEC3"
		},
		{
			"bufferView":18,
			"componentType":5126,
			"count":741,
			"type":"VEC3"
		},
		{
			"bufferView":19,
			"componentType":5123,
			"count":1620,
			"type":"SCALAR"
		},
		{
			"bufferView":20,
			"componentType":5126,
			"count":3368,
			"max":[
				0.5644999742507935,
				-0.017750000581145287,
				0.17399999499320984
			],
			"min":[
				0.5400000214576721,
				-0.04174591973423958,
				0.14749999344348907
			],
			"type":"VEC3"
		},
		{
			"bufferView":21,
			"componentType":5126,
			"count":3368,
			"type":"VEC3"
		},
		{
			"bufferView":22,
			"componentType":5123,
			"count":7932,
			"type":"SCALAR"
		},
		{
			"bufferView":23,
			"componentType":5126,
			"count":3349,
			"max":[
				0.28450000286102295,
				-0.017750000581145287,
				0.17399999499320984
			],
			"min":[
				0.25999999046325684,
				-0.04174591973423958,
				0.14749999344348907
			],
			"type":"VEC3"
		},
		{
			"bufferView":24,
			"componentType":5126,
			"count":3349,
			"type":"VEC3"
		},
		{
			"bufferView":25,
			"componentType":5123,
			"count":7932,
			"type":"SCALAR"
		},
		{
			"bufferView":26,
			"componentType":5126,
			"count":24,
			"max":[
				0.5522500276565552,
				-0.025750000029802322,
				0.16574999690055847
			],
			"min":[
				0.26499998569488525,
				-0.028750000521540642,
				0.15575000643730164
			],
			"type":"VEC3"
		},
		{
			"bufferView":27,
			"componentType":5126,
			"count":24,
			"type":"VEC3"
		},
		{
			"bufferView":28,
			"componentType":5126,
			"count":3383,
			"max":[
				0.5644999742507935,
				-0.017750000581145287,
				0.07400000095367432
			],
			"min":[
				0.5400000214576721,
				-0.04174591973423958,
				0.04749999940395355
			],
			"type":"VEC3"
		},
		{
			"bufferView":29,
			"componentType":5126,
			"count":3383,
			"type":"VEC3"
		},
		{
			"bufferView":30,
			"componentType":5123,
			"count":7932,
			"type":"SCALAR"
		},
		{
			"bufferView":31,
			"componentType":5126,
			"count":3389,
			"max":[
				0.28450000286102295,
				-0.017750000581145287,
				0.07400000095367432
			],
			"min":[
				0.25999999046325684,
				-0.04174591973423958,
				0.04749999940395355
			],
			"type":"VEC3"
		},
		{
			"bufferView":32,
			"componentType":5126,
			"count":3389,
			"type":"VEC3"
		},
		{
			"bufferView":33,
			"componentType":5123,
			"count":7932,
			"type":"SCALAR"
		},
		{
			"bufferView":34,
			"componentType":5126,
			"count":24,
			"max":[
				0.5522500276565552,
				-0.025750000029802322,
				0.06825000047683716
			],
			"min":[
				0.26499998569488525,
				-0.02775000035762787,
				0.05324999988079071
			],
			"type":"VEC3"
		},
		{
			"bufferView":35,
			"componentType":5126,
			"count":24,
			"type":"VEC3"
		}
	],
	"bufferViews":[
		{
			"buffer":0,
			"byteLength":18396,
			"byteOffset":0,
			"target":34962
		},
		{
			"buffer":0,
			"byteLength":18396,
			"byteOffset":18396,
			"target":34962
		},
		{
			"buffer":0,
			"byteLength":8616,
			"byteOffset":36792,
			"target":34963
		},
		{
			"buffer":0,
			"byteLength":288,
			"byteOffset":45408,
			"target":34962
		},
		{
			"buffer":0,
			"byteLength":288,
			"byteOffset":45696,
			"target":34962
		},
		{
			"buffer":0,
			"byteLength":72,
			"byteOffset":45984,
			"target":34963
		},
		{
			"buffer":0,
			"byteLength":288,
			"byteOffset":46056,
			"target":34962
		},
		{
			"buffer":0,
			"byteLength":288,
			"byteOffset":46344,
			"target":34962
		},
		{
			"buffer":0,
			"byteLength":72,
			"byteOffset":46632,
			"target":34963
		},
		{
			"buffer":0,
			"byteLength":288,
			"byteOffset":46704,
			"target":34962
		},
		{
			"buffer":0,
			"byteLength":288,
			"byteOffset":46992,
			"target":34962
		},
		{
			"buffer":0,
			"byteLength":72,
			"byteOffset":47280,
			"target":34963
		},
		{
			"buffer":0,
			"byteLength":288,
			"byteOffset":47352,
			"target":34962
		},
		{
			"buffer":0,
			"byteLength":288,
			"byteOffset":47640,
			"target":34962
		},
		{
			"buffer":0,
			"byteLength":8904,
			"byteOffset":47928,
			"target":34962
		},
		{
			"buffer":0,
			"byteLength":8904,
			"byteOffset":56832,
			"target":34962
		},
		{
			"buffer":0,
			"byteLength":3240,
			"byteOffset":65736,
			"target":34963
		},
		{
			"buffer":0,
			"byteLength":8892,
			"byteOffset":68976,
			"target":34962
		},
		{
			"buffer":0,
			"byteLength":8892,
			"byteOffset":77868,
			"target":34962
		},
		{
			"buffer":0,
			"byteLength":3240,
			"byteOffset":86760,
			"target":34963
		},
		{
			"buffer":0,
			"byteLength":40416,
			"byteOffset":90000,
			"target":34962
		},
		{
			"buffer":0,
			"byteLength":40416,
			"byteOffset":130416,
			"target":34962
		},
		{
			"buffer":0,
			"byteLength":15864,
			"byteOffset":170832,
			"target":34963
		},
		{
			"buffer":0,
			"byteLength":40188,
			"byteOffset":186696,
			"target":34962
		},
		{
			"buffer":0,
			"byteLength":40188,
			"byteOffset":226884,
			"target":34962
		},
		{
			"buffer":0,
			"byteLength":15864,
			"byteOffset":267072,
			"target":34963
		},
		{
			"buffer":0,
			"byteLength":288,
			"byteOffset":282936,
			"target":34962
		},
		{
			"buffer":0,
			"byteLength":288,
			"byteOffset":283224,
			"target":34962
		},
		{
			"buffer":0,
			"byteLength":40596,
			"byteOffset":283512,
			"target":34962
		},
		{
			"buffer":0,
			"byteLength":40596,
			"byteOffset":324108,
			"target":34962
		},
		{
			"buffer":0,
			"byteLength":15864,
			"byteOffset":364704,
			"target":34963
		},
		{
			"buffer":0,
			"byteLength":40668,
			"byteOffset":380568,
			"target":34962
		},
		{
			"buffer":0,
			"byteLength":40668,
			"byteOffset":421236,
			"target":34962
		},
		{
			"buffer":0,
			"byteLength":15864,
			"byteOffset":461904,
			"target":34963
		},
		{
			"buffer":0,
			"byteLength":288,
			"byteOffset":477768,
			"target":34962
		},
		{
			"buffer":0,
			"byteLength":288,
			"byteOffset":478056,
			"target":34962
		}
	],
	"buffers":[
		{
			"byteLength":478344,
			"uri":"MontagePlaat.bin"
		}
	]
}
