{
	"asset":{
		"generator":"Khronos glTF Blender I/O v5.2.40",
		"version":"2.0"
	},
	"scene":0,
	"scenes":[
		{
			"name":"Scene",
			"nodes":[
				0,
				1,
				2,
				3,
				4,
				5
			]
		}
	],
	"nodes":[
		{
			"name":"LEFT_SIDE",
			"scale":[
				0.0010000000474974513,
				0.0010000000474974513,
				0.0010000000474974513
			],
			"translation":[
				-0.009000001475214958,
				-0.033916279673576355,
				0.004297827370464802
			]
		},
		{
			"name":"MOUNTING_POINT",
			"scale":[
				0.0010000000474974513,
				0.0010000000474974513,
				0.0010000000474974513
			],
			"translation":[
				0.008999999612569809,
				0.004999999888241291,
				0
			]
		},
		{
			"mesh":0,
			"name":"Part 1"
		},
		{
			"mesh":1,
			"name":"Part 2"
		},
		{
			"mesh":2,
			"name":"Part 3"
		},
		{
			"name":"RIGHT_SIDE",
			"scale":[
				0.0010000000474974513,
				0.0010000000474974513,
				0.0010000000474974513
			],
			"translation":[
				0.027000000700354576,
				-0.03572406247258186,
				0.003840293502435088
			]
		}
	],
	"materials":[
		{
			"doubleSided":true,
			"name":"Material_0",
			"pbrMetallicRoughness":{
				"metallicFactor":0
			}
		},
		{
			"doubleSided":true,
			"name":"Material_1",
			"pbrMetallicRoughness":{
				"baseColorFactor":[
					0.6038273572921753,
					0.6038273572921753,
					0.6038273572921753,
					1
				],
				"metallicFactor":0
			}
		},
		{
			"doubleSided":true,
			"name":"Material_2",
			"pbrMetallicRoughness":{
				"baseColorFactor":[
					0.017641955986618996,
					0.017641955986618996,
					0.017641955986618996,
					1
				],
				"metallicFactor":0
			}
		},
		{
			"doubleSided":true,
			"name":"Material_3",
			"pbrMetallicRoughness":{
				"baseColorFactor":[
					0.5972018241882324,
					0.6444796919822693,
					0.8631572127342224,
					1
				],
				"metallicFactor":0
			}
		},
		{
			"doubleSided":true,
			"name":"Material_4",
			"pbrMetallicRoughness":{
				"baseColorFactor":[
					0.31397107243537903,
					0.4019778072834015,
					0.4286693334579468,
					1
				],
				"metallicFactor":0
			}
		},
		{
			"doubleSided":true,
			"name":"Material_5",
			"pbrMetallicRoughness":{
				"baseColorFactor":[
					0.017641955986618996,
					0.017641955986618996,
					0.017641955986618996,
					1
				],
				"metallicFactor":0
			}
		},
		{
			"doubleSided":true,
			"name":"Material_6",
			"pbrMetallicRoughness":{
				"baseColorFactor":[
					0.6038273572921753,
					0.6038273572921753,
					0.6038273572921753,
					1
				],
				"metallicFactor":0
			}
		},
		{
			"doubleSided":true,
			"name":"Material_7",
			"pbrMetallicRoughness":{
				"metallicFactor":0
			}
		},
		{
			"doubleSided":true,
			"name":"Material_8",
			"pbrMetallicRoughness":{
				"baseColorFactor":[
					0.017641955986618996,
					0.017641955986618996,
					0.017641955986618996,
					1
				],
				"metallicFactor":0
			}
		},
		{
			"doubleSided":true,
			"name":"Material_9",
			"pbrMetallicRoughness":{
				"baseColorFactor":[
					0.5972018241882324,
					0.6444796919822693,
					0.8631572127342224,
					1
				],
				"metallicFactor":0
			}
		},
		{
			"doubleSided":true,
			"name":"Material_10",
			"pbrMetallicRoughness":{
				"baseColorFactor":[
					0.31397107243537903,
					0.4019778072834015,
					0.4286693334579468,
					1
				],
				"metallicFactor":0
			}
		}
	],
	"meshes":[
		{
			"name":"Part 1",
			"primitives":[
				{
					"attributes":{
						"POSITION":0,
						"NORMAL":1
					},
					"indices":2,
					"material":0
				},
				{
					"attributes":{
						"POSITION":3,
						"NORMAL":4
					},
					"indices":5,
					"material":1
				},
				{
					"attributes":{
						"POSITION":6,
						"NORMAL":7
					},
					"indices":8,
					"material":2
				},
				{
					"attributes":{
						"POSITION":9,
						"NORMAL":10
					},
					"indices":11,
					"material":3
				},
				{
					"attributes":{
						"POSITION":12,
						"NORMAL":13
					},
					"indices":14,
					"material":4
				}
			]
		},
		{
			"name":"Part 2",
			"primitives":[
				{
					"attributes":{
						"POSITION":15,
						"NORMAL":16
					},
					"indices":17,
					"material":5
				}
			]
		},
		{
			"name":"Part 3",
			"primitives":[
				{
					"attributes":{
						"POSITION":18,
						"NORMAL":19
					},
					"indices":20,
					"material":6
				},
				{
					"attributes":{
						"POSITION":21,
						"NORMAL":22
					},
					"indices":23,
					"material":7
				},
				{
					"attributes":{
						"POSITION":24,
						"NORMAL":25
					},
					"indices":26,
					"material":8
				},
				{
					"attributes":{
						"POSITION":27,
						"NORMAL":28
					},
					"indices":29,
					"material":9
				},
				{
					"attributes":{
						"POSITION":30,
						"NORMAL":31
					},
					"indices":14,
					"material":10
				}
			]
		}
	],
	"accessors":[
		{
			"bufferView":0,
			"componentType":5126,
			"count":14930,
			"max":[
				0.008999999612569809,
				0.006200000643730164,
				0.04490000009536743
			],
			"min":[
				-0.008999999612569809,
				-0.06830000132322311,
				-0.04490000009536743
			],
			"type":"VEC3"
		},
		{
			"bufferView":1,
			"componentType":5126,
			"count":14930,
			"type":"VEC3"
		},
		{
			"bufferView":2,
			"componentType":5123,
			"count":62325,
			"type":"SCALAR"
		},
		{
			"bufferView":3,
			"componentType":5126,
			"count":14856,
			"max":[
				0.008999999612569809,
				0.006200000643730164,
				0.04490000009536743
			],
			"min":[
				-0.008999999612569809,
				-0.06830000132322311,
				-0.04490000009536743
			],
			"type":"VEC3"
		},
		{
			"bufferView":4,
			"componentType":5126,
			"count":14856,
			"type":"VEC3"
		},
		{
			"bufferView":5,
			"componentType":5123,
			"count":39765,
			"type":"SCALAR"
		},
		{
			"bufferView":6,
			"componentType":5126,
			"count":6055,
			"max":[
				0.004999999888241291,
				-0.021654317155480385,
				0.043650008738040924
			],
			"min":[
				-0.008386155590415001,
				-0.06400000303983688,
				-0.04515000060200691
			],
			"type":"VEC3"
		},
		{
			"bufferView":7,
			"componentType":5126,
			"count":6055,
			"type":"VEC3"
		},
		{
			"bufferView":8,
			"componentType":5123,
			"count":13422,
			"type":"SCALAR"
		},
		{
			"bufferView":9,
			"componentType":5126,
			"count":66,
			"max":[
				0.00773000018671155,
				-0.05999999865889549,
				-0.013555020093917847
			],
			"min":[
				-0.00773000018671155,
				-0.06597468256950378,
				-0.014799266122281551
			],
			"type":"VEC3"
		},
		{
			"bufferView":10,
			"componentType":5126,
			"count":66,
			"type":"VEC3"
		},
		{
			"bufferView":11,
			"componentType":5123,
			"count":150,
			"type":"SCALAR"
		},
		{
			"bufferView":12,
			"componentType":5126,
			"count":526,
			"max":[
				0.0034000000450760126,
				-0.03994999825954437,
				0.039799999445676804
			],
			"min":[
				-0.0034000000450760126,
				-0.04194999858736992,
				-0.039799999445676804
			],
			"type":"VEC3"
		},
		{
			"bufferView":13,
			"componentType":5126,
			"count":526,
			"type":"VEC3"
		},
		{
			"bufferView":14,
			"componentType":5123,
			"count":1380,
			"type":"SCALAR"
		},
		{
			"bufferView":15,
			"componentType":5126,
			"count":1231,
			"max":[
				0.025800000876188278,
				-0.05405105650424957,
				-0.005550597328692675
			],
			"min":[
				-0.007799999788403511,
				-0.06808064877986908,
				-0.020598452538251877
			],
			"type":"VEC3"
		},
		{
			"bufferView":16,
			"componentType":5126,
			"count":1231,
			"type":"VEC3"
		},
		{
			"bufferView":17,
			"componentType":5123,
			"count":3228,
			"type":"SCALAR"
		},
		{
			"bufferView":18,
			"componentType":5126,
			"count":13704,
			"max":[
				0.027000000700354576,
				0.006200000643730164,
				0.04490000009536743
			],
			"min":[
				0.008999999612569809,
				-0.06830000132322311,
				-0.04490000009536743
			],
			"type":"VEC3"
		},
		{
			"bufferView":19,
			"componentType":5126,
			"count":13704,
			"type":"VEC3"
		},
		{
			"bufferView":20,
			"componentType":5123,
			"count":37212,
			"type":"SCALAR"
		},
		{
			"bufferView":21,
			"componentType":5126,
			"count":15208,
			"max":[
				0.027000000700354576,
				0.006200000643730164,
				0.04490000009536743
			],
			"min":[
				0.008999999612569809,
				-0.06830000132322311,
				-0.04490000009536743
			],
			"type":"VEC3"
		},
		{
			"bufferView":22,
			"componentType":5126,
			"count":15208,
			"type":"VEC3"
		},
		{
			"bufferView":23,
			"componentType":5123,
			"count":62325,
			"type":"SCALAR"
		},
		{
			"bufferView":24,
			"componentType":5126,
			"count":2178,
			"max":[
				0.023000000044703484,
				-0.021654317155480385,
				0.043650008738040924
			],
			"min":[
				0.012472163885831833,
				-0.043949998915195465,
				-0.04515000060200691
			],
			"type":"VEC3"
		},
		{
			"bufferView":25,
			"componentType":5126,
			"count":2178,
			"type":"VEC3"
		},
		{
			"bufferView":26,
			"componentType":5123,
			"count":5043,
			"type":"SCALAR"
		},
		{
			"bufferView":27,
			"componentType":5126,
			"count":70,
			"max":[
				0.02573000080883503,
				-0.05999999865889549,
				-0.013555020093917847
			],
			"min":[
				0.01027000043541193,
				-0.06597468256950378,
				-0.014799266122281551
			],
			"type":"VEC3"
		},
		{
			"bufferView":28,
			"componentType":5126,
			"count":70,
			"type":"VEC3"
		},
		{
			"bufferView":29,
			"componentType":5123,
			"count":150,
			"type":"SCALAR"
		},
		{
			"bufferView":30,
			"componentType":5126,
			"count":526,
			"max":[
				0.021400000900030136,
				-0.03994999825954437,
				0.039799999445676804
			],
			"min":[
				0.014600000344216824,
				-0.04194999858736992,
				-0.039799999445676804
			],
			"type":"VEC3"
		},
		{
			"bufferView":31,
			"componentType":5126,
			"count":526,
			"type":"VEC3"
		}
	],
	"bufferViews":[
		{
			"buffer":0,
			"byteLength":179160,
			"byteOffset":0,
			"target":34962
		},
		{
			"buffer":0,
			"byteLength":179160,
			"byteOffset":179160,
			"target":34962
		},
		{
			"buffer":0,
			"byteLength":124650,
			"byteOffset":358320,
			"target":34963
		},
		{
			"buffer":0,
			"byteLength":178272,
			"byteOffset":482972,
			"target":34962
		},
		{
			"buffer":0,
			"byteLength":178272,
			"byteOffset":661244,
			"target":34962
		},
		{
			"buffer":0,
			"byteLength":79530,
			"byteOffset":839516,
			"target":34963
		},
		{
			"buffer":0,
			"byteLength":72660,
			"byteOffset":919048,
			"target":34962
		},
		{
			"buffer":0,
			"byteLength":72660,
			"byteOffset":991708,
			"target":34962
		},
		{
			"buffer":0,
			"byteLength":26844,
			"byteOffset":1064368,
			"target":34963
		},
		{
			"buffer":0,
			"byteLength":792,
			"byteOffset":1091212,
			"target":34962
		},
		{
			"buffer":0,
			"byteLength":792,
			"byteOffset":1092004,
			"target":34962
		},
		{
			"buffer":0,
			"byteLength":300,
			"byteOffset":1092796,
			"target":34963
		},
		{
			"buffer":0,
			"byteLength":6312,
			"byteOffset":1093096,
			"target":34962
		},
		{
			"buffer":0,
			"byteLength":6312,
			"byteOffset":1099408,
			"target":34962
		},
		{
			"buffer":0,
			"byteLength":2760,
			"byteOffset":1105720,
			"target":34963
		},
		{
			"buffer":0,
			"byteLength":14772,
			"byteOffset":1108480,
			"target":34962
		},
		{
			"buffer":0,
			"byteLength":14772,
			"byteOffset":1123252,
			"target":34962
		},
		{
			"buffer":0,
			"byteLength":6456,
			"byteOffset":1138024,
			"target":34963
		},
		{
			"buffer":0,
			"byteLength":164448,
			"byteOffset":1144480,
			"target":34962
		},
		{
			"buffer":0,
			"byteLength":164448,
			"byteOffset":1308928,
			"target":34962
		},
		{
			"buffer":0,
			"byteLength":74424,
			"byteOffset":1473376,
			"target":34963
		},
		{
			"buffer":0,
			"byteLength":182496,
			"byteOffset":1547800,
			"target":34962
		},
		{
			"buffer":0,
			"byteLength":182496,
			"byteOffset":1730296,
			"target":34962
		},
		{
			"buffer":0,
			"byteLength":124650,
			"byteOffset":1912792,
			"target":34963
		},
		{
			"buffer":0,
			"byteLength":26136,
			"byteOffset":2037444,
			"target":34962
		},
		{
			"buffer":0,
			"byteLength":26136,
			"byteOffset":2063580,
			"target":34962
		},
		{
			"buffer":0,
			"byteLength":10086,
			"byteOffset":2089716,
			"target":34963
		},
		{
			"buffer":0,
			"byteLength":840,
			"byteOffset":2099804,
			"target":34962
		},
		{
			"buffer":0,
			"byteLength":840,
			"byteOffset":2100644,
			"target":34962
		},
		{
			"buffer":0,
			"byteLength":300,
			"byteOffset":2101484,
			"target":34963
		},
		{
			"buffer":0,
			"byteLength":6312,
			"byteOffset":2101784,
			"target":34962
		},
		{
			"buffer":0,
			"byteLength":6312,
			"byteOffset":2108096,
			"target":34962
		}
	],
	"buffers":[
		{
			"byteLength":2114408,
			"uri":"component.bin"
		}
	]
}
