{
	"asset":{
		"generator":"Khronos glTF Blender I/O v5.2.40",
		"version":"2.0"
	},
	"scene":0,
	"scenes":[
		{
			"name":"Scene",
			"nodes":[
				0,
				1,
				2,
				3,
				4,
				5
			]
		}
	],
	"nodes":[
		{
			"name":"LEFT_SIDE",
			"scale":[
				0.0010000000474974513,
				0.0010000000474974513,
				0.0010000000474974513
			],
			"translation":[
				0,
				0.059339359402656555,
				0.012224999256432056
			]
		},
		{
			"name":"MOUNTING_POINT",
			"scale":[
				0.0010000000474974513,
				0.0010000000474974513,
				0.0010000000474974513
			],
			"translation":[
				0.007500000298023224,
				0.06058246269822121,
				-0.0028999987989664078
			]
		},
		{
			"name":"MOUNTING_POINT_IO",
			"scale":[
				0.0010000000474974513,
				0.0010000000474974513,
				0.0010000000474974513
			],
			"translation":[
				0.007499999832361937,
				0.084507517516613,
				0.01590000092983246
			]
		},
		{
			"mesh":0,
			"name":"Part 1"
		},
		{
			"mesh":1,
			"name":"Part 2"
		},
		{
			"name":"RIGHT_SIDE",
			"scale":[
				0.0010000000474974513,
				0.0010000000474974513,
				0.0010000000474974513
			],
			"translation":[
				0.014999999664723873,
				0.05811914801597595,
				0.012966666370630264
			]
		}
	],
	"materials":[
		{
			"doubleSided":true,
			"name":"Material_0.001",
			"pbrMetallicRoughness":{
				"baseColorFactor":[
					0.004776953253895044,
					0.005181516520678997,
					0.005181516520678997,
					1
				],
				"metallicFactor":0
			}
		},
		{
			"doubleSided":true,
			"name":"Material_1.001",
			"pbrMetallicRoughness":{
				"baseColorFactor":[
					0.8227857351303101,
					0.8307698965072632,
					0.8069522380828857,
					1
				],
				"metallicFactor":0
			}
		},
		{
			"doubleSided":true,
			"name":"Material_2.001",
			"pbrMetallicRoughness":{
				"baseColorFactor":[
					0.014443843625485897,
					0.021219009533524513,
					0.30054378509521484,
					1
				],
				"metallicFactor":0
			}
		},
		{
			"doubleSided":true,
			"name":"Material_3.001",
			"pbrMetallicRoughness":{
				"baseColorFactor":[
					0.004776953253895044,
					0.005181516520678997,
					0.005181516520678997,
					1
				],
				"metallicFactor":0
			}
		},
		{
			"doubleSided":true,
			"name":"Material_4.001",
			"pbrMetallicRoughness":{
				"baseColorFactor":[
					0.04970656707882881,
					0.20863686501979828,
					0.2622506618499756,
					1
				],
				"metallicFactor":0
			}
		},
		{
			"doubleSided":true,
			"name":"Material_5.001",
			"pbrMetallicRoughness":{
				"baseColorFactor":[
					0.09989872574806213,
					0.12743768095970154,
					0.16202937066555023,
					1
				],
				"metallicFactor":0
			}
		},
		{
			"doubleSided":true,
			"name":"Material_6.001",
			"pbrMetallicRoughness":{
				"baseColorFactor":[
					0.7011018991470337,
					0.03688944876194,
					0.0666259378194809,
					1
				],
				"metallicFactor":0
			}
		},
		{
			"doubleSided":true,
			"name":"Material_7.001",
			"pbrMetallicRoughness":{
				"baseColorFactor":[
					0.577580451965332,
					0.5972017645835876,
					0.5520114302635193,
					1
				],
				"metallicFactor":0
			}
		},
		{
			"doubleSided":true,
			"name":"Material_8.001",
			"pbrMetallicRoughness":{
				"baseColorFactor":[
					0.24228112399578094,
					0.35153260827064514,
					0.44520118832588196,
					1
				],
				"metallicFactor":0
			}
		}
	],
	"meshes":[
		{
			"name":"Part 1.001",
			"primitives":[
				{
					"attributes":{
						"POSITION":0,
						"NORMAL":1
					},
					"indices":2,
					"material":0
				}
			]
		},
		{
			"name":"Part 2.001",
			"primitives":[
				{
					"attributes":{
						"POSITION":3,
						"NORMAL":4
					},
					"indices":5,
					"material":1
				},
				{
					"attributes":{
						"POSITION":6,
						"NORMAL":7
					},
					"indices":8,
					"material":2
				},
				{
					"attributes":{
						"POSITION":9,
						"NORMAL":10
					},
					"indices":11,
					"material":3
				},
				{
					"attributes":{
						"POSITION":12,
						"NORMAL":13
					},
					"indices":14,
					"material":4
				},
				{
					"attributes":{
						"POSITION":15,
						"NORMAL":16
					},
					"indices":17,
					"material":5
				},
				{
					"attributes":{
						"POSITION":18,
						"NORMAL":19
					},
					"indices":20,
					"material":6
				},
				{
					"attributes":{
						"POSITION":21,
						"NORMAL":22
					},
					"indices":23,
					"material":7
				},
				{
					"attributes":{
						"POSITION":24,
						"NORMAL":25
					},
					"indices":26,
					"material":8
				}
			]
		}
	],
	"accessors":[
		{
			"bufferView":0,
			"componentType":5126,
			"count":38028,
			"max":[
				0.015126708894968033,
				0.06951809674501419,
				0.03189999982714653
			],
			"min":[
				0.0001722416200209409,
				0.0033199088647961617,
				0.020500000566244125
			],
			"type":"VEC3"
		},
		{
			"bufferView":1,
			"componentType":5126,
			"count":38028,
			"type":"VEC3"
		},
		{
			"bufferView":2,
			"componentType":5123,
			"count":108564,
			"type":"SCALAR"
		},
		{
			"bufferView":3,
			"componentType":5126,
			"count":37161,
			"max":[
				0.014999999664723873,
				0.10705000162124634,
				0.03350000083446503
			],
			"min":[
				-0.002199999988079071,
				3.0979662533751375e-15,
				0.011274999938905239
			],
			"type":"VEC3"
		},
		{
			"bufferView":4,
			"componentType":5126,
			"count":37161,
			"type":"VEC3"
		},
		{
			"bufferView":5,
			"componentType":5123,
			"count":137508,
			"type":"SCALAR"
		},
		{
			"bufferView":6,
			"componentType":5126,
			"count":1297,
			"max":[
				0.013900241814553738,
				0.0071000000461936,
				0.03171975910663605
			],
			"min":[
				0.012199999764561653,
				0.003599999938160181,
				0.025707388296723366
			],
			"type":"VEC3"
		},
		{
			"bufferView":7,
			"componentType":5126,
			"count":1297,
			"type":"VEC3"
		},
		{
			"bufferView":8,
			"componentType":5123,
			"count":4818,
			"type":"SCALAR"
		},
		{
			"bufferView":9,
			"componentType":5126,
			"count":4892,
			"max":[
				0.01510000042617321,
				0.1085750013589859,
				0.02916533686220646
			],
			"min":[
				-0.0034000000450760126,
				0.015336757525801659,
				0.009050000458955765
			],
			"type":"VEC3"
		},
		{
			"bufferView":10,
			"componentType":5126,
			"count":4892,
			"type":"VEC3"
		},
		{
			"bufferView":11,
			"componentType":5123,
			"count":12378,
			"type":"SCALAR"
		},
		{
			"bufferView":12,
			"componentType":5126,
			"count":10706,
			"max":[
				0.013900241814553738,
				0.04309999942779541,
				0.03171975910663605
			],
			"min":[
				0.0010997583158314228,
				0.026100000366568565,
				0.025707388296723366
			],
			"type":"VEC3"
		},
		{
			"bufferView":13,
			"componentType":5126,
			"count":10706,
			"type":"VEC3"
		},
		{
			"bufferView":14,
			"componentType":5123,
			"count":38520,
			"type":"SCALAR"
		},
		{
			"bufferView":15,
			"componentType":5126,
			"count":8107,
			"max":[
				0.014999999664723873,
				0.11389999836683273,
				0.03500000014901161
			],
			"min":[
				-0.005308500025421381,
				1.6058265548657392e-15,
				2.042810369280755e-17
			],
			"type":"VEC3"
		},
		{
			"bufferView":16,
			"componentType":5126,
			"count":8107,
			"type":"VEC3"
		},
		{
			"bufferView":17,
			"componentType":5123,
			"count":19524,
			"type":"SCALAR"
		},
		{
			"bufferView":18,
			"componentType":5126,
			"count":1243,
			"max":[
				0.00279999990016222,
				0.0071000000461936,
				0.03171975910663605
			],
			"min":[
				0.0010997583158314228,
				0.003599999938160181,
				0.025707388296723366
			],
			"type":"VEC3"
		},
		{
			"bufferView":19,
			"componentType":5126,
			"count":1243,
			"type":"VEC3"
		},
		{
			"bufferView":20,
			"componentType":5123,
			"count":4812,
			"type":"SCALAR"
		},
		{
			"bufferView":21,
			"componentType":5126,
			"count":319,
			"max":[
				0.013899999670684338,
				0.029500000178813934,
				0.003754000412300229
			],
			"min":[
				0.009499999694526196,
				0.016300000250339508,
				0.0029500010423362255
			],
			"type":"VEC3"
		},
		{
			"bufferView":22,
			"componentType":5126,
			"count":319,
			"type":"VEC3"
		},
		{
			"bufferView":23,
			"componentType":5123,
			"count":684,
			"type":"SCALAR"
		},
		{
			"bufferView":24,
			"componentType":5126,
			"count":5121,
			"max":[
				0.014999999664723873,
				0.11703730374574661,
				0.017500000074505806
			],
			"min":[
				-0.00419999985024333,
				0.03180000185966492,
				0.0007719165878370404
			],
			"type":"VEC3"
		},
		{
			"bufferView":25,
			"componentType":5126,
			"count":5121,
			"type":"VEC3"
		},
		{
			"bufferView":26,
			"componentType":5123,
			"count":14154,
			"type":"SCALAR"
		}
	],
	"bufferViews":[
		{
			"buffer":0,
			"byteLength":456336,
			"byteOffset":0,
			"target":34962
		},
		{
			"buffer":0,
			"byteLength":456336,
			"byteOffset":456336,
			"target":34962
		},
		{
			"buffer":0,
			"byteLength":217128,
			"byteOffset":912672,
			"target":34963
		},
		{
			"buffer":0,
			"byteLength":445932,
			"byteOffset":1129800,
			"target":34962
		},
		{
			"buffer":0,
			"byteLength":445932,
			"byteOffset":1575732,
			"target":34962
		},
		{
			"buffer":0,
			"byteLength":275016,
			"byteOffset":2021664,
			"target":34963
		},
		{
			"buffer":0,
			"byteLength":15564,
			"byteOffset":2296680,
			"target":34962
		},
		{
			"buffer":0,
			"byteLength":15564,
			"byteOffset":2312244,
			"target":34962
		},
		{
			"buffer":0,
			"byteLength":9636,
			"byteOffset":2327808,
			"target":34963
		},
		{
			"buffer":0,
			"byteLength":58704,
			"byteOffset":2337444,
			"target":34962
		},
		{
			"buffer":0,
			"byteLength":58704,
			"byteOffset":2396148,
			"target":34962
		},
		{
			"buffer":0,
			"byteLength":24756,
			"byteOffset":2454852,
			"target":34963
		},
		{
			"buffer":0,
			"byteLength":128472,
			"byteOffset":2479608,
			"target":34962
		},
		{
			"buffer":0,
			"byteLength":128472,
			"byteOffset":2608080,
			"target":34962
		},
		{
			"buffer":0,
			"byteLength":77040,
			"byteOffset":2736552,
			"target":34963
		},
		{
			"buffer":0,
			"byteLength":97284,
			"byteOffset":2813592,
			"target":34962
		},
		{
			"buffer":0,
			"byteLength":97284,
			"byteOffset":2910876,
			"target":34962
		},
		{
			"buffer":0,
			"byteLength":39048,
			"byteOffset":3008160,
			"target":34963
		},
		{
			"buffer":0,
			"byteLength":14916,
			"byteOffset":3047208,
			"target":34962
		},
		{
			"buffer":0,
			"byteLength":14916,
			"byteOffset":3062124,
			"target":34962
		},
		{
			"buffer":0,
			"byteLength":9624,
			"byteOffset":3077040,
			"target":34963
		},
		{
			"buffer":0,
			"byteLength":3828,
			"byteOffset":3086664,
			"target":34962
		},
		{
			"buffer":0,
			"byteLength":3828,
			"byteOffset":3090492,
			"target":34962
		},
		{
			"buffer":0,
			"byteLength":1368,
			"byteOffset":3094320,
			"target":34963
		},
		{
			"buffer":0,
			"byteLength":61452,
			"byteOffset":3095688,
			"target":34962
		},
		{
			"buffer":0,
			"byteLength":61452,
			"byteOffset":3157140,
			"target":34962
		},
		{
			"buffer":0,
			"byteLength":28308,
			"byteOffset":3218592,
			"target":34963
		}
	],
	"buffers":[
		{
			"byteLength":3246900,
			"uri":"component.bin"
		}
	]
}
